<?xml version="1.0" encoding="UTF-8" standalone="no"?>
<!-- Created with Inkscape (http://www.inkscape.org/) -->

<svg
   xmlns:ns0="http://www.iki.fi/pav/software/textext/"
   xmlns:osb="http://www.openswatchbook.org/uri/2009/osb"
   xmlns:dc="http://purl.org/dc/elements/1.1/"
   xmlns:cc="http://creativecommons.org/ns#"
   xmlns:rdf="http://www.w3.org/1999/02/22-rdf-syntax-ns#"
   xmlns:svg="http://www.w3.org/2000/svg"
   xmlns="http://www.w3.org/2000/svg"
   xmlns:xlink="http://www.w3.org/1999/xlink"
   xmlns:sodipodi="http://sodipodi.sourceforge.net/DTD/sodipodi-0.dtd"
   xmlns:inkscape="http://www.inkscape.org/namespaces/inkscape"
   width="210mm"
   height="297mm"
   id="svg2"
   version="1.1"
   inkscape:version="0.48.4 r9939"
   sodipodi:docname="Nuevo documento 1">
  <sodipodi:namedview
     id="base"
     pagecolor="#ffffff"
     bordercolor="#666666"
     borderopacity="1.0"
     inkscape:pageopacity="0.0"
     inkscape:pageshadow="2"
     inkscape:zoom="1.4142136"
     inkscape:cx="301.15535"
     inkscape:cy="641.74808"
     inkscape:document-units="px"
     inkscape:current-layer="layer1"
     showgrid="false"
     inkscape:window-width="1366"
     inkscape:window-height="744"
     inkscape:window-x="0"
     inkscape:window-y="24"
     inkscape:window-maximized="1" />
  <defs
     id="defs4">
    <linearGradient
       id="linearGradient6179">
      <stop
         style="stop-color:#d4ea00;stop-opacity:1;"
         offset="0"
         id="stop6181" />
      <stop
         style="stop-color:#ffbc00;stop-opacity:0.32335329;"
         offset="1"
         id="stop6183" />
    </linearGradient>
    <linearGradient
       id="linearGradient6155"
       osb:paint="gradient">
      <stop
         style="stop-color:#000000;stop-opacity:1;"
         offset="0"
         id="stop6157" />
      <stop
         style="stop-color:#000000;stop-opacity:0;"
         offset="1"
         id="stop6159" />
    </linearGradient>
    <radialGradient
       r="130.71884"
       fy="124.20648"
       fx="177.03979"
       cy="124.20648"
       cx="177.03979"
       gradientTransform="matrix(1,0,0,1.0448725,0,-5.5734497)"
       gradientUnits="userSpaceOnUse"
       id="radialGradient6776"
       xlink:href="#linearGradient6179"
       inkscape:collect="always" />
  </defs>
  <metadata
     id="metadata7">
    <rdf:RDF>
      <cc:Work
         rdf:about="">
        <dc:format>image/svg+xml</dc:format>
        <dc:type
           rdf:resource="http://purl.org/dc/dcmitype/StillImage" />
        <dc:title></dc:title>
      </cc:Work>
    </rdf:RDF>
  </metadata>
  <g
     inkscape:label="Capa 1"
     inkscape:groupmode="layer"
     id="layer1">
    <path
       sodipodi:type="star"
       style="color:#000000;fill:url(#radialGradient6776);fill-opacity:1;fill-rule:nonzero;stroke:#ffff00;stroke-width:1;stroke-linecap:round;stroke-linejoin:bevel;stroke-miterlimit:4.91900015;stroke-opacity:1;stroke-dasharray:none;stroke-dashoffset:0;marker:none;visibility:visible;display:inline;overflow:visible;enable-background:accumulate"
       id="path2989"
       sodipodi:sides="5"
       sodipodi:cx="189.90868"
       sodipodi:cy="125.04215"
       sodipodi:r1="143.11328"
       sodipodi:r2="65.058846"
       sodipodi:arg1="0.6472159"
       sodipodi:arg2="1.2755344"
       inkscape:flatsided="false"
       inkscape:rounded="0"
       inkscape:randomized="0"
       d="m 304.07953,211.33484 -95.23935,-24.0492 -65.71999,73.00535 -6.55843,-98.00961 -89.740812,-39.94353 91.186022,-36.524078 10.25711,-97.691812 62.91449,75.436496 96.08006,-20.433333 -52.30272,83.146397 z"
       inkscape:transform-center-x="-4.8478697"
       inkscape:transform-center-y="-3.1960019"
       transform="matrix(0.31454792,0.08428285,-0.08428285,0.31454792,-2.0415099,308.53915)" />
    <g
       style="font-style:normal;font-variant:normal;font-weight:normal;font-stretch:normal;letter-spacing:normal;word-spacing:normal;text-anchor:start;fill:none;stroke:#000000;stroke-linecap:butt;stroke-linejoin:miter;stroke-miterlimit:10.43299961;stroke-opacity:1;stroke-dasharray:none;stroke-dashoffset:0"
       id="content"
       transform="matrix(1.3391917,0,0,-1.3391917,-272.92496,1302.665)"
       xml:space="preserve"
       stroke-miterlimit="10.433"
       font-style="normal"
       font-variant="normal"
       font-weight="normal"
       font-stretch="normal"
       font-size-adjust="none"
       letter-spacing="normal"
       word-spacing="normal"
       ns0:text="Objeto"
       ns0:preamble="/home/ccuartas/Dropbox/Libros Opt. Fourier/Avance1/Im\xc3\xa1genes/preamble.tex"><path
         style="fill:#000000;stroke-width:0"
         inkscape:connector-curvature="0"
         d="m 230.6,660.6 0,0.19 -0.01,0.19 -0.02,0.18 -0.03,0.18 -0.04,0.18 -0.05,0.17 -0.05,0.17 -0.06,0.17 -0.06,0.16 -0.08,0.15 -0.08,0.16 -0.09,0.14 -0.09,0.15 -0.1,0.13 -0.1,0.13 -0.11,0.13 -0.12,0.12 -0.12,0.11 -0.12,0.11 -0.13,0.1 -0.14,0.1 -0.14,0.08 -0.14,0.08 -0.15,0.07 -0.15,0.07 -0.15,0.06 -0.16,0.04 -0.16,0.04 -0.16,0.04 -0.16,0.02 -0.17,0.01 -0.17,0.01 v -0.25 c 0.87,0 2.29,-0.71 2.29,-3.25 0,-2.63 -1.36,-3.46 -2.28,-3.46 h 0 c -0.95,0 -2.29,0.87 -2.29,3.46 0,2.58 1.46,3.25 2.28,3.25 v 0.25 c -1.78,0 -3.3,-1.59 -3.3,-3.64 0,-2.03 1.53,-3.58 3.3,-3.58 1.81,0 3.31,1.58 3.31,3.58 z"
         id="path2998" /><path
         style="fill:#000000;stroke-width:0"
         inkscape:connector-curvature="0"
         d="m 232.89,660.98 v 3.15 l -1.43,-0.11 v -0.31 c 0.7,0 0.78,-0.07 0.78,-0.55 v -5.93 h 0.24 c 0.01,0.01 0.09,0.15 0.36,0.62 0.15,-0.23 0.57,-0.72 1.31,-0.72 l -0.04,0.21 c -0.45,0 -0.81,0.24 -1.05,0.61 -0.14,0.21 -0.14,0.24 -0.14,0.42 h 0 v 2.04 c 0,0.19 0,0.2 0.11,0.36 0.39,0.56 0.94,0.64 1.18,0.64 0.44,0 0.8,-0.26 1.04,-0.64 0.26,-0.41 0.29,-0.97 0.29,-1.38 0,-0.37 -0.02,-0.96 -0.31,-1.41 -0.21,-0.31 -0.59,-0.64 -1.12,-0.64 l 0.04,-0.21 c 1.18,0 2.21,0.97 2.21,2.25 0,1.26 -0.97,2.25 -2.1,2.25 -0.78,0 -1.21,-0.47 -1.37,-0.65 z"
         id="path3000" /><path
         style="fill:#000000;stroke-width:0"
         inkscape:connector-curvature="0"
         d="m 239.36,661.63 -1.51,-0.11 v -0.31 c 0.77,0 0.86,-0.07 0.86,-0.56 v -3.93 c 0,-0.45 -0.09,-1.3 -0.73,-1.3 -0.05,0 -0.28,0 -0.54,0.13 0.15,0.04 0.35,0.17 0.35,0.44 0,0.26 -0.18,0.46 -0.46,0.46 -0.28,0 -0.45,-0.2 -0.45,-0.46 0,-0.51 0.55,-0.79 1.12,-0.79 0.75,0 1.36,0.63 1.36,1.54 z"
         id="path3002" /><path
         style="fill:#000000;stroke-width:0"
         inkscape:connector-curvature="0"
         d="m 239.36,663.35 0,0.03 0,0.03 0,0.02 -0.01,0.03 0,0.02 -0.01,0.03 -0.01,0.02 -0.01,0.03 -0.01,0.02 -0.01,0.02 -0.01,0.03 -0.02,0.02 -0.01,0.02 -0.02,0.02 -0.01,0.02 -0.02,0.02 -0.02,0.01 -0.02,0.02 -0.02,0.02 -0.02,0.01 -0.02,0.01 -0.02,0.02 -0.03,0.01 -0.02,0.01 -0.02,0.01 -0.03,0.01 -0.02,0 -0.03,0.01 -0.02,0 -0.03,0.01 -0.03,0 -0.02,0 c -0.29,0 -0.53,-0.24 -0.53,-0.53 0,-0.28 0.24,-0.52 0.53,-0.52 0.28,0 0.52,0.24 0.52,0.52 z"
         id="path3004" /><path
         style="fill:#000000;stroke-width:0"
         inkscape:connector-curvature="0"
         d="m 241.41,659.53 0.01,0.21 c 0.06,1.48 0.9,1.73 1.24,1.73 1.02,0 1.12,-1.34 1.12,-1.73 h -2.36 l -0.01,-0.21 h 2.78 c 0.22,0 0.25,0 0.25,0.21 0,0.98 -0.54,1.94 -1.78,1.94 -1.16,0 -2.07,-1.02 -2.07,-2.26 0,-1.33 1.04,-2.29 2.19,-2.29 1.21,0 1.66,1.1 1.66,1.29 0,0.1 -0.08,0.12 -0.13,0.12 -0.09,0 -0.11,-0.06 -0.13,-0.14 -0.35,-1.03 -1.25,-1.03 -1.34,-1.03 -0.5,0 -0.9,0.3 -1.13,0.67 -0.3,0.48 -0.3,1.13 -0.3,1.49 z"
         id="path3006" /><path
         style="fill:#000000;stroke-width:0"
         inkscape:connector-curvature="0"
         d="m 246.47,661.21 h 1.42 v 0.31 h -1.42 v 1.82 h -0.25 c -0.01,-0.81 -0.31,-1.87 -1.29,-1.91 v -0.22 h 0.85 v -2.74 c 0,-1.23 0.93,-1.34 1.28,-1.34 0.71,0 0.99,0.7 0.99,1.34 v 0.56 h -0.25 v -0.54 c 0,-0.74 -0.3,-1.12 -0.67,-1.12 -0.66,0 -0.66,0.91 -0.66,1.08 z"
         id="path3008" /><path
         style="fill:#000000;stroke-width:0"
         inkscape:connector-curvature="0"
         d="m 253.31,659.36 -0.01,0.12 0,0.12 -0.02,0.11 -0.02,0.12 -0.02,0.11 -0.03,0.11 -0.04,0.11 -0.04,0.1 -0.04,0.1 -0.05,0.1 -0.05,0.1 -0.06,0.09 -0.06,0.1 -0.07,0.08 -0.07,0.09 -0.07,0.08 -0.08,0.08 -0.08,0.07 -0.08,0.07 -0.09,0.06 -0.09,0.07 -0.09,0.05 -0.09,0.05 -0.1,0.05 -0.1,0.04 -0.1,0.04 -0.11,0.03 -0.1,0.03 -0.11,0.02 -0.11,0.01 -0.11,0.01 -0.11,0 -0.01,-0.21 c 0.44,0 0.86,-0.22 1.12,-0.65 0.26,-0.43 0.26,-1 0.26,-1.38 0,-0.36 0,-0.89 -0.22,-1.33 -0.22,-0.45 -0.66,-0.74 -1.15,-0.74 h 0 c -0.43,0 -0.87,0.21 -1.14,0.67 -0.24,0.44 -0.24,1.04 -0.24,1.4 0,0.39 0,0.92 0.23,1.36 0.27,0.46 0.74,0.67 1.14,0.67 l 0.01,0.21 c -1.25,0 -2.21,-1.08 -2.21,-2.32 0,-1.28 1.03,-2.23 2.2,-2.23 1.2,0 2.21,0.97 2.21,2.23 z"
         id="path3010" /></g>    <rect
       y="306.06052"
       x="554.74347"
       height="107.65373"
       width="11.609717"
       id="rect3201-0"
       style="color:#000000;fill:#ff0000;fill-opacity:1;fill-rule:nonzero;stroke:#000000;stroke-width:0.52771437;stroke-linecap:round;stroke-linejoin:bevel;stroke-miterlimit:4.91900015;stroke-opacity:1;stroke-dasharray:none;stroke-dashoffset:0;marker:none;visibility:visible;display:inline;overflow:visible;enable-background:accumulate" />
    <g
       style="font-style:normal;font-variant:normal;font-weight:normal;font-stretch:normal;letter-spacing:normal;word-spacing:normal;text-anchor:start;fill:none;stroke:#000000;stroke-linecap:butt;stroke-linejoin:miter;stroke-miterlimit:10.43299961;stroke-opacity:1;stroke-dasharray:none;stroke-dashoffset:0"
       id="g3377"
       transform="matrix(1.3391917,0,0,-1.3391917,246.53925,1162.0158)"
       xml:space="preserve"
       stroke-miterlimit="10.433"
       font-style="normal"
       font-variant="normal"
       font-weight="normal"
       font-stretch="normal"
       font-size-adjust="none"
       letter-spacing="normal"
       word-spacing="normal"
       ns0:text="Plano \\\\\nfocal"
       ns0:preamble="/home/ccuartas/Dropbox/Libros Opt. Fourier/Avance1/Im\xc3\xa1genes/preamble.tex"><path
         style="fill:#000000;stroke-width:0"
         inkscape:connector-curvature="0"
         d="m 225.69,660.37 -0.03,0.26 v 2.69 c 0,0.32 0.02,0.39 0.49,0.39 h 0.88 c 1.59,0 1.59,-1.05 1.59,-1.54 0,-0.46 0,-1.54 -1.59,-1.54 h -1.37 l 0.03,-0.26 h 1.68 c 1.2,0 2.27,0.81 2.27,1.8 0,0.98 -0.99,1.85 -2.35,1.85 h -3.51 v -0.31 h 0.24 c 0.77,0 0.78,-0.11 0.78,-0.47 v -5.23 c 0,-0.36 -0.01,-0.47 -0.78,-0.47 h -0.24 v -0.31 c 0.35,0.04 1.09,0.04 1.46,0.04 0.38,0 1.13,0 1.47,-0.04 v 0.31 h -0.23 c -0.77,0 -0.79,0.11 -0.79,0.47 z"
         id="path3379" /><path
         style="fill:#000000;stroke-width:0"
         inkscape:connector-curvature="0"
         d="m 231.97,664.13 -1.43,-0.11 v -0.31 c 0.7,0 0.78,-0.07 0.78,-0.55 v -5.17 c 0,-0.45 -0.11,-0.45 -0.78,-0.45 v -0.31 c 0.33,0.01 0.86,0.04 1.11,0.04 0.24,0 0.73,-0.03 1.1,-0.04 v 0.31 c -0.67,0 -0.78,0 -0.78,0.45 z"
         id="path3381" /><path
         style="fill:#000000;stroke-width:0"
         inkscape:connector-curvature="0"
         d="m 236.29,657.99 0.01,-0.04 0,-0.03 0.01,-0.04 0.01,-0.04 0.01,-0.04 0.01,-0.03 0.01,-0.04 0.02,-0.03 0.01,-0.04 0.02,-0.03 0.01,-0.04 0.02,-0.03 0.02,-0.03 0.02,-0.04 0.03,-0.03 0.02,-0.03 0.03,-0.02 0.02,-0.03 0.03,-0.03 0.03,-0.02 0.03,-0.02 0.03,-0.03 0.03,-0.02 0.04,-0.01 0.03,-0.02 0.04,-0.01 0.03,-0.02 0.04,-0.01 0.04,0 0.04,-0.01 0.05,0 0.04,-0.01 c 0.21,0 0.81,0.14 0.81,0.95 v 0.55 h -0.24 v -0.55 c 0,-0.58 -0.25,-0.64 -0.36,-0.64 -0.33,0 -0.37,0.45 -0.37,0.5 v 1.99 c 0,0.41 0,0.8 -0.36,1.17 -0.39,0.39 -0.88,0.54 -1.36,0.54 -0.82,0 -1.5,-0.46 -1.5,-1.12 0,-0.29 0.2,-0.46 0.45,-0.46 0.28,0 0.46,0.19 0.46,0.45 0,0.12 -0.05,0.45 -0.51,0.46 0.27,0.35 0.76,0.46 1.08,0.46 0.49,0 1.05,-0.39 1.05,-1.27 v -0.37 -0.21 -0.99 c 0,-0.95 -0.71,-1.29 -1.16,-1.29 -0.49,0 -0.9,0.35 -0.9,0.85 0,0.54 0.42,1.37 2.06,1.43 h 0 v 0.21 c -0.5,-0.03 -1.2,-0.06 -1.83,-0.36 -0.74,-0.34 -0.99,-0.85 -0.99,-1.29 0,-0.81 0.96,-1.05 1.59,-1.05 0.66,0 1.11,0.39 1.3,0.86 z"
         id="path3383" /><path
         style="fill:#000000;stroke-width:0"
         inkscape:connector-curvature="0"
         d="m 239.06,660.65 v -2.66 c 0,-0.45 -0.11,-0.45 -0.78,-0.45 v -0.31 c 0.35,0.01 0.85,0.04 1.12,0.04 0.26,0 0.78,-0.03 1.12,-0.04 v 0.31 c -0.67,0 -0.78,0 -0.78,0.45 v 1.83 c 0,1.03 0.71,1.59 1.35,1.59 0.62,0 0.73,-0.54 0.73,-1.11 v -2.31 c 0,-0.45 -0.11,-0.45 -0.77,-0.45 v -0.31 c 0.34,0.01 0.85,0.04 1.12,0.04 0.26,0 0.78,-0.03 1.11,-0.04 v 0.31 c -0.51,0 -0.76,0 -0.77,0.3 v 1.9 c 0,0.85 0,1.16 -0.31,1.52 -0.14,0.17 -0.47,0.37 -1.05,0.37 -0.72,0 -1.19,-0.43 -1.47,-1.05 v 1.05 l -1.4,-0.11 v -0.31 c 0.7,0 0.78,-0.07 0.78,-0.56 z"
         id="path3385" /><path
         style="fill:#000000;stroke-width:0"
         inkscape:connector-curvature="0"
         d="m 248.18,659.36 0,0.12 -0.01,0.12 -0.01,0.11 -0.02,0.12 -0.03,0.11 -0.03,0.11 -0.03,0.11 -0.04,0.1 -0.05,0.1 -0.04,0.1 -0.06,0.1 -0.06,0.09 -0.06,0.1 -0.06,0.08 -0.07,0.09 -0.08,0.08 -0.07,0.08 -0.08,0.07 -0.08,0.07 -0.09,0.06 -0.09,0.07 -0.09,0.05 -0.1,0.05 -0.09,0.05 -0.1,0.04 -0.11,0.04 -0.1,0.03 -0.11,0.03 -0.1,0.02 -0.11,0.01 -0.11,0.01 -0.12,0 -0.01,-0.21 c 0.44,0 0.87,-0.22 1.13,-0.65 0.26,-0.43 0.26,-1 0.26,-1.38 0,-0.36 0,-0.89 -0.22,-1.33 -0.22,-0.45 -0.66,-0.74 -1.16,-0.74 h 0 c -0.42,0 -0.86,0.21 -1.13,0.67 -0.25,0.44 -0.25,1.04 -0.25,1.4 0,0.39 0,0.92 0.24,1.36 0.27,0.46 0.74,0.67 1.13,0.67 l 0.01,0.21 c -1.24,0 -2.21,-1.08 -2.21,-2.32 0,-1.28 1.04,-2.23 2.2,-2.23 1.21,0 2.21,0.97 2.21,2.23 z"
         id="path3387" /><path
         style="fill:#000000;stroke-width:0"
         inkscape:connector-curvature="0"
         d="m 225.17,649.56 v 1.15 c 0,0.88 0.48,1.36 0.92,1.36 0.03,0 0.18,0 0.33,-0.08 -0.12,-0.03 -0.3,-0.16 -0.3,-0.41 0,-0.23 0.16,-0.43 0.43,-0.43 0.29,0 0.43,0.2 0.43,0.44 0,0.37 -0.36,0.69 -0.89,0.69 -0.7,0 -1.54,-0.52 -1.54,-1.58 v -1.14 h -0.79 v -0.31 h 0.79 v -3.22 c 0,-0.44 -0.11,-0.44 -0.78,-0.44 v -0.31 c 0.39,0.01 0.86,0.03 1.13,0.03 0.4,0 0.87,0 1.27,-0.03 v 0.31 h -0.21 c -0.74,0 -0.76,0.11 -0.76,0.46 v 3.2 h 1.14 v 0.31 z"
         id="path3389" /><path
         style="fill:#000000;stroke-width:0"
         inkscape:connector-curvature="0"
         d="m 231.16,647.41 0,0.11 -0.01,0.12 -0.01,0.12 -0.02,0.11 -0.03,0.11 -0.03,0.11 -0.03,0.11 -0.04,0.11 -0.05,0.1 -0.04,0.1 -0.06,0.1 -0.06,0.09 -0.06,0.09 -0.06,0.09 -0.07,0.08 -0.08,0.08 -0.07,0.08 -0.08,0.08 -0.08,0.06 -0.09,0.07 -0.09,0.06 -0.09,0.06 -0.1,0.05 -0.09,0.05 -0.1,0.04 -0.11,0.03 -0.1,0.04 -0.11,0.02 -0.1,0.02 -0.11,0.02 -0.11,0.01 -0.12,0 -0.01,-0.22 c 0.44,0 0.87,-0.22 1.13,-0.64 0.26,-0.43 0.26,-1.01 0.26,-1.39 0,-0.35 0,-0.89 -0.22,-1.33 -0.22,-0.44 -0.66,-0.73 -1.16,-0.73 h 0 c -0.42,0 -0.86,0.21 -1.13,0.67 -0.25,0.43 -0.25,1.04 -0.25,1.39 0,0.39 0,0.93 0.24,1.37 0.27,0.45 0.74,0.66 1.13,0.66 l 0.01,0.22 c -1.24,0 -2.2,-1.08 -2.2,-2.32 0,-1.29 1.03,-2.24 2.19,-2.24 1.21,0 2.21,0.97 2.21,2.24 z"
         id="path3391" /><path
         style="fill:#000000;stroke-width:0"
         inkscape:connector-curvature="0"
         d="m 232.9,647.45 0,0.07 0,0.07 0.01,0.08 0,0.07 0.01,0.06 0,0.07 0.01,0.07 0.01,0.06 0.01,0.06 0.01,0.06 0.01,0.06 0.01,0.06 0.03,0.1 0.03,0.11 0.03,0.09 0.04,0.1 0.04,0.08 0.04,0.08 0.04,0.08 0.05,0.07 0.05,0.06 0.04,0.06 0.06,0.06 0.05,0.05 0.05,0.04 0.06,0.04 0.05,0.04 0.06,0.04 0.06,0.03 0.05,0.02 0.06,0.02 0.05,0.02 0.06,0.02 0.05,0.01 0.06,0.01 0.05,0.01 0.05,0 0.05,0 c 0.09,0 0.72,-0.01 1.07,-0.37 -0.41,-0.02 -0.47,-0.32 -0.47,-0.45 0,-0.26 0.18,-0.46 0.46,-0.46 0.26,0 0.46,0.17 0.46,0.47 0,0.67 -0.76,1.06 -1.53,1.06 -1.24,0 -2.16,-1.07 -2.16,-2.3 0,-1.28 0.99,-2.26 2.14,-2.26 1.34,0 1.66,1.19 1.66,1.29 0,0.1 -0.1,0.1 -0.13,0.1 -0.09,0 -0.11,-0.04 -0.13,-0.1 -0.29,-0.92 -0.94,-1.04 -1.31,-1.04 -0.52,0 -1.4,0.43 -1.4,2.03 z"
         id="path3393" /><path
         style="fill:#000000;stroke-width:0"
         inkscape:connector-curvature="0"
         d="m 239.48,646.03 0,-0.03 0.01,-0.04 0,-0.04 0.01,-0.03 0.01,-0.04 0.01,-0.04 0.02,-0.03 0.01,-0.04 0.01,-0.04 0.02,-0.03 0.02,-0.03 0.02,-0.04 0.02,-0.03 0.02,-0.03 0.02,-0.03 0.02,-0.03 0.03,-0.03 0.03,-0.03 0.02,-0.02 0.03,-0.03 0.03,-0.02 0.03,-0.02 0.04,-0.02 0.03,-0.02 0.04,-0.01 0.03,-0.02 0.04,-0.01 0.04,-0.01 0.04,-0.01 0.04,-0.01 0.04,0 0.04,0 c 0.21,0 0.82,0.14 0.82,0.94 v 0.56 h -0.25 v -0.56 c 0,-0.57 -0.25,-0.63 -0.36,-0.63 -0.33,0 -0.37,0.44 -0.37,0.5 v 1.98 c 0,0.42 0,0.81 -0.35,1.17 -0.39,0.39 -0.89,0.55 -1.37,0.55 -0.81,0 -1.5,-0.47 -1.5,-1.12 0,-0.3 0.2,-0.47 0.46,-0.47 0.28,0 0.46,0.2 0.46,0.46 0,0.12 -0.05,0.44 -0.51,0.45 0.27,0.35 0.76,0.46 1.07,0.46 0.49,0 1.06,-0.39 1.06,-1.27 v -0.37 -0.21 -0.99 c 0,-0.94 -0.72,-1.28 -1.17,-1.28 -0.48,0 -0.89,0.35 -0.89,0.84 0,0.55 0.42,1.37 2.06,1.43 h 0 v 0.21 c -0.51,-0.03 -1.21,-0.06 -1.83,-0.35 -0.75,-0.34 -1,-0.86 -1,-1.3 0,-0.8 0.97,-1.05 1.59,-1.05 0.66,0 1.12,0.4 1.31,0.86 z"
         id="path3395" /><path
         style="fill:#000000;stroke-width:0"
         inkscape:connector-curvature="0"
         d="m 242.91,652.17 -1.44,-0.1 v -0.31 c 0.7,0 0.78,-0.07 0.78,-0.56 v -5.17 c 0,-0.44 -0.11,-0.44 -0.78,-0.44 v -0.31 c 0.33,0.01 0.86,0.03 1.11,0.03 0.25,0 0.73,-0.02 1.1,-0.03 v 0.31 c -0.66,0 -0.77,0 -0.77,0.44 z"
         id="path3397" /></g>    <g
       transform="matrix(0.72650044,0,0,0.72650044,80.030698,183.2338)"
       id="g6392">
      <rect
         style="color:#000000;fill:#ff0000;fill-opacity:1;fill-rule:nonzero;stroke:#000000;stroke-width:0.72637862;stroke-linecap:round;stroke-linejoin:bevel;stroke-miterlimit:4.91900015;stroke-opacity:1;stroke-dasharray:none;stroke-dashoffset:0;marker:none;visibility:visible;display:inline;overflow:visible;enable-background:accumulate"
         id="rect3201-0-2"
         width="15.98033"
         height="148.18123"
         x="428.37204"
         y="-593.09058"
         transform="matrix(0,1,-1,0,0,0)" />
      <g
         id="g3501"
         transform="matrix(1.843346,0,0,-1.843346,59.094352,1682.0378)"
         xml:space="preserve"
         stroke-miterlimit="10.433"
         font-style="normal"
         font-variant="normal"
         font-weight="normal"
         font-stretch="normal"
         font-size-adjust="none"
         letter-spacing="normal"
         word-spacing="normal"
         ns0:text="Plano \\\\\ndesenfocado"
         ns0:preamble="/home/ccuartas/Dropbox/Libros Opt. Fourier/Avance1/Im\xc3\xa1genes/preamble.tex"
         style="font-style:normal;font-variant:normal;font-weight:normal;font-stretch:normal;letter-spacing:normal;word-spacing:normal;text-anchor:start;fill:none;stroke:#000000;stroke-linecap:butt;stroke-linejoin:miter;stroke-miterlimit:10.43299961;stroke-opacity:1;stroke-dasharray:none;stroke-dashoffset:0"><path
           d="m 225.69,660.37 -0.03,0.26 v 2.69 c 0,0.32 0.02,0.39 0.49,0.39 h 0.88 c 1.59,0 1.59,-1.05 1.59,-1.54 0,-0.46 0,-1.54 -1.59,-1.54 h -1.37 l 0.03,-0.26 h 1.68 c 1.2,0 2.27,0.81 2.27,1.8 0,0.98 -0.99,1.85 -2.35,1.85 h -3.51 v -0.31 h 0.24 c 0.77,0 0.78,-0.11 0.78,-0.47 v -5.23 c 0,-0.36 -0.01,-0.47 -0.78,-0.47 h -0.24 v -0.31 c 0.35,0.04 1.09,0.04 1.46,0.04 0.38,0 1.13,0 1.47,-0.04 v 0.31 h -0.23 c -0.77,0 -0.79,0.11 -0.79,0.47 z"
           id="path3503"
           inkscape:connector-curvature="0"
           style="fill:#000000;stroke-width:0" /><path
           d="m 231.97,664.13 -1.43,-0.11 v -0.31 c 0.7,0 0.78,-0.07 0.78,-0.55 v -5.17 c 0,-0.45 -0.11,-0.45 -0.78,-0.45 v -0.31 c 0.33,0.01 0.86,0.04 1.11,0.04 0.24,0 0.73,-0.03 1.1,-0.04 v 0.31 c -0.67,0 -0.78,0 -0.78,0.45 z"
           id="path3505"
           inkscape:connector-curvature="0"
           style="fill:#000000;stroke-width:0" /><path
           d="m 236.29,657.99 0.01,-0.04 0,-0.03 0.01,-0.04 0.01,-0.04 0.01,-0.04 0.01,-0.03 0.01,-0.04 0.02,-0.03 0.01,-0.04 0.02,-0.03 0.01,-0.04 0.02,-0.03 0.02,-0.03 0.02,-0.04 0.03,-0.03 0.02,-0.03 0.03,-0.02 0.02,-0.03 0.03,-0.03 0.03,-0.02 0.03,-0.02 0.03,-0.03 0.03,-0.02 0.04,-0.01 0.03,-0.02 0.04,-0.01 0.03,-0.02 0.04,-0.01 0.04,0 0.04,-0.01 0.05,0 0.04,-0.01 c 0.21,0 0.81,0.14 0.81,0.95 v 0.55 h -0.24 v -0.55 c 0,-0.58 -0.25,-0.64 -0.36,-0.64 -0.33,0 -0.37,0.45 -0.37,0.5 v 1.99 c 0,0.41 0,0.8 -0.36,1.17 -0.39,0.39 -0.88,0.54 -1.36,0.54 -0.82,0 -1.5,-0.46 -1.5,-1.12 0,-0.29 0.2,-0.46 0.45,-0.46 0.28,0 0.46,0.19 0.46,0.45 0,0.12 -0.05,0.45 -0.51,0.46 0.27,0.35 0.76,0.46 1.08,0.46 0.49,0 1.05,-0.39 1.05,-1.27 v -0.37 -0.21 -0.99 c 0,-0.95 -0.71,-1.29 -1.16,-1.29 -0.49,0 -0.9,0.35 -0.9,0.85 0,0.54 0.42,1.37 2.06,1.43 h 0 v 0.21 c -0.5,-0.03 -1.2,-0.06 -1.83,-0.36 -0.74,-0.34 -0.99,-0.85 -0.99,-1.29 0,-0.81 0.96,-1.05 1.59,-1.05 0.66,0 1.11,0.39 1.3,0.86 z"
           id="path3507"
           inkscape:connector-curvature="0"
           style="fill:#000000;stroke-width:0" /><path
           d="m 239.06,660.65 v -2.66 c 0,-0.45 -0.11,-0.45 -0.78,-0.45 v -0.31 c 0.35,0.01 0.85,0.04 1.12,0.04 0.26,0 0.78,-0.03 1.12,-0.04 v 0.31 c -0.67,0 -0.78,0 -0.78,0.45 v 1.83 c 0,1.03 0.71,1.59 1.35,1.59 0.62,0 0.73,-0.54 0.73,-1.11 v -2.31 c 0,-0.45 -0.11,-0.45 -0.77,-0.45 v -0.31 c 0.34,0.01 0.85,0.04 1.12,0.04 0.26,0 0.78,-0.03 1.11,-0.04 v 0.31 c -0.51,0 -0.76,0 -0.77,0.3 v 1.9 c 0,0.85 0,1.16 -0.31,1.52 -0.14,0.17 -0.47,0.37 -1.05,0.37 -0.72,0 -1.19,-0.43 -1.47,-1.05 v 1.05 l -1.4,-0.11 v -0.31 c 0.7,0 0.78,-0.07 0.78,-0.56 z"
           id="path3509"
           inkscape:connector-curvature="0"
           style="fill:#000000;stroke-width:0" /><path
           d="m 248.18,659.36 0,0.12 -0.01,0.12 -0.01,0.11 -0.02,0.12 -0.03,0.11 -0.03,0.11 -0.03,0.11 -0.04,0.1 -0.05,0.1 -0.04,0.1 -0.06,0.1 -0.06,0.09 -0.06,0.1 -0.06,0.08 -0.07,0.09 -0.08,0.08 -0.07,0.08 -0.08,0.07 -0.08,0.07 -0.09,0.06 -0.09,0.07 -0.09,0.05 -0.1,0.05 -0.09,0.05 -0.1,0.04 -0.11,0.04 -0.1,0.03 -0.11,0.03 -0.1,0.02 -0.11,0.01 -0.11,0.01 -0.12,0 -0.01,-0.21 c 0.44,0 0.87,-0.22 1.13,-0.65 0.26,-0.43 0.26,-1 0.26,-1.38 0,-0.36 0,-0.89 -0.22,-1.33 -0.22,-0.45 -0.66,-0.74 -1.16,-0.74 h 0 c -0.42,0 -0.86,0.21 -1.13,0.67 -0.25,0.44 -0.25,1.04 -0.25,1.4 0,0.39 0,0.92 0.24,1.36 0.27,0.46 0.74,0.67 1.13,0.67 l 0.01,0.21 c -1.24,0 -2.21,-1.08 -2.21,-2.32 0,-1.28 1.04,-2.23 2.2,-2.23 1.21,0 2.21,0.97 2.21,2.23 z"
           id="path3511"
           inkscape:connector-curvature="0"
           style="fill:#000000;stroke-width:0" /><path
           d="m 227.21,645.83 v -0.66 l 1.47,0.11 v 0.31 c -0.7,0 -0.78,0.07 -0.78,0.55 v 6.03 l -1.43,-0.1 v -0.31 c 0.69,0 0.77,-0.07 0.77,-0.56 v -2.15 c -0.29,0.36 -0.71,0.62 -1.25,0.62 l 0.04,-0.22 c 0.35,0 0.76,-0.15 1.07,-0.59 0.11,-0.17 0.11,-0.19 0.11,-0.37 h 0 v -2.04 c 0,-0.18 0,-0.2 -0.11,-0.36 -0.3,-0.48 -0.74,-0.7 -1.17,-0.7 -0.45,0 -0.81,0.26 -1.05,0.64 -0.25,0.4 -0.28,0.97 -0.28,1.38 0,0.36 0.02,0.96 0.3,1.41 0.21,0.3 0.59,0.63 1.13,0.63 l -0.04,0.22 c -1.17,0 -2.22,-0.97 -2.22,-2.25 0,-1.27 0.97,-2.25 2.11,-2.25 0.64,0 1.08,0.34 1.33,0.66 z"
           id="path3513"
           inkscape:connector-curvature="0"
           style="fill:#000000;stroke-width:0" /><path
           d="m 230.07,647.58 0.01,0.2 c 0.06,1.48 0.9,1.73 1.24,1.73 1.02,0 1.12,-1.34 1.12,-1.73 h -2.36 l -0.01,-0.2 h 2.78 c 0.22,0 0.25,0 0.25,0.2 0,0.99 -0.54,1.95 -1.78,1.95 -1.16,0 -2.07,-1.02 -2.07,-2.26 0,-1.34 1.04,-2.3 2.18,-2.3 1.22,0 1.67,1.1 1.67,1.29 0,0.1 -0.08,0.12 -0.13,0.12 -0.09,0 -0.11,-0.06 -0.13,-0.14 -0.35,-1.02 -1.25,-1.02 -1.35,-1.02 -0.49,0 -0.89,0.3 -1.12,0.67 -0.3,0.47 -0.3,1.13 -0.3,1.49 z"
           id="path3515"
           inkscape:connector-curvature="0"
           style="fill:#000000;stroke-width:0" /><path
           d="m 235.46,647.21 0.03,-0.01 0.02,0 0.03,-0.01 0.03,0 0.03,-0.01 0.04,-0.01 0.04,-0.01 0.04,-0.01 0.04,-0.01 0.04,-0.02 0.04,-0.01 0.05,-0.02 0.04,-0.02 0.05,-0.02 0.04,-0.02 0.04,-0.03 0.05,-0.02 0.04,-0.03 0.04,-0.03 0.04,-0.03 0.04,-0.04 0.03,-0.04 0.04,-0.04 0.03,-0.04 0.03,-0.04 0.01,-0.03 0.01,-0.02 0.01,-0.03 0.01,-0.02 0.01,-0.03 0.01,-0.02 0.01,-0.03 0.01,-0.03 0,-0.03 0.01,-0.03 0,-0.03 0.01,-0.03 0,-0.03 0,-0.04 c 0,-0.5 -0.35,-0.9 -1.13,-0.9 -0.83,0 -1.19,0.57 -1.38,1.41 -0.03,0.13 -0.04,0.17 -0.14,0.17 -0.13,0 -0.13,-0.07 -0.13,-0.25 v -1.31 c 0,-0.17 0,-0.24 0.11,-0.24 0.05,0 0.06,0.01 0.25,0.2 0.02,0.02 0.02,0.04 0.2,0.23 0.44,-0.42 0.89,-0.43 1.09,-0.43 1.15,0 1.61,0.67 1.61,1.38 0,0.53 -0.3,0.83 -0.42,0.94 -0.33,0.32 -0.72,0.4 -1.14,0.48 -0.55,0.11 -1.22,0.24 -1.22,0.82 0,0.34 0.26,0.75 1.12,0.75 1.09,0 1.14,-0.89 1.16,-1.2 0.01,-0.09 0.1,-0.09 0.12,-0.09 0.13,0 0.13,0.05 0.13,0.24 v 1 c 0,0.17 0,0.24 -0.11,0.24 -0.05,0 -0.07,0 -0.2,-0.12 -0.03,-0.04 -0.13,-0.13 -0.17,-0.16 -0.38,0.28 -0.79,0.28 -0.93,0.28 -1.22,0 -1.6,-0.66 -1.6,-1.22 0,-0.35 0.16,-0.63 0.43,-0.85 0.32,-0.25 0.6,-0.31 1.31,-0.45 z"
           id="path3517"
           inkscape:connector-curvature="0"
           style="fill:#000000;stroke-width:0" /><path
           d="m 238.43,647.58 0.01,0.2 c 0.06,1.48 0.89,1.73 1.23,1.73 1.03,0 1.13,-1.34 1.13,-1.73 h -2.36 l -0.01,-0.2 h 2.77 c 0.22,0 0.25,0 0.25,0.2 0,0.99 -0.53,1.95 -1.78,1.95 -1.15,0 -2.07,-1.02 -2.07,-2.26 0,-1.34 1.05,-2.3 2.19,-2.3 1.22,0 1.66,1.1 1.66,1.29 0,0.1 -0.08,0.12 -0.13,0.12 -0.09,0 -0.11,-0.06 -0.13,-0.14 -0.34,-1.02 -1.24,-1.02 -1.34,-1.02 -0.5,0 -0.89,0.3 -1.12,0.67 -0.3,0.47 -0.3,1.13 -0.3,1.49 z"
           id="path3519"
           inkscape:connector-curvature="0"
           style="fill:#000000;stroke-width:0" /><path
           d="m 242.85,648.7 v -2.67 c 0,-0.44 -0.11,-0.44 -0.78,-0.44 v -0.31 c 0.35,0.01 0.86,0.03 1.12,0.03 0.26,0 0.78,-0.02 1.12,-0.03 v 0.31 c -0.67,0 -0.78,0 -0.78,0.44 v 1.83 c 0,1.04 0.71,1.59 1.35,1.59 0.62,0 0.73,-0.53 0.73,-1.1 v -2.32 c 0,-0.44 -0.11,-0.44 -0.77,-0.44 v -0.31 c 0.34,0.01 0.85,0.03 1.12,0.03 0.26,0 0.78,-0.02 1.11,-0.03 v 0.31 c -0.51,0 -0.76,0 -0.77,0.3 v 1.89 c 0,0.86 0,1.17 -0.31,1.52 -0.14,0.17 -0.47,0.37 -1.04,0.37 -0.73,0 -1.2,-0.43 -1.48,-1.04 v 1.04 l -1.4,-0.11 v -0.31 c 0.7,0 0.78,-0.07 0.78,-0.55 z"
           id="path3521"
           inkscape:connector-curvature="0"
           style="fill:#000000;stroke-width:0" /><path
           d="m 249.03,649.56 v 1.15 c 0,0.88 0.48,1.36 0.91,1.36 0.03,0 0.18,0 0.33,-0.08 -0.12,-0.03 -0.3,-0.16 -0.3,-0.41 0,-0.23 0.16,-0.43 0.43,-0.43 0.29,0 0.44,0.2 0.44,0.44 0,0.37 -0.37,0.69 -0.9,0.69 -0.69,0 -1.54,-0.52 -1.54,-1.58 v -1.14 h -0.78 v -0.31 h 0.78 v -3.22 c 0,-0.44 -0.11,-0.44 -0.78,-0.44 v -0.31 c 0.39,0.01 0.86,0.03 1.14,0.03 0.4,0 0.86,0 1.26,-0.03 v 0.31 h -0.21 c -0.73,0 -0.75,0.11 -0.75,0.46 v 3.2 h 1.13 v 0.31 z"
           id="path3523"
           inkscape:connector-curvature="0"
           style="fill:#000000;stroke-width:0" /><path
           d="m 255.02,647.41 -0.01,0.11 0,0.12 -0.02,0.12 -0.02,0.11 -0.02,0.11 -0.03,0.11 -0.04,0.11 -0.04,0.11 -0.04,0.1 -0.05,0.1 -0.05,0.1 -0.06,0.09 -0.06,0.09 -0.07,0.09 -0.07,0.08 -0.07,0.08 -0.08,0.08 -0.08,0.08 -0.08,0.06 -0.09,0.07 -0.09,0.06 -0.09,0.06 -0.09,0.05 -0.1,0.05 -0.1,0.04 -0.1,0.03 -0.11,0.04 -0.1,0.02 -0.11,0.02 -0.11,0.02 -0.11,0.01 -0.11,0 -0.01,-0.22 c 0.44,0 0.86,-0.22 1.12,-0.64 0.26,-0.43 0.26,-1.01 0.26,-1.39 0,-0.35 0,-0.89 -0.22,-1.33 -0.22,-0.44 -0.65,-0.73 -1.15,-0.73 h 0 c -0.43,0 -0.87,0.21 -1.14,0.67 -0.25,0.43 -0.25,1.04 -0.25,1.39 0,0.39 0,0.93 0.24,1.37 0.27,0.45 0.74,0.66 1.14,0.66 l 0.01,0.22 c -1.25,0 -2.21,-1.08 -2.21,-2.32 0,-1.29 1.03,-2.24 2.2,-2.24 1.2,0 2.21,0.97 2.21,2.24 z"
           id="path3525"
           inkscape:connector-curvature="0"
           style="fill:#000000;stroke-width:0" /><path
           d="m 256.76,647.45 0,0.07 0,0.07 0,0.08 0,0.07 0.01,0.06 0.01,0.07 0,0.07 0.01,0.06 0.01,0.06 0.01,0.06 0.01,0.06 0.01,0.06 0.03,0.1 0.03,0.11 0.03,0.09 0.04,0.1 0.04,0.08 0.04,0.08 0.04,0.08 0.05,0.07 0.05,0.06 0.05,0.06 0.05,0.06 0.05,0.05 0.06,0.04 0.05,0.04 0.06,0.04 0.05,0.04 0.06,0.03 0.06,0.02 0.05,0.02 0.06,0.02 0.05,0.02 0.06,0.01 0.05,0.01 0.06,0.01 0.05,0 0.05,0 c 0.09,0 0.72,-0.01 1.06,-0.37 -0.4,-0.02 -0.46,-0.32 -0.46,-0.45 0,-0.26 0.17,-0.46 0.45,-0.46 0.26,0 0.46,0.17 0.46,0.47 0,0.67 -0.75,1.06 -1.52,1.06 -1.24,0 -2.16,-1.07 -2.16,-2.3 0,-1.28 0.98,-2.26 2.14,-2.26 1.33,0 1.65,1.19 1.65,1.29 0,0.1 -0.1,0.1 -0.13,0.1 -0.09,0 -0.11,-0.04 -0.13,-0.1 -0.29,-0.92 -0.93,-1.04 -1.3,-1.04 -0.53,0 -1.4,0.43 -1.4,2.03 z"
           id="path3527"
           inkscape:connector-curvature="0"
           style="fill:#000000;stroke-width:0" /><path
           d="m 263.33,646.03 0.01,-0.03 0,-0.04 0.01,-0.04 0.01,-0.03 0.01,-0.04 0.01,-0.04 0.01,-0.03 0.01,-0.04 0.02,-0.04 0.02,-0.03 0.01,-0.03 0.02,-0.04 0.02,-0.03 0.02,-0.03 0.03,-0.03 0.02,-0.03 0.02,-0.03 0.03,-0.03 0.03,-0.02 0.03,-0.03 0.03,-0.02 0.03,-0.02 0.03,-0.02 0.03,-0.02 0.04,-0.01 0.04,-0.02 0.03,-0.01 0.04,-0.01 0.04,-0.01 0.04,-0.01 0.04,0 0.05,0 c 0.21,0 0.81,0.14 0.81,0.94 v 0.56 h -0.25 v -0.56 c 0,-0.57 -0.24,-0.63 -0.35,-0.63 -0.33,0 -0.37,0.44 -0.37,0.5 v 1.98 c 0,0.42 0,0.81 -0.36,1.17 -0.39,0.39 -0.89,0.55 -1.36,0.55 -0.82,0 -1.5,-0.47 -1.5,-1.12 0,-0.3 0.19,-0.47 0.45,-0.47 0.28,0 0.46,0.2 0.46,0.46 0,0.12 -0.05,0.44 -0.51,0.45 0.27,0.35 0.76,0.46 1.08,0.46 0.49,0 1.05,-0.39 1.05,-1.27 v -0.37 -0.21 -0.99 c 0,-0.94 -0.71,-1.28 -1.16,-1.28 -0.49,0 -0.9,0.35 -0.9,0.84 0,0.55 0.42,1.37 2.06,1.43 h 0 v 0.21 c -0.5,-0.03 -1.2,-0.06 -1.83,-0.35 -0.75,-0.34 -0.99,-0.86 -0.99,-1.3 0,-0.8 0.96,-1.05 1.59,-1.05 0.65,0 1.11,0.4 1.3,0.86 z"
           id="path3529"
           inkscape:connector-curvature="0"
           style="fill:#000000;stroke-width:0" /><path
           d="m 268.78,645.83 v -0.66 l 1.46,0.11 v 0.31 c -0.69,0 -0.77,0.07 -0.77,0.55 v 6.03 l -1.44,-0.1 v -0.31 c 0.7,0 0.78,-0.07 0.78,-0.56 v -2.15 c -0.29,0.36 -0.72,0.62 -1.25,0.62 l 0.04,-0.22 c 0.35,0 0.76,-0.15 1.07,-0.59 0.11,-0.17 0.11,-0.19 0.11,-0.37 h 0 v -2.04 c 0,-0.18 0,-0.2 -0.11,-0.36 -0.3,-0.48 -0.75,-0.7 -1.17,-0.7 -0.45,0 -0.81,0.26 -1.05,0.64 -0.26,0.4 -0.29,0.97 -0.29,1.38 0,0.36 0.02,0.96 0.31,1.41 0.21,0.3 0.59,0.63 1.13,0.63 l -0.04,0.22 c -1.18,0 -2.22,-0.97 -2.22,-2.25 0,-1.27 0.97,-2.25 2.11,-2.25 0.63,0 1.08,0.34 1.33,0.66 z"
           id="path3531"
           inkscape:connector-curvature="0"
           style="fill:#000000;stroke-width:0" /><path
           d="m 275.22,647.41 0,0.11 -0.01,0.12 -0.01,0.12 -0.02,0.11 -0.03,0.11 -0.03,0.11 -0.03,0.11 -0.04,0.11 -0.05,0.1 -0.05,0.1 -0.05,0.1 -0.06,0.09 -0.06,0.09 -0.06,0.09 -0.07,0.08 -0.08,0.08 -0.07,0.08 -0.08,0.08 -0.09,0.06 -0.08,0.07 -0.09,0.06 -0.09,0.06 -0.1,0.05 -0.1,0.05 -0.1,0.04 -0.1,0.03 -0.1,0.04 -0.11,0.02 -0.11,0.02 -0.1,0.02 -0.12,0.01 -0.11,0 -0.01,-0.22 c 0.44,0 0.87,-0.22 1.13,-0.64 0.25,-0.43 0.25,-1.01 0.25,-1.39 0,-0.35 0,-0.89 -0.21,-1.33 -0.22,-0.44 -0.66,-0.73 -1.16,-0.73 h 0 c -0.42,0 -0.86,0.21 -1.13,0.67 -0.25,0.43 -0.25,1.04 -0.25,1.39 0,0.39 0,0.93 0.24,1.37 0.27,0.45 0.73,0.66 1.13,0.66 l 0.01,0.22 c -1.24,0 -2.21,-1.08 -2.21,-2.32 0,-1.29 1.04,-2.24 2.2,-2.24 1.21,0 2.21,0.97 2.21,2.24 z"
           id="path3533"
           inkscape:connector-curvature="0"
           style="fill:#000000;stroke-width:0" /></g>    </g>
    <rect
       transform="matrix(0.70710678,-0.70710678,0.70710678,0.70710678,0,0)"
       y="526.45337"
       x="74.003006"
       height="107.65373"
       width="11.609716"
       id="rect3201"
       style="color:#000000;fill:#007e00;fill-opacity:1;fill-rule:nonzero;stroke:#000000;stroke-width:0.52771437;stroke-linecap:round;stroke-linejoin:bevel;stroke-miterlimit:4.91900015;stroke-opacity:1;stroke-dasharray:none;stroke-dashoffset:0;marker:none;visibility:visible;display:inline;overflow:visible;enable-background:accumulate" />
    <g
       ns0:preamble="/home/ccuartas/Dropbox/Libros Opt. Fourier/Avance1/Im\xc3\xa1genes/preamble.tex"
       ns0:text="Divisor de\\\\ haz"
       word-spacing="normal"
       letter-spacing="normal"
       font-size-adjust="none"
       font-stretch="normal"
       font-weight="normal"
       font-variant="normal"
       font-style="normal"
       stroke-miterlimit="10.433"
       xml:space="preserve"
       transform="matrix(1.3391917,0,0,-1.3391917,124.72674,1168.5419)"
       id="g3815"
       style="font-style:normal;font-variant:normal;font-weight:normal;font-stretch:normal;letter-spacing:normal;word-spacing:normal;text-anchor:start;fill:none;stroke:#000000;stroke-linecap:butt;stroke-linejoin:miter;stroke-miterlimit:10.43299961;stroke-opacity:1;stroke-dasharray:none;stroke-dashoffset:0"><path
         id="path3817"
         d="m 223.78,664.02 v -0.31 h 0.24 c 0.77,0 0.78,-0.11 0.78,-0.47 v -5.23 c 0,-0.36 -0.01,-0.47 -0.78,-0.47 h -0.24 v -0.31 h 3.64 l -0.27,0.31 h -1 c -0.47,0 -0.49,0.07 -0.49,0.4 v 5.38 c 0,0.32 0.02,0.39 0.49,0.39 h 0.99 c 0.62,0 1.31,-0.22 1.81,-0.92 0.43,-0.59 0.52,-1.44 0.52,-2.22 0,-1.1 -0.19,-1.7 -0.55,-2.18 -0.19,-0.27 -0.76,-0.85 -1.77,-0.85 l 0.27,-0.31 c 1.67,0 3.05,1.48 3.05,3.34 0,1.89 -1.35,3.45 -3.05,3.45 z"
         inkscape:connector-curvature="0"
         style="fill:#000000;stroke-width:0" /><path
         id="path3819"
         d="m 232.8,661.63 -1.39,-0.11 v -0.31 c 0.65,0 0.74,-0.06 0.74,-0.55 v -2.67 c 0,-0.45 -0.11,-0.45 -0.78,-0.45 v -0.31 c 0.32,0.01 0.86,0.04 1.09,0.04 0.35,0 0.7,-0.03 1.04,-0.04 v 0.31 c -0.66,0 -0.7,0.05 -0.7,0.44 z"
         inkscape:connector-curvature="0"
         style="fill:#000000;stroke-width:0" /><path
         id="path3821"
         d="m 232.84,663.35 0,0.03 0,0.03 0,0.03 -0.01,0.03 0,0.02 -0.01,0.03 -0.01,0.03 -0.01,0.02 -0.01,0.02 -0.01,0.03 -0.02,0.02 -0.01,0.02 -0.02,0.02 -0.01,0.02 -0.02,0.02 -0.02,0.02 -0.01,0.01 -0.02,0.02 -0.02,0.01 -0.03,0.02 -0.02,0.01 -0.02,0.01 -0.02,0.01 -0.02,0.01 -0.03,0.01 -0.02,0.01 -0.03,0.01 -0.02,0 -0.03,0.01 -0.02,0 -0.03,0 -0.02,0 c -0.31,0 -0.53,-0.27 -0.53,-0.53 0,-0.26 0.22,-0.52 0.53,-0.52 0.27,0 0.52,0.21 0.52,0.52 z"
         inkscape:connector-curvature="0"
         style="fill:#000000;stroke-width:0" /><path
         id="path3823"
         d="m 237.95,660.54 0.01,0.02 0.01,0.03 0.01,0.02 0.01,0.03 0.01,0.02 0.01,0.03 0.01,0.02 0.02,0.03 0.01,0.03 0.02,0.03 0.02,0.02 0.01,0.03 0.02,0.03 0.03,0.03 0.02,0.02 0.02,0.03 0.03,0.02 0.03,0.03 0.03,0.02 0.03,0.02 0.03,0.03 0.04,0.02 0.04,0.02 0.04,0.01 0.04,0.02 0.04,0.01 0.05,0.02 0.05,0.01 0.05,0.01 0.03,0 0.03,0 0.02,0 0.03,0.01 0.03,0 0.03,0 v 0.31 c -0.23,-0.02 -0.51,-0.03 -0.74,-0.03 -0.24,0 -0.7,0.02 -0.87,0.03 v -0.31 c 0.37,-0.01 0.48,-0.24 0.48,-0.43 0,-0.09 -0.02,-0.13 -0.06,-0.24 l -1.02,-2.53 -1.11,2.77 c -0.06,0.13 -0.06,0.15 -0.06,0.17 0,0.26 0.39,0.26 0.57,0.26 v 0.31 c -0.3,-0.01 -0.86,-0.03 -1.09,-0.03 -0.26,0 -0.66,0.01 -0.96,0.03 v -0.31 c 0.63,0 0.67,-0.06 0.79,-0.37 l 1.44,-3.53 c 0.06,-0.14 0.08,-0.18 0.21,-0.18 0.13,0 0.17,0.09 0.21,0.18 z"
         inkscape:connector-curvature="0"
         style="fill:#000000;stroke-width:0" /><path
         id="path3825"
         d="m 240.83,661.63 -1.39,-0.11 v -0.31 c 0.64,0 0.73,-0.06 0.73,-0.55 v -2.67 c 0,-0.45 -0.11,-0.45 -0.77,-0.45 v -0.31 c 0.31,0.01 0.85,0.04 1.09,0.04 0.35,0 0.7,-0.03 1.04,-0.04 v 0.31 c -0.66,0 -0.7,0.05 -0.7,0.44 z"
         inkscape:connector-curvature="0"
         style="fill:#000000;stroke-width:0" /><path
         id="path3827"
         d="m 240.87,663.35 0,0.03 0,0.03 -0.01,0.03 0,0.03 -0.01,0.02 -0.01,0.03 0,0.03 -0.01,0.02 -0.02,0.02 -0.01,0.03 -0.01,0.02 -0.01,0.02 -0.02,0.02 -0.02,0.02 -0.01,0.02 -0.02,0.02 -0.02,0.01 -0.02,0.02 -0.02,0.01 -0.02,0.02 -0.02,0.01 -0.02,0.01 -0.03,0.01 -0.02,0.01 -0.02,0.01 -0.03,0.01 -0.02,0.01 -0.03,0 -0.02,0.01 -0.03,0 -0.02,0 -0.03,0 c -0.31,0 -0.53,-0.27 -0.53,-0.53 0,-0.26 0.22,-0.52 0.53,-0.52 0.28,0 0.53,0.21 0.53,0.52 z"
         inkscape:connector-curvature="0"
         style="fill:#000000;stroke-width:0" /><path
         id="path3829"
         d="m 243.9,659.16 0.03,0 0.02,-0.01 0.03,0 0.03,-0.01 0.04,-0.01 0.03,-0.01 0.04,-0.01 0.04,-0.01 0.04,-0.01 0.04,-0.01 0.05,-0.02 0.04,-0.02 0.04,-0.01 0.05,-0.03 0.04,-0.02 0.04,-0.02 0.05,-0.03 0.04,-0.03 0.04,-0.03 0.04,-0.03 0.04,-0.03 0.03,-0.04 0.04,-0.04 0.03,-0.04 0.03,-0.05 0.01,-0.02 0.01,-0.03 0.01,-0.02 0.02,-0.03 0.01,-0.02 0,-0.03 0.01,-0.03 0.01,-0.02 0.01,-0.03 0,-0.03 0,-0.03 0.01,-0.04 0,-0.03 0,-0.03 c 0,-0.51 -0.35,-0.91 -1.12,-0.91 -0.84,0 -1.2,0.57 -1.39,1.42 -0.03,0.12 -0.04,0.16 -0.14,0.16 -0.13,0 -0.13,-0.07 -0.13,-0.25 v -1.31 c 0,-0.16 0,-0.23 0.11,-0.23 0.05,0 0.06,0.01 0.25,0.19 0.02,0.02 0.02,0.04 0.2,0.23 0.44,-0.41 0.89,-0.42 1.1,-0.42 1.14,0 1.6,0.66 1.6,1.38 0,0.52 -0.3,0.82 -0.42,0.94 -0.33,0.32 -0.72,0.4 -1.13,0.48 -0.56,0.11 -1.23,0.23 -1.23,0.81 0,0.35 0.26,0.76 1.12,0.76 1.09,0 1.14,-0.9 1.16,-1.21 0.01,-0.08 0.1,-0.08 0.12,-0.08 0.13,0 0.13,0.05 0.13,0.23 v 1.01 c 0,0.17 0,0.23 -0.11,0.23 -0.05,0 -0.07,0 -0.2,-0.11 -0.03,-0.04 -0.13,-0.13 -0.17,-0.16 -0.38,0.27 -0.79,0.27 -0.93,0.27 -1.22,0 -1.6,-0.66 -1.6,-1.22 0,-0.34 0.16,-0.62 0.43,-0.84 0.32,-0.26 0.6,-0.32 1.31,-0.46 z"
         inkscape:connector-curvature="0"
         style="fill:#000000;stroke-width:0" /><path
         id="path3831"
         d="m 250.45,659.36 0,0.12 -0.01,0.12 -0.01,0.11 -0.02,0.12 -0.03,0.11 -0.03,0.11 -0.03,0.11 -0.04,0.1 -0.05,0.1 -0.05,0.1 -0.05,0.1 -0.06,0.09 -0.06,0.1 -0.06,0.08 -0.07,0.09 -0.08,0.08 -0.07,0.08 -0.08,0.07 -0.09,0.07 -0.08,0.06 -0.09,0.07 -0.09,0.05 -0.1,0.05 -0.1,0.05 -0.1,0.04 -0.1,0.04 -0.1,0.03 -0.11,0.03 -0.11,0.02 -0.1,0.01 -0.12,0.01 -0.11,0 -0.01,-0.21 c 0.44,0 0.87,-0.22 1.13,-0.65 0.25,-0.43 0.25,-1 0.25,-1.38 0,-0.36 0,-0.89 -0.21,-1.33 -0.22,-0.45 -0.66,-0.74 -1.16,-0.74 h 0 c -0.43,0 -0.86,0.21 -1.13,0.67 -0.25,0.44 -0.25,1.04 -0.25,1.4 0,0.39 0,0.92 0.24,1.36 0.27,0.46 0.73,0.67 1.13,0.67 l 0.01,0.21 c -1.24,0 -2.21,-1.08 -2.21,-2.32 0,-1.28 1.04,-2.23 2.2,-2.23 1.21,0 2.21,0.97 2.21,2.23 z"
         inkscape:connector-curvature="0"
         style="fill:#000000;stroke-width:0" /><path
         id="path3833"
         d="m 252.41,660.53 v 1.1 l -1.39,-0.11 v -0.31 c 0.7,0 0.78,-0.07 0.78,-0.56 v -2.66 c 0,-0.45 -0.11,-0.45 -0.78,-0.45 v -0.31 c 0.39,0.01 0.86,0.04 1.14,0.04 0.4,0 0.86,0 1.26,-0.04 v 0.31 h -0.21 c -0.73,0 -0.75,0.11 -0.75,0.47 v 1.53 c 0,0.98 0.42,1.87 1.17,1.87 0.07,0 0.09,0 0.11,-0.01 -0.03,-0.01 -0.23,-0.13 -0.23,-0.39 0,-0.28 0.21,-0.43 0.43,-0.43 0.18,0 0.43,0.12 0.43,0.44 0,0.32 -0.31,0.61 -0.74,0.61 -0.73,0 -1.08,-0.67 -1.22,-1.1 z"
         inkscape:connector-curvature="0"
         style="fill:#000000;stroke-width:0" /><path
         id="path3835"
         d="m 261.75,657.78 v -0.65 l 1.46,0.1 v 0.31 c -0.7,0 -0.78,0.07 -0.78,0.56 v 6.03 L 261,664.02 v -0.31 c 0.7,0 0.78,-0.07 0.78,-0.55 v -2.15 c -0.29,0.36 -0.72,0.62 -1.26,0.62 l 0.04,-0.22 c 0.35,0 0.77,-0.15 1.08,-0.6 0.11,-0.17 0.11,-0.19 0.11,-0.37 h 0 v -2.03 c 0,-0.18 0,-0.2 -0.11,-0.37 -0.3,-0.48 -0.75,-0.7 -1.18,-0.7 -0.44,0 -0.8,0.26 -1.04,0.64 -0.26,0.41 -0.29,0.97 -0.29,1.38 0,0.37 0.02,0.96 0.31,1.41 0.21,0.31 0.59,0.64 1.12,0.64 l -0.04,0.22 c -1.17,0 -2.22,-0.98 -2.22,-2.26 0,-1.26 0.98,-2.24 2.11,-2.24 0.64,0 1.09,0.33 1.34,0.65 z"
         inkscape:connector-curvature="0"
         style="fill:#000000;stroke-width:0" /><path
         id="path3837"
         d="m 264.61,659.53 0.01,0.21 c 0.05,1.48 0.89,1.73 1.23,1.73 1.02,0 1.12,-1.34 1.12,-1.73 h -2.35 l -0.01,-0.21 h 2.77 c 0.22,0 0.25,0 0.25,0.21 0,0.98 -0.54,1.94 -1.78,1.94 -1.15,0 -2.07,-1.02 -2.07,-2.26 0,-1.33 1.05,-2.29 2.19,-2.29 1.21,0 1.66,1.1 1.66,1.29 0,0.1 -0.08,0.12 -0.13,0.12 -0.09,0 -0.11,-0.06 -0.13,-0.14 -0.35,-1.03 -1.24,-1.03 -1.34,-1.03 -0.5,0 -0.9,0.3 -1.13,0.67 -0.29,0.48 -0.29,1.13 -0.29,1.49 z"
         inkscape:connector-curvature="0"
         style="fill:#000000;stroke-width:0" /><path
         id="path3839"
         d="m 224.53,646.03 0,-0.02 0,-0.02 -0.01,-0.03 0,-0.04 0,-0.03 0,-0.03 -0.01,-0.03 0,-0.03 -0.01,-0.02 -0.01,-0.03 -0.01,-0.02 -0.01,-0.02 -0.01,-0.01 -0.02,-0.02 -0.01,-0.01 -0.02,-0.01 -0.02,-0.02 -0.02,-0.01 -0.03,0 -0.02,-0.01 -0.03,-0.01 -0.03,0 -0.03,-0.01 -0.04,0 -0.02,0 -0.02,-0.01 -0.02,0 -0.02,0 -0.02,0 -0.02,0 -0.02,0 -0.03,0 -0.02,0 -0.03,0 -0.02,0 -0.03,0 -0.02,0 -0.03,0 -0.03,0 -0.03,0 -0.03,0 -0.03,0 v -0.31 c 0.35,0.01 0.86,0.03 1.13,0.03 0.25,0 0.77,-0.02 1.11,-0.03 v 0.31 c -0.67,0 -0.78,0 -0.78,0.44 v 1.83 c 0,1.04 0.71,1.59 1.35,1.59 0.62,0 0.73,-0.53 0.73,-1.1 v -2.32 c 0,-0.44 -0.11,-0.44 -0.77,-0.44 v -0.31 c 0.34,0.01 0.85,0.03 1.12,0.03 0.26,0 0.78,-0.02 1.12,-0.03 v 0.31 c -0.52,0 -0.77,0 -0.78,0.3 v 1.89 c 0,0.86 0,1.17 -0.31,1.52 -0.14,0.17 -0.47,0.37 -1.04,0.37 -0.84,0 -1.28,-0.59 -1.45,-0.97 v 3.47 l -1.43,-0.1 v -0.31 c 0.7,0 0.78,-0.07 0.78,-0.56 z"
         inkscape:connector-curvature="0"
         style="fill:#000000;stroke-width:0" /><path
         id="path3841"
         d="m 232.28,646.03 0,-0.03 0.01,-0.04 0.01,-0.04 0.01,-0.03 0.01,-0.04 0.01,-0.04 0.01,-0.03 0.01,-0.04 0.02,-0.04 0.01,-0.03 0.02,-0.03 0.02,-0.04 0.02,-0.03 0.02,-0.03 0.02,-0.03 0.03,-0.03 0.02,-0.03 0.03,-0.03 0.03,-0.02 0.03,-0.03 0.03,-0.02 0.03,-0.02 0.03,-0.02 0.03,-0.02 0.04,-0.01 0.03,-0.02 0.04,-0.01 0.04,-0.01 0.04,-0.01 0.04,-0.01 0.04,0 0.05,0 c 0.2,0 0.81,0.14 0.81,0.94 v 0.56 h -0.25 v -0.56 c 0,-0.57 -0.24,-0.63 -0.36,-0.63 -0.32,0 -0.36,0.44 -0.36,0.5 v 1.98 c 0,0.42 0,0.81 -0.36,1.17 -0.39,0.39 -0.89,0.55 -1.36,0.55 -0.82,0 -1.51,-0.47 -1.51,-1.12 0,-0.3 0.2,-0.47 0.46,-0.47 0.28,0 0.46,0.2 0.46,0.46 0,0.12 -0.05,0.44 -0.51,0.45 0.27,0.35 0.76,0.46 1.08,0.46 0.48,0 1.05,-0.39 1.05,-1.27 v -0.37 -0.21 -0.99 c 0,-0.94 -0.72,-1.28 -1.16,-1.28 -0.49,0 -0.9,0.35 -0.9,0.84 0,0.55 0.42,1.37 2.06,1.43 h 0 v 0.21 c -0.51,-0.03 -1.2,-0.06 -1.83,-0.35 -0.75,-0.34 -1,-0.86 -1,-1.3 0,-0.8 0.97,-1.05 1.6,-1.05 0.65,0 1.11,0.4 1.3,0.86 z"
         inkscape:connector-curvature="0"
         style="fill:#000000;stroke-width:0" /><path
         id="path3843"
         d="m 237.83,649.26 0,0.01 0.01,0 0,0.01 0,0 0.01,0.01 0,0 0.01,0.01 0,0 0,0 0,0.01 0.01,0 0,0.01 0,0 0.01,0 0,0.01 0,0.01 0.01,0 0,0.01 0.01,0 0,0.01 0,0 0,0.01 0.01,0 0,0.01 0,0 0,0.01 0,0 0,0 0.01,0.01 0,0 0,0 0,0.01 0,0.01 0,0 0,0.01 c 0,0.13 -0.08,0.13 -0.26,0.13 h -3.18 l -0.11,-1.6 h 0.25 c 0.06,1.01 0.24,1.38 1.34,1.38 h 1.13 l -2.77,-3.74 c -0.09,-0.11 -0.09,-0.13 -0.09,-0.18 0,-0.14 0.07,-0.14 0.26,-0.14 h 3.28 l 0.17,1.86 h -0.25 c -0.09,-1.17 -0.3,-1.61 -1.45,-1.61 h -1.18 z"
         inkscape:connector-curvature="0"
         style="fill:#000000;stroke-width:0" /></g>    <g
       style="font-style:normal;font-variant:normal;font-weight:normal;font-stretch:normal;letter-spacing:normal;word-spacing:normal;text-anchor:start;fill:none;stroke:#000000;stroke-linecap:butt;stroke-linejoin:miter;stroke-miterlimit:10.43299961;stroke-opacity:1;stroke-dasharray:none;stroke-dashoffset:0"
       ns0:preamble="/home/ccuartas/Dropbox/Libros Opt. Fourier/Avance1/Im\xc3\xa1genes/preamble.tex"
       ns0:text="Sistema \\\\\naberrado"
       word-spacing="normal"
       letter-spacing="normal"
       font-size-adjust="none"
       font-stretch="normal"
       font-weight="normal"
       font-variant="normal"
       font-style="normal"
       stroke-miterlimit="10.433"
       xml:space="preserve"
       transform="matrix(1.3391917,0,0,-1.3391917,-131.17469,1328.4791)"
       id="g3263"><path
         style="fill:#000000;stroke-width:0"
         inkscape:connector-curvature="0"
         id="path3265"
         d="m 226.9,661.09 -1.27,0.31 c -0.62,0.15 -1,0.68 -1,1.26 0,0.69 0.53,1.3 1.31,1.3 1.66,0 1.88,-1.63 1.94,-2.08 0.01,-0.06 0.01,-0.11 0.12,-0.11 0.13,0 0.13,0.05 0.13,0.23 v 2 c 0,0.17 0,0.24 -0.11,0.24 -0.07,0 -0.08,-0.01 -0.15,-0.13 l -0.35,-0.57 c -0.3,0.29 -0.7,0.7 -1.59,0.7 -1.11,0 -1.94,-0.88 -1.94,-1.93 0,-0.82 0.53,-1.55 1.3,-1.82 0.11,-0.04 0.62,-0.16 1.32,-0.33 0.26,-0.06 0.56,-0.13 0.84,-0.5 0.21,-0.26 0.31,-0.59 0.31,-0.92 0,-0.7 -0.5,-1.42 -1.33,-1.42 -0.29,0 -1.05,0.05 -1.58,0.54 -0.57,0.54 -0.6,1.17 -0.61,1.53 -0.01,0.1 -0.09,0.1 -0.12,0.1 -0.13,0 -0.13,-0.07 -0.13,-0.25 v -1.98 c 0,-0.17 0,-0.24 0.11,-0.24 0.07,0 0.08,0.02 0.15,0.13 0,0.01 0.03,0.03 0.36,0.56 0.3,-0.34 0.94,-0.69 1.83,-0.69 1.16,0 1.96,0.97 1.96,2.06 0,1 -0.66,1.81 -1.5,2.01 z" /><path
         style="fill:#000000;stroke-width:0"
         inkscape:connector-curvature="0"
         id="path3267"
         d="m 230.73,661.63 -1.39,-0.11 v -0.31 c 0.64,0 0.73,-0.06 0.73,-0.55 v -2.67 c 0,-0.45 -0.11,-0.45 -0.77,-0.45 v -0.31 c 0.31,0.01 0.85,0.04 1.09,0.04 0.35,0 0.7,-0.03 1.04,-0.04 v 0.31 c -0.66,0 -0.7,0.05 -0.7,0.44 z" /><path
         style="fill:#000000;stroke-width:0"
         inkscape:connector-curvature="0"
         id="path3269"
         d="m 230.77,663.35 0,0.03 0,0.03 -0.01,0.03 0,0.03 -0.01,0.02 -0.01,0.03 -0.01,0.03 -0.01,0.02 -0.01,0.02 -0.01,0.03 -0.01,0.02 -0.02,0.02 -0.01,0.02 -0.02,0.02 -0.01,0.02 -0.02,0.02 -0.02,0.01 -0.02,0.02 -0.02,0.01 -0.02,0.02 -0.02,0.01 -0.02,0.01 -0.03,0.01 -0.02,0.01 -0.02,0.01 -0.03,0.01 -0.02,0.01 -0.03,0 -0.02,0.01 -0.03,0 -0.02,0 -0.03,0 c -0.31,0 -0.53,-0.27 -0.53,-0.53 0,-0.26 0.22,-0.52 0.53,-0.52 0.28,0 0.53,0.21 0.53,0.52 z" /><path
         style="fill:#000000;stroke-width:0"
         inkscape:connector-curvature="0"
         id="path3271"
         d="m 233.8,659.16 0.03,0 0.02,-0.01 0.03,0 0.03,-0.01 0.03,-0.01 0.04,-0.01 0.04,-0.01 0.04,-0.01 0.04,-0.01 0.04,-0.01 0.04,-0.02 0.05,-0.02 0.04,-0.01 0.05,-0.03 0.04,-0.02 0.04,-0.02 0.05,-0.03 0.04,-0.03 0.04,-0.03 0.04,-0.03 0.04,-0.03 0.03,-0.04 0.04,-0.04 0.03,-0.04 0.03,-0.05 0.01,-0.02 0.01,-0.03 0.01,-0.02 0.01,-0.03 0.01,-0.02 0.01,-0.03 0.01,-0.03 0.01,-0.02 0,-0.03 0.01,-0.03 0,-0.03 0.01,-0.04 0,-0.03 0,-0.03 c 0,-0.51 -0.35,-0.91 -1.13,-0.91 -0.83,0 -1.19,0.57 -1.38,1.42 -0.03,0.12 -0.04,0.16 -0.14,0.16 -0.13,0 -0.13,-0.07 -0.13,-0.25 v -1.31 c 0,-0.16 0,-0.23 0.11,-0.23 0.05,0 0.06,0.01 0.25,0.19 0.02,0.02 0.02,0.04 0.2,0.23 0.44,-0.41 0.89,-0.42 1.09,-0.42 1.15,0 1.61,0.66 1.61,1.38 0,0.52 -0.3,0.82 -0.42,0.94 -0.33,0.32 -0.72,0.4 -1.14,0.48 -0.55,0.11 -1.22,0.23 -1.22,0.81 0,0.35 0.26,0.76 1.11,0.76 1.1,0 1.15,-0.9 1.17,-1.21 0.01,-0.08 0.1,-0.08 0.12,-0.08 0.13,0 0.13,0.05 0.13,0.23 v 1.01 c 0,0.17 0,0.23 -0.11,0.23 -0.05,0 -0.07,0 -0.2,-0.11 -0.03,-0.04 -0.13,-0.13 -0.17,-0.16 -0.38,0.27 -0.79,0.27 -0.94,0.27 -1.21,0 -1.59,-0.66 -1.59,-1.22 0,-0.34 0.16,-0.62 0.43,-0.84 0.32,-0.26 0.6,-0.32 1.31,-0.46 z" /><path
         style="fill:#000000;stroke-width:0"
         inkscape:connector-curvature="0"
         id="path3273"
         d="m 237.38,661.21 h 1.43 v 0.31 h -1.43 v 1.82 h -0.24 c -0.01,-0.81 -0.31,-1.87 -1.29,-1.91 v -0.22 h 0.85 v -2.74 c 0,-1.23 0.92,-1.34 1.28,-1.34 0.71,0 0.99,0.7 0.99,1.34 v 0.56 h -0.25 v -0.54 c 0,-0.74 -0.3,-1.12 -0.67,-1.12 -0.67,0 -0.67,0.91 -0.67,1.08 z" /><path
         style="fill:#000000;stroke-width:0"
         inkscape:connector-curvature="0"
         id="path3275"
         d="m 240.64,659.53 0.01,0.21 c 0.06,1.48 0.9,1.73 1.24,1.73 1.02,0 1.12,-1.34 1.12,-1.73 h -2.36 l -0.01,-0.21 h 2.78 c 0.22,0 0.25,0 0.25,0.21 0,0.98 -0.54,1.94 -1.78,1.94 -1.16,0 -2.07,-1.02 -2.07,-2.26 0,-1.33 1.04,-2.29 2.19,-2.29 1.21,0 1.66,1.1 1.66,1.29 0,0.1 -0.08,0.12 -0.13,0.12 -0.09,0 -0.11,-0.06 -0.13,-0.14 -0.35,-1.03 -1.25,-1.03 -1.34,-1.03 -0.5,0 -0.9,0.3 -1.13,0.67 -0.3,0.48 -0.3,1.13 -0.3,1.49 z" /><path
         style="fill:#000000;stroke-width:0"
         inkscape:connector-curvature="0"
         id="path3277"
         d="m 245.06,660.65 v -2.66 c 0,-0.45 -0.11,-0.45 -0.78,-0.45 v -0.31 c 0.35,0.01 0.86,0.04 1.13,0.04 0.26,0 0.77,-0.03 1.11,-0.04 v 0.31 c -0.66,0 -0.77,0 -0.77,0.45 v 1.83 c 0,1.03 0.7,1.59 1.34,1.59 0.63,0 0.74,-0.54 0.74,-1.11 v -2.31 c 0,-0.45 -0.11,-0.45 -0.78,-0.45 v -0.31 c 0.35,0.01 0.86,0.04 1.12,0.04 0.26,0 0.78,-0.03 1.12,-0.04 v 0.31 c -0.67,0 -0.78,0 -0.78,0.45 v 1.83 c 0,1.03 0.71,1.59 1.35,1.59 0.62,0 0.73,-0.54 0.73,-1.11 v -2.31 c 0,-0.45 -0.11,-0.45 -0.77,-0.45 v -0.31 c 0.34,0.01 0.85,0.04 1.12,0.04 0.26,0 0.78,-0.03 1.11,-0.04 v 0.31 c -0.51,0 -0.76,0 -0.77,0.3 v 1.9 c 0,0.85 0,1.16 -0.31,1.52 -0.14,0.17 -0.47,0.37 -1.04,0.37 -0.84,0 -1.28,-0.6 -1.45,-0.98 -0.14,0.87 -0.87,0.98 -1.32,0.98 -0.73,0 -1.19,-0.43 -1.47,-1.05 v 1.05 l -1.41,-0.11 v -0.31 c 0.7,0 0.78,-0.07 0.78,-0.56 z" /><path
         style="fill:#000000;stroke-width:0"
         inkscape:connector-curvature="0"
         id="path3279"
         d="m 255.58,657.99 0.01,-0.04 0,-0.03 0.01,-0.04 0.01,-0.04 0.01,-0.04 0.01,-0.03 0.01,-0.04 0.01,-0.03 0.02,-0.04 0.01,-0.03 0.02,-0.04 0.02,-0.03 0.02,-0.03 0.02,-0.04 0.02,-0.03 0.03,-0.03 0.02,-0.02 0.03,-0.03 0.03,-0.03 0.03,-0.02 0.03,-0.02 0.03,-0.03 0.03,-0.02 0.03,-0.01 0.04,-0.02 0.04,-0.01 0.03,-0.02 0.04,-0.01 0.04,0 0.04,-0.01 0.04,0 0.05,-0.01 c 0.21,0 0.81,0.14 0.81,0.95 v 0.55 h -0.25 v -0.55 c 0,-0.58 -0.25,-0.64 -0.35,-0.64 -0.33,0 -0.37,0.45 -0.37,0.5 v 1.99 c 0,0.41 0,0.8 -0.36,1.17 -0.39,0.39 -0.89,0.54 -1.36,0.54 -0.82,0 -1.51,-0.46 -1.51,-1.12 0,-0.29 0.2,-0.46 0.46,-0.46 0.28,0 0.46,0.19 0.46,0.45 0,0.12 -0.05,0.45 -0.51,0.46 0.27,0.35 0.76,0.46 1.08,0.46 0.48,0 1.05,-0.39 1.05,-1.27 v -0.37 -0.21 -0.99 c 0,-0.95 -0.72,-1.29 -1.16,-1.29 -0.49,0 -0.9,0.35 -0.9,0.85 0,0.54 0.42,1.37 2.06,1.43 h 0 v 0.21 c -0.51,-0.03 -1.2,-0.06 -1.83,-0.36 -0.75,-0.34 -0.99,-0.85 -0.99,-1.29 0,-0.81 0.96,-1.05 1.59,-1.05 0.65,0 1.11,0.39 1.3,0.86 z" /><path
         style="fill:#000000;stroke-width:0"
         inkscape:connector-curvature="0"
         id="path3281"
         d="m 226.74,646.03 0.01,-0.03 0.01,-0.04 0,-0.04 0.01,-0.03 0.01,-0.04 0.01,-0.04 0.01,-0.03 0.02,-0.04 0.01,-0.04 0.02,-0.03 0.02,-0.03 0.01,-0.04 0.03,-0.03 0.02,-0.03 0.02,-0.03 0.02,-0.03 0.03,-0.03 0.02,-0.03 0.03,-0.02 0.03,-0.03 0.03,-0.02 0.03,-0.02 0.03,-0.02 0.04,-0.02 0.03,-0.01 0.04,-0.02 0.04,-0.01 0.04,-0.01 0.03,-0.01 0.05,-0.01 0.04,0 0.04,0 c 0.21,0 0.82,0.14 0.82,0.94 v 0.56 h -0.25 v -0.56 c 0,-0.57 -0.25,-0.63 -0.36,-0.63 -0.33,0 -0.37,0.44 -0.37,0.5 v 1.98 c 0,0.42 0,0.81 -0.36,1.17 -0.38,0.39 -0.88,0.55 -1.36,0.55 -0.82,0 -1.5,-0.47 -1.5,-1.12 0,-0.3 0.2,-0.47 0.46,-0.47 0.28,0 0.45,0.2 0.45,0.46 0,0.12 -0.05,0.44 -0.5,0.45 0.27,0.35 0.75,0.46 1.07,0.46 0.49,0 1.06,-0.39 1.06,-1.27 v -0.37 -0.21 -0.99 c 0,-0.94 -0.72,-1.28 -1.17,-1.28 -0.49,0 -0.89,0.35 -0.89,0.84 0,0.55 0.41,1.37 2.06,1.43 h 0 v 0.21 c -0.51,-0.03 -1.21,-0.06 -1.83,-0.35 -0.75,-0.34 -1,-0.86 -1,-1.3 0,-0.8 0.97,-1.05 1.59,-1.05 0.66,0 1.12,0.4 1.3,0.86 z" /><path
         style="fill:#000000;stroke-width:0"
         inkscape:connector-curvature="0"
         id="path3283"
         d="m 230.12,649.03 v 3.14 l -1.43,-0.1 v -0.31 c 0.7,0 0.78,-0.07 0.78,-0.56 v -5.92 h 0.25 c 0.01,0.01 0.09,0.15 0.35,0.62 0.15,-0.23 0.57,-0.73 1.31,-0.73 l -0.04,0.22 c -0.45,0 -0.81,0.24 -1.05,0.6 -0.14,0.21 -0.14,0.24 -0.14,0.42 h 0 v 2.05 c 0,0.19 0,0.2 0.11,0.36 0.39,0.55 0.94,0.63 1.18,0.63 0.45,0 0.8,-0.26 1.04,-0.63 0.26,-0.41 0.29,-0.98 0.29,-1.38 0,-0.37 -0.02,-0.97 -0.31,-1.41 -0.21,-0.31 -0.58,-0.64 -1.12,-0.64 l 0.04,-0.22 c 1.18,0 2.22,0.97 2.22,2.26 0,1.26 -0.98,2.24 -2.11,2.24 -0.78,0 -1.21,-0.47 -1.37,-0.64 z" /><path
         style="fill:#000000;stroke-width:0"
         inkscape:connector-curvature="0"
         id="path3285"
         d="m 235.33,647.58 0.01,0.2 c 0.06,1.48 0.9,1.73 1.23,1.73 1.03,0 1.13,-1.34 1.13,-1.73 h -2.36 l -0.01,-0.2 h 2.78 c 0.22,0 0.25,0 0.25,0.2 0,0.99 -0.54,1.95 -1.79,1.95 -1.15,0 -2.06,-1.02 -2.06,-2.26 0,-1.34 1.04,-2.3 2.19,-2.3 1.21,0 1.66,1.1 1.66,1.29 0,0.1 -0.08,0.12 -0.13,0.12 -0.09,0 -0.11,-0.06 -0.13,-0.14 -0.35,-1.02 -1.25,-1.02 -1.34,-1.02 -0.5,0 -0.9,0.3 -1.13,0.67 -0.3,0.47 -0.3,1.13 -0.3,1.49 z" /><path
         style="fill:#000000;stroke-width:0"
         inkscape:connector-curvature="0"
         id="path3287"
         d="m 240.32,648.58 v 1.09 l -1.39,-0.11 v -0.31 c 0.7,0 0.78,-0.07 0.78,-0.55 v -2.67 c 0,-0.44 -0.11,-0.44 -0.78,-0.44 v -0.31 c 0.39,0.01 0.86,0.03 1.14,0.03 0.4,0 0.86,0 1.26,-0.03 v 0.31 h -0.21 c -0.73,0 -0.75,0.11 -0.75,0.46 v 1.54 c 0,0.98 0.41,1.86 1.17,1.86 0.07,0 0.09,0 0.11,-0.01 -0.03,-0.01 -0.23,-0.13 -0.23,-0.39 0,-0.27 0.21,-0.42 0.43,-0.42 0.18,0 0.43,0.12 0.43,0.44 0,0.31 -0.31,0.6 -0.74,0.6 -0.73,0 -1.08,-0.66 -1.22,-1.09 z" /><path
         style="fill:#000000;stroke-width:0"
         inkscape:connector-curvature="0"
         id="path3289"
         d="m 244.22,648.58 v 1.09 l -1.38,-0.11 v -0.31 c 0.69,0 0.77,-0.07 0.77,-0.55 v -2.67 c 0,-0.44 -0.11,-0.44 -0.77,-0.44 v -0.31 c 0.38,0.01 0.85,0.03 1.13,0.03 0.4,0 0.87,0 1.26,-0.03 v 0.31 h -0.21 c -0.73,0 -0.75,0.11 -0.75,0.46 v 1.54 c 0,0.98 0.42,1.86 1.17,1.86 0.07,0 0.09,0 0.11,-0.01 -0.03,-0.01 -0.23,-0.13 -0.23,-0.39 0,-0.27 0.21,-0.42 0.43,-0.42 0.18,0 0.43,0.12 0.43,0.44 0,0.31 -0.31,0.6 -0.74,0.6 -0.72,0 -1.08,-0.66 -1.22,-1.09 z" /><path
         style="fill:#000000;stroke-width:0"
         inkscape:connector-curvature="0"
         id="path3291"
         d="m 249.77,646.03 0.01,-0.03 0,-0.04 0.01,-0.04 0.01,-0.03 0.01,-0.04 0.01,-0.04 0.01,-0.03 0.01,-0.04 0.02,-0.04 0.02,-0.03 0.01,-0.03 0.02,-0.04 0.02,-0.03 0.02,-0.03 0.03,-0.03 0.02,-0.03 0.03,-0.03 0.02,-0.03 0.03,-0.02 0.03,-0.03 0.03,-0.02 0.03,-0.02 0.03,-0.02 0.04,-0.02 0.03,-0.01 0.04,-0.02 0.03,-0.01 0.04,-0.01 0.04,-0.01 0.04,-0.01 0.05,0 0.04,0 c 0.21,0 0.82,0.14 0.82,0.94 v 0.56 h -0.25 v -0.56 c 0,-0.57 -0.25,-0.63 -0.36,-0.63 -0.33,0 -0.37,0.44 -0.37,0.5 v 1.98 c 0,0.42 0,0.81 -0.36,1.17 -0.39,0.39 -0.88,0.55 -1.36,0.55 -0.82,0 -1.5,-0.47 -1.5,-1.12 0,-0.3 0.2,-0.47 0.45,-0.47 0.28,0 0.46,0.2 0.46,0.46 0,0.12 -0.05,0.44 -0.51,0.45 0.27,0.35 0.76,0.46 1.08,0.46 0.49,0 1.05,-0.39 1.05,-1.27 v -0.37 -0.21 -0.99 c 0,-0.94 -0.71,-1.28 -1.16,-1.28 -0.49,0 -0.9,0.35 -0.9,0.84 0,0.55 0.42,1.37 2.06,1.43 h 0 v 0.21 c -0.5,-0.03 -1.2,-0.06 -1.83,-0.35 -0.74,-0.34 -0.99,-0.86 -0.99,-1.3 0,-0.8 0.96,-1.05 1.59,-1.05 0.66,0 1.11,0.4 1.3,0.86 z" /><path
         style="fill:#000000;stroke-width:0"
         inkscape:connector-curvature="0"
         id="path3293"
         d="m 255.22,645.83 v -0.66 l 1.46,0.11 v 0.31 c -0.69,0 -0.77,0.07 -0.77,0.55 v 6.03 l -1.43,-0.1 v -0.31 c 0.69,0 0.77,-0.07 0.77,-0.56 v -2.15 c -0.29,0.36 -0.71,0.62 -1.25,0.62 l 0.04,-0.22 c 0.35,0 0.76,-0.15 1.07,-0.59 0.11,-0.17 0.11,-0.19 0.11,-0.37 h 0 v -2.04 c 0,-0.18 0,-0.2 -0.11,-0.36 -0.3,-0.48 -0.74,-0.7 -1.17,-0.7 -0.45,0 -0.81,0.26 -1.05,0.64 -0.26,0.4 -0.29,0.97 -0.29,1.38 0,0.36 0.02,0.96 0.31,1.41 0.21,0.3 0.59,0.63 1.13,0.63 l -0.04,0.22 c -1.18,0 -2.22,-0.97 -2.22,-2.25 0,-1.27 0.97,-2.25 2.11,-2.25 0.63,0 1.08,0.34 1.33,0.66 z" /><path
         style="fill:#000000;stroke-width:0"
         inkscape:connector-curvature="0"
         id="path3295"
         d="m 261.66,647.41 0,0.11 -0.01,0.12 -0.01,0.12 -0.02,0.11 -0.03,0.11 -0.03,0.11 -0.03,0.11 -0.04,0.11 -0.05,0.1 -0.05,0.1 -0.05,0.1 -0.06,0.09 -0.06,0.09 -0.06,0.09 -0.07,0.08 -0.08,0.08 -0.07,0.08 -0.08,0.08 -0.09,0.06 -0.08,0.07 -0.09,0.06 -0.09,0.06 -0.1,0.05 -0.1,0.05 -0.1,0.04 -0.1,0.03 -0.1,0.04 -0.11,0.02 -0.1,0.02 -0.11,0.02 -0.11,0.01 -0.12,0 -0.01,-0.22 c 0.44,0 0.87,-0.22 1.13,-0.64 0.26,-0.43 0.26,-1.01 0.26,-1.39 0,-0.35 0,-0.89 -0.22,-1.33 -0.22,-0.44 -0.66,-0.73 -1.16,-0.73 h 0 c -0.42,0 -0.86,0.21 -1.13,0.67 -0.25,0.43 -0.25,1.04 -0.25,1.39 0,0.39 0,0.93 0.24,1.37 0.27,0.45 0.73,0.66 1.13,0.66 l 0.01,0.22 c -1.24,0 -2.2,-1.08 -2.2,-2.32 0,-1.29 1.03,-2.24 2.19,-2.24 1.21,0 2.21,0.97 2.21,2.24 z" /></g>    <g
       transform="matrix(0.72650044,0,0,0.72650044,0.60501282,156.32233)"
       id="g6320">
      <path
         sodipodi:type="arc"
         style="color:#000000;fill:#00002f;fill-opacity:0.32916667;fill-rule:nonzero;stroke:#000071;stroke-width:1;stroke-linecap:round;stroke-linejoin:bevel;stroke-miterlimit:4.91900015;stroke-opacity:1;stroke-dasharray:none;stroke-dashoffset:0;marker:none;visibility:visible;display:inline;overflow:visible;enable-background:accumulate"
         id="path3086"
         sodipodi:cx="379.81735"
         sodipodi:cy="283.63611"
         sodipodi:rx="76.771591"
         sodipodi:ry="170.71577"
         d="m 456.58894,283.63611 c 0,94.28372 -34.37181,170.71577 -76.77159,170.71577 -42.39978,0 -76.77159,-76.43205 -76.77159,-170.71577 0,-94.28372 34.37181,-170.71578 76.77159,-170.71578 42.39978,0 76.77159,76.43206 76.77159,170.71578 z"
         transform="matrix(0.25588751,0,0,0.59501984,190.06045,111.43039)" />
      <g
         transform="translate(-3,-5)"
         id="g6314">
        <path
           sodipodi:nodetypes="cssc"
           inkscape:connector-curvature="0"
           id="path3088-8-3-5"
           d="m 251.23602,192.37074 c -12.4273,5.94779 8.1724,36.01646 4.79396,57.20894 -2.31127,14.49827 -15.33508,33.77775 -13.75537,59.49915 1.40805,22.92642 15.78367,31.87894 8.96141,66.21736"
           style="fill:none;stroke:#0000aa;stroke-width:1.06599998;stroke-linecap:butt;stroke-linejoin:miter;stroke-miterlimit:4;stroke-opacity:1;stroke-dasharray:none" />
        <path
           sodipodi:nodetypes="cssc"
           inkscape:connector-curvature="0"
           id="path3088-8-3-5-2"
           d="m 246.61893,194.3957 c -12.4273,5.94779 8.1724,36.01646 4.79396,57.20894 -2.31127,14.49827 -15.33508,33.77775 -13.75537,59.49915 1.40805,22.92642 15.78367,31.87894 8.96141,66.21736"
           style="fill:none;stroke:#0000aa;stroke-width:1.06599998;stroke-linecap:butt;stroke-linejoin:miter;stroke-miterlimit:4;stroke-opacity:1;stroke-dasharray:none" />
        <path
           sodipodi:nodetypes="cssc"
           inkscape:connector-curvature="0"
           id="path3088-8-3-5-6"
           d="m 241.66918,195.10282 c -12.4273,5.94779 8.1724,36.01646 4.79396,57.20894 -2.31127,14.49827 -15.33508,33.77775 -13.75537,59.49915 1.40805,22.92642 15.78367,31.87894 8.96141,66.21736"
           style="fill:none;stroke:#0000aa;stroke-width:1.06599998;stroke-linecap:butt;stroke-linejoin:miter;stroke-miterlimit:4;stroke-opacity:1;stroke-dasharray:none" />
        <path
           sodipodi:nodetypes="cssc"
           inkscape:connector-curvature="0"
           id="path3088-8-3-5-3"
           d="m 237.71943,192.51702 c -12.4273,5.94779 8.1724,36.01646 4.79396,57.20894 -2.31127,14.49827 -15.33508,33.77775 -13.75537,59.49915 1.40805,22.92642 15.78367,31.87894 8.96141,66.21736"
           style="fill:none;stroke:#0000aa;stroke-width:1.06599998;stroke-linecap:butt;stroke-linejoin:miter;stroke-miterlimit:4;stroke-opacity:1;stroke-dasharray:none" />
      </g>
    </g>
    <g
       id="g6556"
       transform="matrix(1.3391917,0,0,-1.3391917,18.01128,1346.0753)"
       xml:space="preserve"
       stroke-miterlimit="10.433"
       font-style="normal"
       font-variant="normal"
       font-weight="normal"
       font-stretch="normal"
       font-size-adjust="none"
       letter-spacing="normal"
       word-spacing="normal"
       ns0:text="Desenfoque \\\\\nconocido $d$"
       ns0:preamble="/home/ccuartas/Dropbox/Libros Opt. Fourier/Avance1/Im\xc3\xa1genes/preamble.tex"
       style="font-style:normal;font-variant:normal;font-weight:normal;font-stretch:normal;letter-spacing:normal;word-spacing:normal;text-anchor:start;fill:none;stroke:#000000;stroke-linecap:butt;stroke-linejoin:miter;stroke-miterlimit:10.43299961;stroke-opacity:1;stroke-dasharray:none;stroke-dashoffset:0"><path
         style="fill:#000000;stroke-width:0"
         inkscape:connector-curvature="0"
         d="m 223.78,664.02 v -0.31 h 0.24 c 0.77,0 0.78,-0.11 0.78,-0.47 v -5.23 c 0,-0.36 -0.01,-0.47 -0.78,-0.47 h -0.24 v -0.31 h 3.64 l -0.27,0.31 h -1 c -0.47,0 -0.49,0.07 -0.49,0.4 v 5.38 c 0,0.32 0.02,0.39 0.49,0.39 h 0.99 c 0.62,0 1.31,-0.22 1.81,-0.92 0.43,-0.59 0.52,-1.44 0.52,-2.22 0,-1.1 -0.19,-1.7 -0.55,-2.18 -0.19,-0.27 -0.76,-0.85 -1.77,-0.85 l 0.27,-0.31 c 1.67,0 3.05,1.48 3.05,3.34 0,1.89 -1.35,3.45 -3.05,3.45 z"
         id="path6558" /><path
         style="fill:#000000;stroke-width:0"
         inkscape:connector-curvature="0"
         d="m 232.15,659.53 0.01,0.21 c 0.06,1.48 0.89,1.73 1.23,1.73 1.02,0 1.12,-1.34 1.12,-1.73 h -2.35 l -0.01,-0.21 h 2.77 c 0.22,0 0.25,0 0.25,0.21 0,0.98 -0.54,1.94 -1.78,1.94 -1.15,0 -2.07,-1.02 -2.07,-2.26 0,-1.33 1.05,-2.29 2.19,-2.29 1.21,0 1.66,1.1 1.66,1.29 0,0.1 -0.08,0.12 -0.13,0.12 -0.09,0 -0.11,-0.06 -0.13,-0.14 -0.35,-1.03 -1.24,-1.03 -1.34,-1.03 -0.5,0 -0.9,0.3 -1.12,0.67 -0.3,0.48 -0.3,1.13 -0.3,1.49 z"
         id="path6560" /><path
         style="fill:#000000;stroke-width:0"
         inkscape:connector-curvature="0"
         d="m 237.54,659.16 0.02,0 0.03,-0.01 0.03,0 0.03,-0.01 0.03,-0.01 0.04,-0.01 0.03,-0.01 0.04,-0.01 0.04,-0.01 0.05,-0.01 0.04,-0.02 0.04,-0.02 0.05,-0.01 0.04,-0.03 0.04,-0.02 0.05,-0.02 0.04,-0.03 0.04,-0.03 0.04,-0.03 0.04,-0.03 0.04,-0.03 0.04,-0.04 0.03,-0.04 0.03,-0.04 0.03,-0.05 0.01,-0.02 0.02,-0.03 0.01,-0.02 0.01,-0.03 0.01,-0.02 0.01,-0.03 0.01,-0.03 0,-0.02 0.01,-0.03 0,-0.03 0.01,-0.03 0,-0.04 0,-0.03 0,-0.03 c 0,-0.51 -0.34,-0.91 -1.12,-0.91 -0.84,0 -1.19,0.57 -1.38,1.42 -0.03,0.12 -0.04,0.16 -0.14,0.16 -0.13,0 -0.13,-0.07 -0.13,-0.25 v -1.31 c 0,-0.16 0,-0.23 0.11,-0.23 0.05,0 0.06,0.01 0.25,0.19 0.02,0.02 0.02,0.04 0.19,0.23 0.44,-0.41 0.89,-0.42 1.1,-0.42 1.14,0 1.6,0.66 1.6,1.38 0,0.52 -0.3,0.82 -0.42,0.94 -0.33,0.32 -0.71,0.4 -1.13,0.48 -0.56,0.11 -1.22,0.23 -1.22,0.81 0,0.35 0.25,0.76 1.11,0.76 1.09,0 1.14,-0.9 1.16,-1.21 0.01,-0.08 0.1,-0.08 0.12,-0.08 0.13,0 0.13,0.05 0.13,0.23 v 1.01 c 0,0.17 0,0.23 -0.11,0.23 -0.05,0 -0.07,0 -0.2,-0.11 -0.03,-0.04 -0.12,-0.13 -0.17,-0.16 -0.37,0.27 -0.78,0.27 -0.93,0.27 -1.21,0 -1.59,-0.66 -1.59,-1.22 0,-0.34 0.16,-0.62 0.43,-0.84 0.31,-0.26 0.59,-0.32 1.31,-0.46 z"
         id="path6562" /><path
         style="fill:#000000;stroke-width:0"
         inkscape:connector-curvature="0"
         d="m 240.5,659.53 0.01,0.21 c 0.06,1.48 0.9,1.73 1.24,1.73 1.02,0 1.12,-1.34 1.12,-1.73 h -2.36 l -0.01,-0.21 h 2.78 c 0.22,0 0.25,0 0.25,0.21 0,0.98 -0.54,1.94 -1.78,1.94 -1.16,0 -2.07,-1.02 -2.07,-2.26 0,-1.33 1.04,-2.29 2.19,-2.29 1.21,0 1.66,1.1 1.66,1.29 0,0.1 -0.08,0.12 -0.13,0.12 -0.09,0 -0.11,-0.06 -0.13,-0.14 -0.35,-1.03 -1.24,-1.03 -1.34,-1.03 -0.5,0 -0.9,0.3 -1.13,0.67 -0.3,0.48 -0.3,1.13 -0.3,1.49 z"
         id="path6564" /><path
         style="fill:#000000;stroke-width:0"
         inkscape:connector-curvature="0"
         d="m 244.92,660.65 v -2.66 c 0,-0.45 -0.11,-0.45 -0.77,-0.45 v -0.31 c 0.34,0.01 0.85,0.04 1.12,0.04 0.26,0 0.77,-0.03 1.11,-0.04 v 0.31 c -0.66,0 -0.77,0 -0.77,0.45 v 1.83 c 0,1.03 0.7,1.59 1.34,1.59 0.63,0 0.74,-0.54 0.74,-1.11 v -2.31 c 0,-0.45 -0.11,-0.45 -0.78,-0.45 v -0.31 c 0.35,0.01 0.86,0.04 1.13,0.04 0.25,0 0.77,-0.03 1.11,-0.04 v 0.31 c -0.52,0 -0.77,0 -0.78,0.3 v 1.9 c 0,0.85 0,1.16 -0.3,1.52 -0.14,0.17 -0.47,0.37 -1.05,0.37 -0.73,0 -1.19,-0.43 -1.47,-1.05 v 1.05 l -1.4,-0.11 v -0.31 c 0.69,0 0.77,-0.07 0.77,-0.56 z"
         id="path6566" /><path
         style="fill:#000000;stroke-width:0"
         inkscape:connector-curvature="0"
         d="m 251.1,661.52 v 1.15 c 0,0.87 0.48,1.35 0.92,1.35 0.03,0 0.18,0 0.33,-0.07 -0.12,-0.04 -0.3,-0.17 -0.3,-0.42 0,-0.23 0.16,-0.42 0.43,-0.42 0.28,0 0.43,0.19 0.43,0.43 0,0.37 -0.37,0.7 -0.89,0.7 -0.7,0 -1.54,-0.53 -1.54,-1.58 v -1.14 h -0.79 v -0.31 h 0.79 v -3.22 c 0,-0.45 -0.11,-0.45 -0.78,-0.45 v -0.31 c 0.39,0.01 0.86,0.04 1.13,0.04 0.4,0 0.87,0 1.27,-0.04 v 0.31 h -0.21 c -0.74,0 -0.76,0.11 -0.76,0.47 v 3.2 h 1.14 v 0.31 z"
         id="path6568" /><path
         style="fill:#000000;stroke-width:0"
         inkscape:connector-curvature="0"
         d="m 257.09,659.36 0,0.12 -0.01,0.12 -0.01,0.11 -0.02,0.12 -0.03,0.11 -0.03,0.11 -0.03,0.11 -0.04,0.1 -0.05,0.1 -0.05,0.1 -0.05,0.1 -0.06,0.09 -0.06,0.1 -0.06,0.08 -0.07,0.09 -0.08,0.08 -0.07,0.08 -0.08,0.07 -0.09,0.07 -0.08,0.06 -0.09,0.07 -0.09,0.05 -0.1,0.05 -0.1,0.05 -0.1,0.04 -0.1,0.04 -0.1,0.03 -0.11,0.03 -0.1,0.02 -0.11,0.01 -0.11,0.01 -0.12,0 -0.01,-0.21 c 0.44,0 0.87,-0.22 1.13,-0.65 0.26,-0.43 0.26,-1 0.26,-1.38 0,-0.36 0,-0.89 -0.22,-1.33 -0.22,-0.45 -0.66,-0.74 -1.16,-0.74 h 0 c -0.42,0 -0.86,0.21 -1.13,0.67 -0.25,0.44 -0.25,1.04 -0.25,1.4 0,0.39 0,0.92 0.24,1.36 0.27,0.46 0.74,0.67 1.13,0.67 l 0.01,0.21 c -1.24,0 -2.21,-1.08 -2.21,-2.32 0,-1.28 1.04,-2.23 2.2,-2.23 1.21,0 2.21,0.97 2.21,2.23 z"
         id="path6570" /><path
         style="fill:#000000;stroke-width:0"
         inkscape:connector-curvature="0"
         d="m 261.45,657.84 v -1.78 c 0,-0.44 -0.11,-0.44 -0.78,-0.44 v -0.31 c 0.34,0.01 0.86,0.03 1.12,0.03 0.26,0 0.77,-0.02 1.12,-0.03 v 0.31 c -0.67,0 -0.78,0 -0.78,0.44 v 5.57 h -0.21 l -0.38,-0.91 c -0.13,0.28 -0.54,0.91 -1.34,0.91 -1.15,0 -2.19,-0.97 -2.19,-2.26 0,-1.24 0.96,-2.24 2.11,-2.24 l 0.04,0.21 c -0.72,0 -1.33,0.89 -1.33,2.03 0,1.18 0.7,2.01 1.43,2.01 0.8,0 1.22,-0.87 1.22,-1.39 h 0 v -1.4 c 0,-0.32 -0.18,-0.6 -0.4,-0.84 -0.13,-0.14 -0.45,-0.41 -0.92,-0.41 l -0.04,-0.21 c 0.7,0 1.11,0.42 1.33,0.71 z"
         id="path6572" /><path
         style="fill:#000000;stroke-width:0"
         inkscape:connector-curvature="0"
         d="m 266.82,658.02 v -0.89 l 1.43,0.1 v 0.31 c -0.7,0 -0.78,0.07 -0.78,0.56 v 3.53 l -1.46,-0.11 v -0.31 c 0.69,0 0.78,-0.07 0.78,-0.56 v -1.77 c 0,-0.86 -0.48,-1.54 -1.21,-1.54 -0.84,0 -0.87,0.47 -0.87,0.99 v 3.3 l -1.47,-0.11 v -0.31 c 0.78,0 0.78,-0.03 0.78,-0.92 v -1.49 c 0,-0.77 0,-1.67 1.51,-1.67 0.56,0 1,0.27 1.29,0.89 z"
         id="path6574" /><path
         style="fill:#000000;stroke-width:0"
         inkscape:connector-curvature="0"
         d="m 269.56,659.53 0.01,0.21 c 0.06,1.48 0.9,1.73 1.24,1.73 1.02,0 1.12,-1.34 1.12,-1.73 h -2.36 l -0.01,-0.21 h 2.78 c 0.22,0 0.25,0 0.25,0.21 0,0.98 -0.54,1.94 -1.78,1.94 -1.16,0 -2.07,-1.02 -2.07,-2.26 0,-1.33 1.04,-2.29 2.19,-2.29 1.21,0 1.66,1.1 1.66,1.29 0,0.1 -0.08,0.12 -0.13,0.12 -0.09,0 -0.11,-0.06 -0.13,-0.14 -0.35,-1.03 -1.24,-1.03 -1.34,-1.03 -0.5,0 -0.9,0.3 -1.13,0.67 -0.3,0.48 -0.3,1.13 -0.3,1.49 z"
         id="path6576" /><path
         style="fill:#000000;stroke-width:0"
         inkscape:connector-curvature="0"
         d="m 224.6,647.45 0,0.07 0,0.07 0,0.08 0.01,0.07 0,0.06 0.01,0.07 0,0.07 0.01,0.06 0.01,0.06 0.01,0.06 0.01,0.06 0.01,0.06 0.03,0.1 0.03,0.11 0.04,0.09 0.03,0.1 0.04,0.08 0.04,0.08 0.05,0.08 0.04,0.07 0.05,0.06 0.05,0.06 0.05,0.06 0.05,0.05 0.06,0.04 0.05,0.04 0.06,0.04 0.05,0.04 0.06,0.03 0.06,0.02 0.05,0.02 0.06,0.02 0.06,0.02 0.05,0.01 0.05,0.01 0.06,0.01 0.05,0 0.05,0 c 0.09,0 0.72,-0.01 1.06,-0.37 -0.4,-0.02 -0.46,-0.32 -0.46,-0.45 0,-0.26 0.17,-0.46 0.45,-0.46 0.26,0 0.46,0.17 0.46,0.47 0,0.67 -0.75,1.06 -1.52,1.06 -1.24,0 -2.16,-1.07 -2.16,-2.3 0,-1.28 0.99,-2.26 2.14,-2.26 1.33,0 1.65,1.19 1.65,1.29 0,0.1 -0.1,0.1 -0.13,0.1 -0.09,0 -0.11,-0.04 -0.13,-0.1 -0.29,-0.92 -0.93,-1.04 -1.3,-1.04 -0.53,0 -1.4,0.43 -1.4,2.03 z"
         id="path6578" /><path
         style="fill:#000000;stroke-width:0"
         inkscape:connector-curvature="0"
         d="m 232.54,647.41 0,0.11 -0.01,0.12 -0.01,0.12 -0.02,0.11 -0.02,0.11 -0.03,0.11 -0.04,0.11 -0.04,0.11 -0.04,0.1 -0.05,0.1 -0.06,0.1 -0.05,0.09 -0.06,0.09 -0.07,0.09 -0.07,0.08 -0.07,0.08 -0.08,0.08 -0.08,0.08 -0.08,0.06 -0.09,0.07 -0.09,0.06 -0.09,0.06 -0.09,0.05 -0.1,0.05 -0.1,0.04 -0.1,0.03 -0.11,0.04 -0.1,0.02 -0.11,0.02 -0.11,0.02 -0.11,0.01 -0.11,0 -0.01,-0.22 c 0.43,0 0.86,-0.22 1.12,-0.64 0.26,-0.43 0.26,-1.01 0.26,-1.39 0,-0.35 0,-0.89 -0.22,-1.33 -0.22,-0.44 -0.66,-0.73 -1.15,-0.73 h 0 c -0.43,0 -0.87,0.21 -1.14,0.67 -0.25,0.43 -0.25,1.04 -0.25,1.39 0,0.39 0,0.93 0.24,1.37 0.27,0.45 0.74,0.66 1.14,0.66 l 0.01,0.22 c -1.25,0 -2.21,-1.08 -2.21,-2.32 0,-1.29 1.03,-2.24 2.2,-2.24 1.2,0 2.2,0.97 2.2,2.24 z"
         id="path6580" /><path
         style="fill:#000000;stroke-width:0"
         inkscape:connector-curvature="0"
         d="m 233.93,648.7 v -2.67 c 0,-0.44 -0.1,-0.44 -0.77,-0.44 v -0.31 c 0.35,0.01 0.85,0.03 1.12,0.03 0.26,0 0.78,-0.02 1.12,-0.03 v 0.31 c -0.67,0 -0.78,0 -0.78,0.44 v 1.83 c 0,1.04 0.71,1.59 1.34,1.59 0.63,0 0.74,-0.53 0.74,-1.1 v -2.32 c 0,-0.44 -0.11,-0.44 -0.77,-0.44 v -0.31 c 0.34,0.01 0.85,0.03 1.12,0.03 0.26,0 0.77,-0.02 1.11,-0.03 v 0.31 c -0.51,0 -0.76,0 -0.77,0.3 v 1.89 c 0,0.86 0,1.17 -0.31,1.52 -0.14,0.17 -0.47,0.37 -1.05,0.37 -0.72,0 -1.19,-0.43 -1.47,-1.04 v 1.04 l -1.4,-0.11 v -0.31 c 0.7,0 0.77,-0.07 0.77,-0.55 z"
         id="path6582" /><path
         style="fill:#000000;stroke-width:0"
         inkscape:connector-curvature="0"
         d="m 243.06,647.41 0,0.11 -0.01,0.12 -0.01,0.12 -0.02,0.11 -0.03,0.11 -0.03,0.11 -0.03,0.11 -0.04,0.11 -0.05,0.1 -0.05,0.1 -0.05,0.1 -0.06,0.09 -0.06,0.09 -0.06,0.09 -0.07,0.08 -0.08,0.08 -0.07,0.08 -0.08,0.08 -0.09,0.06 -0.08,0.07 -0.09,0.06 -0.09,0.06 -0.1,0.05 -0.1,0.05 -0.1,0.04 -0.1,0.03 -0.1,0.04 -0.11,0.02 -0.1,0.02 -0.11,0.02 -0.11,0.01 -0.12,0 -0.01,-0.22 c 0.44,0 0.87,-0.22 1.13,-0.64 0.26,-0.43 0.26,-1.01 0.26,-1.39 0,-0.35 0,-0.89 -0.22,-1.33 -0.22,-0.44 -0.66,-0.73 -1.16,-0.73 h 0 c -0.43,0 -0.86,0.21 -1.13,0.67 -0.25,0.43 -0.25,1.04 -0.25,1.39 0,0.39 0,0.93 0.24,1.37 0.27,0.45 0.74,0.66 1.13,0.66 l 0.01,0.22 c -1.24,0 -2.21,-1.08 -2.21,-2.32 0,-1.29 1.04,-2.24 2.2,-2.24 1.21,0 2.21,0.97 2.21,2.24 z"
         id="path6584" /><path
         style="fill:#000000;stroke-width:0"
         inkscape:connector-curvature="0"
         d="m 244.8,647.45 0,0.07 0,0.07 0.01,0.08 0,0.07 0,0.06 0.01,0.07 0.01,0.07 0.01,0.06 0.01,0.06 0.01,0.06 0.01,0.06 0.01,0.06 0.03,0.1 0.03,0.11 0.03,0.09 0.04,0.1 0.03,0.08 0.05,0.08 0.04,0.08 0.05,0.07 0.04,0.06 0.05,0.06 0.06,0.06 0.05,0.05 0.05,0.04 0.06,0.04 0.05,0.04 0.06,0.04 0.05,0.03 0.06,0.02 0.06,0.02 0.05,0.02 0.06,0.02 0.05,0.01 0.06,0.01 0.05,0.01 0.05,0 0.05,0 c 0.09,0 0.72,-0.01 1.07,-0.37 -0.41,-0.02 -0.47,-0.32 -0.47,-0.45 0,-0.26 0.18,-0.46 0.46,-0.46 0.26,0 0.46,0.17 0.46,0.47 0,0.67 -0.76,1.06 -1.53,1.06 -1.24,0 -2.16,-1.07 -2.16,-2.3 0,-1.28 0.99,-2.26 2.14,-2.26 1.34,0 1.65,1.19 1.65,1.29 0,0.1 -0.09,0.1 -0.12,0.1 -0.09,0 -0.11,-0.04 -0.13,-0.1 -0.29,-0.92 -0.94,-1.04 -1.31,-1.04 -0.52,0 -1.4,0.43 -1.4,2.03 z"
         id="path6586" /><path
         style="fill:#000000;stroke-width:0"
         inkscape:connector-curvature="0"
         d="m 249.82,649.67 -1.39,-0.11 v -0.31 c 0.65,0 0.74,-0.06 0.74,-0.54 v -2.68 c 0,-0.44 -0.11,-0.44 -0.78,-0.44 v -0.31 c 0.32,0.01 0.86,0.03 1.1,0.03 0.34,0 0.69,-0.02 1.03,-0.03 v 0.31 c -0.66,0 -0.7,0.05 -0.7,0.44 z"
         id="path6588" /><path
         style="fill:#000000;stroke-width:0"
         inkscape:connector-curvature="0"
         d="m 249.86,651.4 0,0.03 0,0.03 0,0.03 -0.01,0.02 0,0.03 -0.01,0.03 -0.01,0.02 -0.01,0.03 -0.01,0.02 -0.01,0.02 -0.02,0.02 -0.01,0.03 -0.01,0.02 -0.02,0.02 -0.02,0.01 -0.01,0.02 -0.02,0.02 -0.02,0.01 -0.02,0.02 -0.02,0.01 -0.03,0.02 -0.02,0.01 -0.02,0.01 -0.02,0.01 -0.03,0.01 -0.02,0 -0.03,0.01 -0.02,0.01 -0.03,0 -0.02,0 -0.03,0.01 -0.02,0 c -0.31,0 -0.53,-0.27 -0.53,-0.53 0,-0.27 0.22,-0.53 0.53,-0.53 0.28,0 0.52,0.21 0.52,0.53 z"
         id="path6590" /><path
         style="fill:#000000;stroke-width:0"
         inkscape:connector-curvature="0"
         d="m 254.61,645.83 v -0.66 l 1.46,0.11 v 0.31 c -0.69,0 -0.77,0.07 -0.77,0.55 v 6.03 l -1.43,-0.1 v -0.31 c 0.69,0 0.77,-0.07 0.77,-0.56 v -2.15 c -0.29,0.36 -0.71,0.62 -1.25,0.62 l 0.04,-0.22 c 0.35,0 0.76,-0.15 1.07,-0.59 0.11,-0.17 0.11,-0.19 0.11,-0.37 h 0 v -2.04 c 0,-0.18 0,-0.2 -0.11,-0.36 -0.3,-0.48 -0.74,-0.7 -1.17,-0.7 -0.45,0 -0.81,0.26 -1.05,0.64 -0.26,0.4 -0.29,0.97 -0.29,1.38 0,0.36 0.02,0.96 0.31,1.41 0.21,0.3 0.59,0.63 1.13,0.63 l -0.04,0.22 c -1.18,0 -2.22,-0.97 -2.22,-2.25 0,-1.27 0.97,-2.25 2.11,-2.25 0.63,0 1.08,0.34 1.33,0.66 z"
         id="path6592" /><path
         style="fill:#000000;stroke-width:0"
         inkscape:connector-curvature="0"
         d="m 261.05,647.41 0,0.11 -0.01,0.12 -0.01,0.12 -0.02,0.11 -0.03,0.11 -0.03,0.11 -0.03,0.11 -0.04,0.11 -0.05,0.1 -0.05,0.1 -0.05,0.1 -0.06,0.09 -0.06,0.09 -0.06,0.09 -0.07,0.08 -0.08,0.08 -0.07,0.08 -0.08,0.08 -0.09,0.06 -0.08,0.07 -0.09,0.06 -0.09,0.06 -0.1,0.05 -0.1,0.05 -0.09,0.04 -0.11,0.03 -0.1,0.04 -0.11,0.02 -0.1,0.02 -0.11,0.02 -0.11,0.01 -0.12,0 -0.01,-0.22 c 0.44,0 0.87,-0.22 1.13,-0.64 0.26,-0.43 0.26,-1.01 0.26,-1.39 0,-0.35 0,-0.89 -0.22,-1.33 -0.22,-0.44 -0.66,-0.73 -1.16,-0.73 h 0 c -0.42,0 -0.86,0.21 -1.13,0.67 -0.25,0.43 -0.25,1.04 -0.25,1.39 0,0.39 0,0.93 0.24,1.37 0.27,0.45 0.74,0.66 1.13,0.66 l 0.01,0.22 c -1.24,0 -2.21,-1.08 -2.21,-2.32 0,-1.29 1.04,-2.24 2.2,-2.24 1.21,0 2.21,0.97 2.21,2.24 z"
         id="path6594" /><path
         style="fill:#000000;stroke-width:0"
         inkscape:connector-curvature="0"
         d="m 269.8,652.07 0,0 0,0 0,0 0,0 0,0 0,0.01 0,0 0,0 0,0.01 0,0 0,0 -0.01,0.01 0,0 0,0.01 0,0 0,0.01 -0.01,0 0,0.01 0,0 -0.01,0.01 0,0 0,0 -0.01,0.01 0,0 0,0 0,0 -0.01,0 0,0.01 0,0 -0.01,0 0,0 -0.01,0 0,0 0,0.01 -0.01,0 0,0 -0.01,0 0,0 -0.01,0 0,0 -0.01,0 0,0 -0.01,0 0,0 -0.01,0 c -0.15,0 -1.09,-0.08 -1.26,-0.1 -0.08,-0.02 -0.14,-0.06 -0.14,-0.19 0,-0.12 0.09,-0.12 0.24,-0.12 0.47,0 0.49,-0.07 0.49,-0.17 l -0.03,-0.2 -0.59,-2.36 c -0.18,0.37 -0.47,0.64 -0.92,0.64 -1.16,0 -2.4,-1.46 -2.4,-2.91 0,-0.93 0.55,-1.59 1.33,-1.59 l 0.02,0.22 c -0.5,0 -0.64,0.55 -0.64,0.93 0,0.5 0.32,1.72 0.55,2.18 0.31,0.59 0.75,0.95 1.15,0.95 0.65,0 0.79,-0.81 0.79,-0.87 0,-0.06 -0.02,-0.12 -0.03,-0.17 l -0.5,-1.95 c -0.05,-0.18 -0.05,-0.2 -0.2,-0.37 -0.44,-0.54 -0.84,-0.7 -1.12,-0.7 l -0.02,-0.22 c 0.2,0 0.69,0.04 1.29,0.75 0.08,-0.42 0.43,-0.75 0.91,-0.75 0.34,0 0.57,0.23 0.73,0.55 0.17,0.36 0.3,0.96 0.3,0.98 0,0.1 -0.09,0.1 -0.12,0.1 -0.1,0 -0.11,-0.04 -0.14,-0.18 -0.17,-0.65 -0.35,-1.23 -0.75,-1.23 -0.27,0 -0.3,0.26 -0.3,0.46 0,0.24 0.02,0.3 0.06,0.47 z"
         id="path6596" /></g>    <path
       inkscape:connector-curvature="0"
       id="path6778"
       d="M 76.412019,354.86533 205.58798,296.24735"
       style="fill:none;stroke:#000000;stroke-width:1;stroke-linecap:butt;stroke-linejoin:miter;stroke-opacity:1;opacity:1;stroke-miterlimit:4;stroke-dasharray:none" />
    <path
       inkscape:connector-curvature="0"
       id="path6778-2"
       d="M 205.58798,414.67117 76.412021,356.05319"
       style="fill:none;stroke:#000000;stroke-width:1;stroke-linecap:butt;stroke-linejoin:miter;stroke-opacity:1;opacity:1;stroke-miterlimit:4;stroke-dasharray:none" />
    <path
       inkscape:connector-curvature="0"
       id="path6778-0"
       d="M 554.03758,354.0147 205.29085,295.77173"
       style="fill:none;stroke:#000000;stroke-width:1;stroke-linecap:butt;stroke-linejoin:miter;stroke-opacity:1;opacity:1;stroke-miterlimit:4;stroke-dasharray:none" />
    <path
       inkscape:connector-curvature="0"
       id="path6778-2-0"
       d="M 205.29085,414.19526 554.03758,355.95229"
       style="fill:none;stroke:#000000;stroke-width:1;stroke-linecap:butt;stroke-linejoin:miter;stroke-opacity:1;opacity:1;stroke-miterlimit:4;stroke-dasharray:none" />
    <path
       inkscape:connector-curvature="0"
       id="path6778-3"
       d="M 448.10103,494.3928 473.57917,368.85668"
       style="fill:none;stroke:#000000;stroke-width:0.97622877;stroke-linecap:butt;stroke-linejoin:miter;stroke-miterlimit:4;stroke-opacity:1;stroke-dasharray:3.90491508, 3.90491508;stroke-dashoffset:0" />
    <path
       inkscape:connector-curvature="0"
       id="path6778-2-02"
       d="m 437.67982,334.7976 26.76345,159.88652"
       style="fill:none;stroke:#000000;stroke-width:1;stroke-linecap:butt;stroke-linejoin:miter;stroke-opacity:1;opacity:1;stroke-miterlimit:4;stroke-dasharray:4,4;stroke-dashoffset:0" />
    <path
       inkscape:connector-curvature="0"
       id="path6840"
       d="m 409.13946,450.50863 96.51397,0"
       style="fill:none;stroke:#0000ff;stroke-width:0.919963;stroke-linecap:butt;stroke-linejoin:miter;stroke-miterlimit:4;stroke-opacity:1;stroke-dasharray:3.67985192, 1.83992596, 0.91996298, 1.83992596;stroke-dashoffset:0" />
    <g
       ns0:preamble="/home/ccuartas/Dropbox/Libros Opt. Fourier/Avance1/Im\xc3\xa1genes/preamble.tex"
       ns0:text="\\{"
       word-spacing="normal"
       letter-spacing="normal"
       font-size-adjust="none"
       font-stretch="normal"
       font-weight="normal"
       font-variant="normal"
       font-style="normal"
       stroke-miterlimit="10.433"
       xml:space="preserve"
       transform="matrix(4.2413866,0,0,-4.2413866,-565.03791,3270.8936)"
       id="g6962"
       style="font-style:normal;font-variant:normal;font-weight:normal;font-stretch:normal;letter-spacing:normal;word-spacing:normal;text-anchor:start;fill:none;stroke:#000000;stroke-linecap:butt;stroke-linejoin:miter;stroke-miterlimit:10.43299961;stroke-opacity:1;stroke-dasharray:none;stroke-dashoffset:0"><path
         id="path6964"
         d="m 226.25,663.36 0,0.04 0,0.04 0.01,0.04 0,0.04 0.01,0.04 0.01,0.05 0.01,0.04 0.02,0.04 0.01,0.05 0.02,0.04 0.02,0.05 0.03,0.04 0.02,0.04 0.03,0.05 0.04,0.04 0.03,0.04 0.04,0.04 0.04,0.04 0.05,0.04 0.05,0.03 0.05,0.04 0.06,0.03 0.06,0.03 0.06,0.03 0.07,0.03 0.07,0.02 0.08,0.03 0.08,0.02 0.04,0 0.05,0.01 0.04,0.01 0.05,0.01 0.04,0 0.05,0.01 0.05,0 0.05,0.01 c 0.05,0.01 0.09,0.05 0.09,0.11 0,0.1 -0.08,0.1 -0.19,0.1 -0.99,0 -1.9,-0.5 -1.91,-1.24 v -2.26 c 0,-0.39 0,-0.71 -0.4,-1.03 -0.34,-0.29 -0.72,-0.31 -0.94,-0.32 -0.05,-0.01 -0.09,-0.05 -0.09,-0.11 0,-0.1 0.06,-0.1 0.16,-0.11 0.65,-0.04 1.13,-0.4 1.24,-0.89 0.03,-0.1 0.03,-0.12 0.03,-0.48 v -1.97 c 0,-0.42 0,-0.73 0.48,-1.11 0.39,-0.3 1.04,-0.41 1.43,-0.41 0.11,0 0.19,0 0.19,0.11 0,0.1 -0.06,0.1 -0.16,0.11 -0.63,0.04 -1.11,0.36 -1.24,0.86 -0.03,0.09 -0.03,0.11 -0.03,0.47 v 2.09 c 0,0.45 -0.08,0.62 -0.4,0.94 -0.21,0.21 -0.5,0.31 -0.78,0.39 0.82,0.23 1.18,0.68 1.18,1.26 z"
         inkscape:connector-curvature="0"
         style="fill:#000000;stroke-width:0" /></g>  </g>
</svg>
