<?xml version="1.0" encoding="UTF-8" standalone="no"?>
<!-- Created with Inkscape (http://www.inkscape.org/) -->

<svg
   xmlns:ns0="http://www.iki.fi/pav/software/textext/"
   xmlns:dc="http://purl.org/dc/elements/1.1/"
   xmlns:cc="http://creativecommons.org/ns#"
   xmlns:rdf="http://www.w3.org/1999/02/22-rdf-syntax-ns#"
   xmlns:svg="http://www.w3.org/2000/svg"
   xmlns="http://www.w3.org/2000/svg"
   xmlns:sodipodi="http://sodipodi.sourceforge.net/DTD/sodipodi-0.dtd"
   xmlns:inkscape="http://www.inkscape.org/namespaces/inkscape"
   width="210mm"
   height="297mm"
   id="svg2"
   version="1.1"
   inkscape:version="0.48.4 r9939"
   sodipodi:docname="wf.svg">
  <sodipodi:namedview
     id="base"
     pagecolor="#ffffff"
     bordercolor="#666666"
     borderopacity="1.0"
     inkscape:pageopacity="0.0"
     inkscape:pageshadow="2"
     inkscape:zoom="1.4"
     inkscape:cx="343.5056"
     inkscape:cy="714.87975"
     inkscape:document-units="px"
     inkscape:current-layer="layer1"
     showgrid="false"
     inkscape:window-width="1366"
     inkscape:window-height="744"
     inkscape:window-x="0"
     inkscape:window-y="24"
     inkscape:window-maximized="1"
     showguides="true"
     inkscape:guide-bbox="true" />
  <defs
     id="defs4">
    <marker
       style="overflow:visible;"
       id="Arrow1Mend"
       refX="0.0"
       refY="0.0"
       orient="auto"
       inkscape:stockid="Arrow1Mend">
      <path
         transform="scale(0.4) rotate(180) translate(10,0)"
         style="fill-rule:evenodd;stroke:#000000;stroke-width:1.0pt;"
         d="M 0.0,0.0 L 5.0,-5.0 L -12.5,0.0 L 5.0,5.0 L 0.0,0.0 z "
         id="path4348" />
    </marker>
    <marker
       inkscape:stockid="Arrow1Mstart"
       orient="auto"
       refY="0.0"
       refX="0.0"
       id="Arrow1Mstart"
       style="overflow:visible">
      <path
         id="path4464"
         d="M 0.0,0.0 L 5.0,-5.0 L -12.5,0.0 L 5.0,5.0 L 0.0,0.0 z "
         style="fill-rule:evenodd;stroke:#000000;stroke-width:1.0pt"
         transform="scale(0.4) translate(10,0)" />
    </marker>
    <marker
       inkscape:stockid="Arrow1Lstart"
       orient="auto"
       refY="0.0"
       refX="0.0"
       id="Arrow1Lstart"
       style="overflow:visible">
      <path
         id="path4458"
         d="M 0.0,0.0 L 5.0,-5.0 L -12.5,0.0 L 5.0,5.0 L 0.0,0.0 z "
         style="fill-rule:evenodd;stroke:#000000;stroke-width:1.0pt"
         transform="scale(0.8) translate(12.5,0)" />
    </marker>
    <inkscape:path-effect
       is_visible="true"
       id="path-effect3761"
       effect="spiro" />
    <marker
       inkscape:stockid="Arrow1Mstart"
       orient="auto"
       refY="0"
       refX="0"
       id="Arrow1Mstart-2"
       style="overflow:visible">
      <path
         inkscape:connector-curvature="0"
         id="path4464-9"
         d="M 0,0 5,-5 -12.5,0 5,5 0,0 z"
         style="fill-rule:evenodd;stroke:#000000;stroke-width:1pt"
         transform="matrix(0.4,0,0,0.4,4,0)" />
    </marker>
  </defs>
  <metadata
     id="metadata7">
    <rdf:RDF>
      <cc:Work
         rdf:about="">
        <dc:format>image/svg+xml</dc:format>
        <dc:type
           rdf:resource="http://purl.org/dc/dcmitype/StillImage" />
        <dc:title />
      </cc:Work>
    </rdf:RDF>
  </metadata>
  <g
     id="layer1"
     inkscape:groupmode="layer"
     inkscape:label="Capa 1">
    <g
       transform="matrix(0.96592583,-0.25881905,0.25881905,0.96592583,-60.483644,26.900074)"
       id="g3775">
      <path
         sodipodi:type="arc"
         style="color:#000000;fill:none;stroke:#0000ff;stroke-width:1;stroke-linecap:round;stroke-linejoin:bevel;stroke-miterlimit:4;stroke-opacity:1;stroke-dasharray:none;stroke-dashoffset:0;marker:none;visibility:visible;display:inline;overflow:visible;enable-background:accumulate"
         id="path2985"
         sodipodi:cx="157.14285"
         sodipodi:cy="375.21933"
         sodipodi:rx="122.85714"
         sodipodi:ry="122.85714"
         d="m 279.99999,375.21933 c 0,67.85212 -55.00501,122.85714 -122.85714,122.85714 -39.36046,0 -76.337925,-18.85886 -99.448955,-50.7199"
         sodipodi:start="0"
         sodipodi:end="2.5140423"
         sodipodi:open="true"
         transform="matrix(-0.13522991,0.9718449,-0.44037733,-0.29843157,298.41895,252.43902)" />
      <path
         style="fill:none;stroke:#ff0000;stroke-width:1px;stroke-linecap:butt;stroke-linejoin:miter;stroke-opacity:1"
         d="m 84.999996,180.21932 c -16.131368,1.97891 -10.405823,21.95982 -10.933241,29.26992 -0.769977,10.67202 -17.212156,19.26843 -20.221086,31.39526 -5.1636,20.81075 5.65373,28.8626 6.050745,44.46478 0.212933,8.36801 -16.633667,24.90933 -12.041498,35.86458 4.175092,9.96025 14.312625,10.76508 19.772948,26.61257 5.617572,16.30388 -9.957831,18.68274 -4.74121,36.66613 3.212007,11.07283 22.351071,13.31587 22.113342,22.86962"
         id="path3773"
         inkscape:connector-curvature="0"
         sodipodi:nodetypes="cssssssc" />
    </g>
    <path
       inkscape:connector-curvature="0"
       id="path3779"
       d="m 19.285714,293.79075 297.857146,0"
       style="fill:none;stroke:#000000;stroke-width:1px;stroke-linecap:butt;stroke-linejoin:miter;stroke-opacity:1;marker-mid:none;marker-start:url(#Arrow1Mstart-2)" />
    <g
       style="font-style:normal;font-variant:normal;font-weight:normal;font-stretch:normal;letter-spacing:normal;word-spacing:normal;text-anchor:start;fill:none;stroke:#000000;stroke-linecap:butt;stroke-linejoin:miter;stroke-miterlimit:10.43299961;stroke-opacity:1;stroke-dasharray:none;stroke-dashoffset:0"
       id="g3916"
       transform="matrix(1.3326493,0,0,-1.3326493,-147.96883,1230.6547)"
       xml:space="preserve"
       stroke-miterlimit="10.433"
       font-style="normal"
       font-variant="normal"
       font-weight="normal"
       font-stretch="normal"
       font-size-adjust="none"
       letter-spacing="normal"
       word-spacing="normal"
       ns0:text="Frente de \\\\\nonda real"
       ns0:preamble="/home/ccuartas/Dropbox/Libros Opt. Fourier/Avance1/Im\xc3\xa1genes/preamble.tex"><path
         style="fill:#000000;stroke-width:0"
         inkscape:connector-curvature="0"
         d="m 229.22,663.99 h -5.46 v -0.31 H 224 c 0.76,0 0.79,-0.11 0.79,-0.46 v -5.21 c 0,-0.36 -0.03,-0.47 -0.79,-0.47 h -0.24 v -0.31 c 0.35,0.04 1.12,0.04 1.51,0.04 0.41,0 1.32,0 1.67,-0.04 v 0.31 h -0.32 c -0.95,0 -0.95,0.13 -0.95,0.48 v 2.44 h 0.86 c 0.95,0 1.05,-0.31 1.05,-1.16 h 0.25 v 2.63 h -0.25 c 0,-0.83 -0.1,-1.16 -1.05,-1.16 h -0.86 v 2.51 c 0,0.33 0.02,0.4 0.49,0.4 h 1.19 c 1.49,0 1.74,-0.55 1.9,-1.92 h 0.25 z"
         id="path3918" /><path
         style="fill:#000000;stroke-width:0"
         inkscape:connector-curvature="0"
         d="m 230.77,660.53 v 1.1 l -1.38,-0.11 v -0.31 c 0.69,0 0.77,-0.07 0.77,-0.56 v -2.66 c 0,-0.45 -0.11,-0.45 -0.77,-0.45 v -0.31 c 0.38,0.01 0.85,0.04 1.13,0.04 0.4,0 0.87,0 1.27,-0.04 v 0.31 h -0.21 c -0.74,0 -0.76,0.11 -0.76,0.47 v 1.53 c 0,0.98 0.42,1.87 1.17,1.87 0.07,0 0.09,0 0.11,-0.01 -0.03,-0.01 -0.22,-0.13 -0.22,-0.39 0,-0.28 0.2,-0.43 0.42,-0.43 0.18,0 0.43,0.12 0.43,0.44 0,0.32 -0.31,0.61 -0.74,0.61 -0.72,0 -1.08,-0.67 -1.22,-1.1 z"
         id="path3920" /><path
         style="fill:#000000;stroke-width:0"
         inkscape:connector-curvature="0"
         d="m 234.12,659.53 0,0.21 c 0.06,1.48 0.9,1.73 1.24,1.73 1.02,0 1.12,-1.34 1.12,-1.73 h -2.36 l 0,-0.21 h 2.77 c 0.22,0 0.25,0 0.25,0.21 0,0.98 -0.54,1.94 -1.78,1.94 -1.15,0 -2.07,-1.02 -2.07,-2.26 0,-1.33 1.04,-2.29 2.19,-2.29 1.21,0 1.66,1.1 1.66,1.29 0,0.1 -0.08,0.12 -0.13,0.12 -0.09,0 -0.11,-0.06 -0.13,-0.14 -0.35,-1.03 -1.24,-1.03 -1.34,-1.03 -0.5,0 -0.9,0.3 -1.13,0.67 -0.29,0.48 -0.29,1.13 -0.29,1.49 z"
         id="path3922" /><path
         style="fill:#000000;stroke-width:0"
         inkscape:connector-curvature="0"
         d="m 238.53,660.65 v -2.66 c 0,-0.45 -0.11,-0.45 -0.77,-0.45 v -0.31 c 0.34,0.01 0.85,0.04 1.12,0.04 0.26,0 0.78,-0.03 1.11,-0.04 v 0.31 c -0.66,0 -0.77,0 -0.77,0.45 v 1.83 c 0,1.03 0.71,1.59 1.34,1.59 0.63,0 0.74,-0.54 0.74,-1.11 v -2.31 c 0,-0.45 -0.11,-0.45 -0.78,-0.45 v -0.31 c 0.35,0.01 0.86,0.04 1.13,0.04 0.26,0 0.77,-0.03 1.11,-0.04 v 0.31 c -0.52,0 -0.77,0 -0.77,0.3 v 1.9 c 0,0.85 0,1.16 -0.31,1.52 -0.14,0.17 -0.47,0.37 -1.05,0.37 -0.72,0 -1.19,-0.43 -1.47,-1.05 v 1.05 l -1.4,-0.11 v -0.31 c 0.69,0 0.77,-0.07 0.77,-0.56 z"
         id="path3924" /><path
         style="fill:#000000;stroke-width:0"
         inkscape:connector-curvature="0"
         d="m 244.42,661.21 h 1.42 v 0.31 h -1.42 v 1.82 h -0.25 c -0.01,-0.81 -0.31,-1.87 -1.29,-1.91 v -0.22 h 0.85 v -2.74 c 0,-1.23 0.92,-1.34 1.28,-1.34 0.71,0 0.99,0.7 0.99,1.34 v 0.56 h -0.25 v -0.54 c 0,-0.74 -0.3,-1.12 -0.67,-1.12 -0.66,0 -0.66,0.91 -0.66,1.08 z"
         id="path3926" /><path
         style="fill:#000000;stroke-width:0"
         inkscape:connector-curvature="0"
         d="m 247.67,659.53 0.01,0.21 c 0.06,1.48 0.9,1.73 1.24,1.73 1.02,0 1.12,-1.34 1.12,-1.73 h -2.36 l -0.01,-0.21 h 2.78 c 0.22,0 0.25,0 0.25,0.21 0,0.98 -0.54,1.94 -1.78,1.94 -1.16,0 -2.07,-1.02 -2.07,-2.26 0,-1.33 1.04,-2.29 2.19,-2.29 1.21,0 1.66,1.1 1.66,1.29 0,0.1 -0.08,0.12 -0.13,0.12 -0.09,0 -0.11,-0.06 -0.13,-0.14 -0.35,-1.03 -1.24,-1.03 -1.34,-1.03 -0.5,0 -0.9,0.3 -1.13,0.67 -0.3,0.48 -0.3,1.13 -0.3,1.49 z"
         id="path3928" /><path
         style="fill:#000000;stroke-width:0"
         inkscape:connector-curvature="0"
         d="m 258.1,657.78 v -0.65 l 1.46,0.1 v 0.31 c -0.7,0 -0.78,0.07 -0.78,0.56 v 6.03 l -1.43,-0.11 v -0.31 c 0.7,0 0.77,-0.07 0.77,-0.55 v -2.15 c -0.28,0.36 -0.71,0.62 -1.25,0.62 l 0.04,-0.22 c 0.35,0 0.77,-0.15 1.07,-0.6 0.12,-0.17 0.12,-0.19 0.12,-0.37 h 0 v -2.03 c 0,-0.18 0,-0.2 -0.12,-0.37 -0.29,-0.48 -0.74,-0.7 -1.17,-0.7 -0.45,0 -0.8,0.26 -1.04,0.64 -0.26,0.41 -0.29,0.97 -0.29,1.38 0,0.37 0.02,0.96 0.31,1.41 0.2,0.31 0.58,0.64 1.12,0.64 l -0.04,0.22 c -1.17,0 -2.22,-0.98 -2.22,-2.26 0,-1.26 0.98,-2.24 2.11,-2.24 0.64,0 1.09,0.33 1.34,0.65 z"
         id="path3930" /><path
         style="fill:#000000;stroke-width:0"
         inkscape:connector-curvature="0"
         d="m 260.95,659.53 0.01,0.21 c 0.06,1.48 0.9,1.73 1.24,1.73 1.02,0 1.12,-1.34 1.12,-1.73 h -2.36 l -0.01,-0.21 h 2.78 c 0.22,0 0.25,0 0.25,0.21 0,0.98 -0.54,1.94 -1.78,1.94 -1.16,0 -2.07,-1.02 -2.07,-2.26 0,-1.33 1.04,-2.29 2.19,-2.29 1.21,0 1.66,1.1 1.66,1.29 0,0.1 -0.08,0.12 -0.13,0.12 -0.09,0 -0.11,-0.06 -0.13,-0.14 -0.35,-1.03 -1.24,-1.03 -1.34,-1.03 -0.5,0 -0.9,0.3 -1.13,0.67 -0.3,0.48 -0.3,1.13 -0.3,1.49 z"
         id="path3932" /><path
         style="fill:#000000;stroke-width:0"
         inkscape:connector-curvature="0"
         d="m 228.12,647.41 0,0.11 -0.01,0.12 -0.02,0.12 -0.02,0.11 -0.02,0.11 -0.03,0.11 -0.04,0.11 -0.04,0.11 -0.04,0.1 -0.05,0.1 -0.05,0.1 -0.06,0.09 -0.06,0.09 -0.07,0.09 -0.07,0.08 -0.07,0.08 -0.08,0.08 -0.08,0.08 -0.08,0.06 -0.09,0.07 -0.09,0.06 -0.09,0.06 -0.09,0.05 -0.1,0.05 -0.1,0.04 -0.1,0.03 -0.1,0.04 -0.11,0.02 -0.11,0.02 -0.11,0.02 -0.11,0.01 -0.11,0 -0.01,-0.22 c 0.44,0 0.86,-0.22 1.12,-0.64 0.26,-0.43 0.26,-1.01 0.26,-1.39 0,-0.35 0,-0.89 -0.22,-1.33 -0.22,-0.44 -0.65,-0.73 -1.15,-0.73 h 0 c -0.43,0 -0.87,0.21 -1.13,0.67 -0.25,0.43 -0.25,1.04 -0.25,1.39 0,0.39 0,0.93 0.23,1.37 0.27,0.45 0.74,0.66 1.14,0.66 l 0.01,0.22 c -1.24,0 -2.21,-1.08 -2.21,-2.32 0,-1.29 1.03,-2.24 2.2,-2.24 1.2,0 2.21,0.97 2.21,2.24 z"
         id="path3934" /><path
         style="fill:#000000;stroke-width:0"
         inkscape:connector-curvature="0"
         d="m 229.51,648.7 v -2.67 c 0,-0.44 -0.11,-0.44 -0.78,-0.44 v -0.31 c 0.35,0.01 0.86,0.03 1.13,0.03 0.26,0 0.77,-0.02 1.11,-0.03 v 0.31 c -0.67,0 -0.78,0 -0.78,0.44 v 1.83 c 0,1.04 0.71,1.59 1.35,1.59 0.62,0 0.73,-0.53 0.73,-1.1 v -2.32 c 0,-0.44 -0.11,-0.44 -0.77,-0.44 v -0.31 c 0.35,0.01 0.85,0.03 1.12,0.03 0.26,0 0.78,-0.02 1.12,-0.03 v 0.31 c -0.52,0 -0.77,0 -0.78,0.3 v 1.89 c 0,0.86 0,1.17 -0.31,1.52 -0.14,0.17 -0.47,0.37 -1.04,0.37 -0.73,0 -1.2,-0.43 -1.48,-1.04 v 1.04 l -1.4,-0.11 v -0.31 c 0.7,0 0.78,-0.07 0.78,-0.55 z"
         id="path3936" /><path
         style="fill:#000000;stroke-width:0"
         inkscape:connector-curvature="0"
         d="m 237.73,645.83 v -0.66 l 1.46,0.11 v 0.31 c -0.7,0 -0.77,0.07 -0.77,0.55 v 6.03 l -1.44,-0.1 v -0.31 c 0.7,0 0.78,-0.07 0.78,-0.56 v -2.15 c -0.29,0.36 -0.72,0.62 -1.25,0.62 l 0.03,-0.22 c 0.35,0 0.77,-0.15 1.08,-0.59 0.11,-0.17 0.11,-0.19 0.11,-0.37 h 0 v -2.04 c 0,-0.18 0,-0.2 -0.11,-0.36 -0.3,-0.48 -0.75,-0.7 -1.17,-0.7 -0.45,0 -0.81,0.26 -1.05,0.64 -0.26,0.4 -0.29,0.97 -0.29,1.38 0,0.36 0.02,0.96 0.31,1.41 0.21,0.3 0.59,0.63 1.12,0.63 l -0.03,0.22 c -1.18,0 -2.22,-0.97 -2.22,-2.25 0,-1.27 0.97,-2.25 2.11,-2.25 0.63,0 1.08,0.34 1.33,0.66 z"
         id="path3938" /><path
         style="fill:#000000;stroke-width:0"
         inkscape:connector-curvature="0"
         d="m 242.8,646.03 0,-0.03 0.01,-0.04 0,-0.04 0.01,-0.03 0.01,-0.04 0.01,-0.04 0.02,-0.03 0.01,-0.04 0.01,-0.04 0.02,-0.03 0.02,-0.03 0.02,-0.04 0.02,-0.03 0.02,-0.03 0.02,-0.03 0.02,-0.03 0.03,-0.03 0.03,-0.03 0.02,-0.02 0.03,-0.03 0.03,-0.02 0.03,-0.02 0.04,-0.02 0.03,-0.02 0.03,-0.01 0.04,-0.02 0.04,-0.01 0.04,-0.01 0.04,-0.01 0.04,-0.01 0.04,0 0.04,0 c 0.21,0 0.82,0.14 0.82,0.94 v 0.56 h -0.25 v -0.56 c 0,-0.57 -0.25,-0.63 -0.36,-0.63 -0.33,0 -0.37,0.44 -0.37,0.5 v 1.98 c 0,0.42 0,0.81 -0.36,1.17 -0.38,0.39 -0.88,0.55 -1.36,0.55 -0.81,0 -1.5,-0.47 -1.5,-1.12 0,-0.3 0.2,-0.47 0.46,-0.47 0.28,0 0.45,0.2 0.45,0.46 0,0.12 -0.04,0.44 -0.5,0.45 0.27,0.35 0.75,0.46 1.07,0.46 0.49,0 1.06,-0.39 1.06,-1.27 v -0.37 -0.21 -0.99 c 0,-0.94 -0.72,-1.28 -1.17,-1.28 -0.48,0 -0.89,0.35 -0.89,0.84 0,0.55 0.42,1.37 2.06,1.43 h 0 v 0.21 c -0.51,-0.03 -1.21,-0.06 -1.83,-0.35 -0.75,-0.34 -1,-0.86 -1,-1.3 0,-0.8 0.97,-1.05 1.59,-1.05 0.66,0 1.12,0.4 1.31,0.86 z"
         id="path3940" /><path
         style="fill:#000000;stroke-width:0"
         inkscape:connector-curvature="0"
         d="m 249.44,648.58 v 1.09 l -1.38,-0.11 v -0.31 c 0.7,0 0.78,-0.07 0.78,-0.55 v -2.67 c 0,-0.44 -0.11,-0.44 -0.78,-0.44 v -0.31 c 0.39,0.01 0.86,0.03 1.14,0.03 0.39,0 0.86,0 1.26,-0.03 v 0.31 h -0.21 c -0.74,0 -0.76,0.11 -0.76,0.46 v 1.54 c 0,0.98 0.42,1.86 1.18,1.86 0.07,0 0.09,0 0.11,-0.01 -0.03,-0.01 -0.23,-0.13 -0.23,-0.39 0,-0.27 0.21,-0.42 0.43,-0.42 0.17,0 0.42,0.12 0.42,0.44 0,0.31 -0.3,0.6 -0.73,0.6 -0.73,0 -1.09,-0.66 -1.23,-1.09 z"
         id="path3942" /><path
         style="fill:#000000;stroke-width:0"
         inkscape:connector-curvature="0"
         d="m 252.79,647.58 0.01,0.2 c 0.06,1.48 0.9,1.73 1.23,1.73 1.03,0 1.13,-1.34 1.13,-1.73 h -2.36 l -0.01,-0.2 h 2.78 c 0.21,0 0.24,0 0.24,0.2 0,0.99 -0.53,1.95 -1.78,1.95 -1.15,0 -2.07,-1.02 -2.07,-2.26 0,-1.34 1.05,-2.3 2.19,-2.3 1.22,0 1.66,1.1 1.66,1.29 0,0.1 -0.08,0.12 -0.13,0.12 -0.08,0 -0.11,-0.06 -0.13,-0.14 -0.34,-1.02 -1.24,-1.02 -1.34,-1.02 -0.5,0 -0.89,0.3 -1.12,0.67 -0.3,0.47 -0.3,1.13 -0.3,1.49 z"
         id="path3944" /><path
         style="fill:#000000;stroke-width:0"
         inkscape:connector-curvature="0"
         d="m 259.42,646.03 0.01,-0.03 0.01,-0.04 0,-0.04 0.01,-0.03 0.01,-0.04 0.01,-0.04 0.01,-0.03 0.02,-0.04 0.01,-0.04 0.02,-0.03 0.02,-0.03 0.01,-0.04 0.03,-0.03 0.02,-0.03 0.02,-0.03 0.02,-0.03 0.03,-0.03 0.02,-0.03 0.03,-0.02 0.03,-0.03 0.03,-0.02 0.03,-0.02 0.03,-0.02 0.04,-0.02 0.03,-0.01 0.04,-0.02 0.04,-0.01 0.04,-0.01 0.03,-0.01 0.05,-0.01 0.04,0 0.04,0 c 0.21,0 0.82,0.14 0.82,0.94 v 0.56 h -0.25 v -0.56 c 0,-0.57 -0.25,-0.63 -0.36,-0.63 -0.33,0 -0.37,0.44 -0.37,0.5 v 1.98 c 0,0.42 0,0.81 -0.36,1.17 -0.38,0.39 -0.88,0.55 -1.36,0.55 -0.81,0 -1.5,-0.47 -1.5,-1.12 0,-0.3 0.2,-0.47 0.46,-0.47 0.27,0 0.45,0.2 0.45,0.46 0,0.12 -0.05,0.44 -0.5,0.45 0.26,0.35 0.75,0.46 1.07,0.46 0.49,0 1.06,-0.39 1.06,-1.27 v -0.37 -0.21 -0.99 c 0,-0.94 -0.72,-1.28 -1.17,-1.28 -0.49,0 -0.89,0.35 -0.89,0.84 0,0.55 0.41,1.37 2.06,1.43 h 0 v 0.21 c -0.51,-0.03 -1.21,-0.06 -1.84,-0.35 -0.74,-0.34 -0.99,-0.86 -0.99,-1.3 0,-0.8 0.96,-1.05 1.59,-1.05 0.66,0 1.12,0.4 1.3,0.86 z"
         id="path3946" /><path
         style="fill:#000000;stroke-width:0"
         inkscape:connector-curvature="0"
         d="m 262.86,652.17 -1.44,-0.1 v -0.31 c 0.7,0 0.78,-0.07 0.78,-0.56 v -5.17 c 0,-0.44 -0.11,-0.44 -0.78,-0.44 v -0.31 c 0.33,0.01 0.86,0.03 1.11,0.03 0.24,0 0.73,-0.02 1.1,-0.03 v 0.31 c -0.67,0 -0.77,0 -0.77,0.44 z"
         id="path3948" /></g>    <g
       style="font-style:normal;font-variant:normal;font-weight:normal;font-stretch:normal;letter-spacing:normal;word-spacing:normal;text-anchor:start;fill:none;stroke:#000000;stroke-linecap:butt;stroke-linejoin:miter;stroke-miterlimit:10.43299961;stroke-opacity:1;stroke-dasharray:none;stroke-dashoffset:0"
       id="g4170"
       transform="matrix(1.3326493,0,0,-1.3326493,29.058525,1094.1011)"
       xml:space="preserve"
       stroke-miterlimit="10.433"
       font-style="normal"
       font-variant="normal"
       font-weight="normal"
       font-stretch="normal"
       font-size-adjust="none"
       letter-spacing="normal"
       word-spacing="normal"
       ns0:text="Punto imagen\\\\\nideal"
       ns0:preamble="/home/ccuartas/Dropbox/Libros Opt. Fourier/Avance1/Im\xc3\xa1genes/preamble.tex"><path
         style="fill:#000000;stroke-width:0"
         inkscape:connector-curvature="0"
         d="m 225.69,660.37 -0.03,0.26 v 2.69 c 0,0.32 0.02,0.39 0.49,0.39 h 0.88 c 1.59,0 1.59,-1.05 1.59,-1.54 0,-0.46 0,-1.54 -1.59,-1.54 h -1.37 l 0.03,-0.26 h 1.68 c 1.2,0 2.27,0.81 2.27,1.8 0,0.98 -0.99,1.85 -2.35,1.85 h -3.51 v -0.31 h 0.24 c 0.77,0 0.78,-0.11 0.78,-0.47 v -5.23 c 0,-0.36 -0.01,-0.47 -0.78,-0.47 h -0.24 v -0.31 c 0.35,0.04 1.09,0.04 1.46,0.04 0.38,0 1.13,0 1.47,-0.04 v 0.31 h -0.23 c -0.77,0 -0.79,0.11 -0.79,0.47 z"
         id="path4172" /><path
         style="fill:#000000;stroke-width:0"
         inkscape:connector-curvature="0"
         d="m 234.1,658.02 v -0.89 l 1.44,0.1 v 0.31 c -0.7,0 -0.78,0.07 -0.78,0.56 v 3.53 l -1.46,-0.11 v -0.31 c 0.69,0 0.77,-0.07 0.77,-0.56 v -1.77 c 0,-0.86 -0.47,-1.54 -1.2,-1.54 -0.84,0 -0.88,0.47 -0.88,0.99 v 3.3 l -1.46,-0.11 v -0.31 c 0.78,0 0.78,-0.03 0.78,-0.92 v -1.49 c 0,-0.77 0,-1.67 1.51,-1.67 0.56,0 0.99,0.27 1.28,0.89 z"
         id="path4174" /><path
         style="fill:#000000;stroke-width:0"
         inkscape:connector-curvature="0"
         d="m 236.84,660.65 v -2.66 c 0,-0.45 -0.11,-0.45 -0.77,-0.45 v -0.31 c 0.34,0.01 0.85,0.04 1.12,0.04 0.26,0 0.78,-0.03 1.11,-0.04 v 0.31 c -0.66,0 -0.77,0 -0.77,0.45 v 1.83 c 0,1.03 0.71,1.59 1.34,1.59 0.63,0 0.74,-0.54 0.74,-1.11 v -2.31 c 0,-0.45 -0.11,-0.45 -0.78,-0.45 v -0.31 c 0.35,0.01 0.86,0.04 1.13,0.04 0.25,0 0.77,-0.03 1.11,-0.04 v 0.31 c -0.52,0 -0.77,0 -0.78,0.3 v 1.9 c 0,0.85 0,1.16 -0.3,1.52 -0.14,0.17 -0.47,0.37 -1.05,0.37 -0.73,0 -1.19,-0.43 -1.47,-1.05 v 1.05 l -1.4,-0.11 v -0.31 c 0.69,0 0.77,-0.07 0.77,-0.56 z"
         id="path4176" /><path
         style="fill:#000000;stroke-width:0"
         inkscape:connector-curvature="0"
         d="m 242.73,661.21 h 1.42 v 0.31 h -1.42 v 1.82 h -0.25 c -0.01,-0.81 -0.31,-1.87 -1.29,-1.91 v -0.22 h 0.85 v -2.74 c 0,-1.23 0.92,-1.34 1.28,-1.34 0.71,0 0.99,0.7 0.99,1.34 v 0.56 h -0.25 v -0.54 c 0,-0.74 -0.3,-1.12 -0.67,-1.12 -0.66,0 -0.66,0.91 -0.66,1.08 z"
         id="path4178" /><path
         style="fill:#000000;stroke-width:0"
         inkscape:connector-curvature="0"
         d="m 249.57,659.36 -0.01,0.12 -0.01,0.12 -0.01,0.11 -0.02,0.12 -0.02,0.11 -0.03,0.11 -0.04,0.11 -0.04,0.1 -0.04,0.1 -0.05,0.1 -0.06,0.1 -0.05,0.09 -0.06,0.1 -0.07,0.08 -0.07,0.09 -0.07,0.08 -0.08,0.08 -0.08,0.07 -0.08,0.07 -0.09,0.06 -0.09,0.07 -0.09,0.05 -0.1,0.05 -0.09,0.05 -0.1,0.04 -0.1,0.04 -0.11,0.03 -0.1,0.03 -0.11,0.02 -0.11,0.01 -0.11,0.01 -0.11,0 -0.01,-0.21 c 0.43,0 0.86,-0.22 1.12,-0.65 0.26,-0.43 0.26,-1 0.26,-1.38 0,-0.36 0,-0.89 -0.22,-1.33 -0.22,-0.45 -0.66,-0.74 -1.15,-0.74 h 0 c -0.43,0 -0.87,0.21 -1.14,0.67 -0.25,0.44 -0.25,1.04 -0.25,1.4 0,0.39 0,0.92 0.24,1.36 0.27,0.46 0.74,0.67 1.14,0.67 l 0.01,0.21 c -1.25,0 -2.21,-1.08 -2.21,-2.32 0,-1.28 1.03,-2.23 2.2,-2.23 1.2,0 2.21,0.97 2.21,2.23 z"
         id="path4180" /><path
         style="fill:#000000;stroke-width:0"
         inkscape:connector-curvature="0"
         d="m 254.94,661.63 -1.4,-0.11 v -0.31 c 0.65,0 0.74,-0.06 0.74,-0.55 v -2.67 c 0,-0.45 -0.11,-0.45 -0.77,-0.45 v -0.31 c 0.31,0.01 0.85,0.04 1.09,0.04 0.35,0 0.7,-0.03 1.03,-0.04 v 0.31 c -0.65,0 -0.69,0.05 -0.69,0.44 z"
         id="path4182" /><path
         style="fill:#000000;stroke-width:0"
         inkscape:connector-curvature="0"
         d="m 254.98,663.35 0,0.03 0,0.03 -0.01,0.03 0,0.03 -0.01,0.02 -0.01,0.03 -0.01,0.03 -0.01,0.02 -0.01,0.02 -0.01,0.03 -0.01,0.02 -0.02,0.02 -0.01,0.02 -0.02,0.02 -0.01,0.02 -0.02,0.02 -0.02,0.01 -0.02,0.02 -0.02,0.01 -0.02,0.02 -0.02,0.01 -0.02,0.01 -0.03,0.01 -0.02,0.01 -0.02,0.01 -0.03,0.01 -0.02,0.01 -0.03,0 -0.02,0.01 -0.03,0 -0.02,0 -0.03,0 c -0.31,0 -0.53,-0.27 -0.53,-0.53 0,-0.26 0.22,-0.52 0.53,-0.52 0.28,0 0.53,0.21 0.53,0.52 z"
         id="path4184" /><path
         style="fill:#000000;stroke-width:0"
         inkscape:connector-curvature="0"
         d="m 257.04,660.65 v -2.66 c 0,-0.45 -0.11,-0.45 -0.78,-0.45 v -0.31 c 0.35,0.01 0.86,0.04 1.13,0.04 0.26,0 0.77,-0.03 1.11,-0.04 v 0.31 c -0.67,0 -0.77,0 -0.77,0.45 v 1.83 c 0,1.03 0.7,1.59 1.34,1.59 0.63,0 0.73,-0.54 0.73,-1.11 v -2.31 c 0,-0.45 -0.1,-0.45 -0.77,-0.45 v -0.31 c 0.35,0.01 0.86,0.04 1.12,0.04 0.26,0 0.78,-0.03 1.12,-0.04 v 0.31 c -0.67,0 -0.78,0 -0.78,0.45 v 1.83 c 0,1.03 0.71,1.59 1.34,1.59 0.63,0 0.74,-0.54 0.74,-1.11 v -2.31 c 0,-0.45 -0.11,-0.45 -0.77,-0.45 v -0.31 c 0.34,0.01 0.85,0.04 1.12,0.04 0.26,0 0.78,-0.03 1.11,-0.04 v 0.31 c -0.51,0 -0.76,0 -0.77,0.3 v 1.9 c 0,0.85 0,1.16 -0.31,1.52 -0.14,0.17 -0.47,0.37 -1.05,0.37 -0.83,0 -1.27,-0.6 -1.44,-0.98 -0.14,0.87 -0.87,0.98 -1.32,0.98 -0.73,0 -1.19,-0.43 -1.47,-1.05 v 1.05 l -1.41,-0.11 v -0.31 c 0.7,0 0.78,-0.07 0.78,-0.56 z"
         id="path4186" /><path
         style="fill:#000000;stroke-width:0"
         inkscape:connector-curvature="0"
         d="m 267.56,657.99 0,-0.04 0.01,-0.03 0.01,-0.04 0.01,-0.04 0.01,-0.04 0.01,-0.03 0.01,-0.04 0.01,-0.03 0.02,-0.04 0.01,-0.03 0.02,-0.04 0.02,-0.03 0.02,-0.03 0.02,-0.04 0.02,-0.03 0.03,-0.03 0.02,-0.02 0.03,-0.03 0.03,-0.03 0.03,-0.02 0.03,-0.02 0.03,-0.03 0.03,-0.02 0.03,-0.01 0.04,-0.02 0.03,-0.01 0.04,-0.02 0.04,-0.01 0.04,0 0.04,-0.01 0.04,0 0.05,-0.01 c 0.21,0 0.81,0.14 0.81,0.95 v 0.55 h -0.25 v -0.55 c 0,-0.58 -0.25,-0.64 -0.35,-0.64 -0.33,0 -0.37,0.45 -0.37,0.5 v 1.99 c 0,0.41 0,0.8 -0.36,1.17 -0.39,0.39 -0.89,0.54 -1.37,0.54 -0.81,0 -1.5,-0.46 -1.5,-1.12 0,-0.29 0.2,-0.46 0.46,-0.46 0.28,0 0.46,0.19 0.46,0.45 0,0.12 -0.05,0.45 -0.51,0.46 0.27,0.35 0.76,0.46 1.08,0.46 0.48,0 1.05,-0.39 1.05,-1.27 v -0.37 -0.21 -0.99 c 0,-0.95 -0.72,-1.29 -1.16,-1.29 -0.49,0 -0.9,0.35 -0.9,0.85 0,0.54 0.42,1.37 2.06,1.43 h 0 v 0.21 c -0.51,-0.03 -1.2,-0.06 -1.83,-0.36 -0.75,-0.34 -0.99,-0.85 -0.99,-1.29 0,-0.81 0.96,-1.05 1.59,-1.05 0.65,0 1.11,0.39 1.3,0.86 z"
         id="path4188" /><path
         style="fill:#000000;stroke-width:0"
         inkscape:connector-curvature="0"
         d="m 270.28,658.56 0,0 0,0.01 0,0 0,0.01 0,0.01 0,0.01 0,0.01 0.01,0.01 0,0.01 0,0.01 0,0.02 0,0.01 0,0.01 0.01,0.02 0,0.01 0,0.02 0.01,0.02 0,0.01 0.01,0.02 0,0.02 0.01,0.02 0.01,0.01 0.01,0.02 0,0.02 0.01,0.02 0.01,0.02 0.01,0.02 0.02,0.02 0.01,0.02 0.01,0.02 0.02,0.01 0.01,0.02 c 0.39,-0.28 0.8,-0.3 0.99,-0.3 v 0.22 c -0.87,0 -0.87,1 -0.87,1.22 0,0.27 0.01,0.59 0.16,0.84 0.08,0.12 0.31,0.4 0.71,0.4 0.86,0 0.86,-1 0.86,-1.23 0,-0.26 -0.01,-0.58 -0.16,-0.83 -0.08,-0.12 -0.31,-0.4 -0.7,-0.4 h 0 v -0.22 c 0.92,0 1.61,0.68 1.61,1.44 0,0.37 -0.16,0.74 -0.41,0.97 0.36,0.34 0.72,0.39 0.9,0.39 0.02,0 0.07,0 0.1,-0.01 -0.11,-0.04 -0.16,-0.15 -0.16,-0.27 0,-0.17 0.13,-0.29 0.29,-0.29 0.09,0 0.28,0.07 0.28,0.3 0,0.17 -0.12,0.48 -0.5,0.48 -0.2,0 -0.64,-0.06 -1.06,-0.46 -0.42,0.33 -0.83,0.36 -1.05,0.36 -0.93,0 -1.61,-0.69 -1.61,-1.46 0,-0.43 0.21,-0.81 0.46,-1.02 -0.13,-0.15 -0.31,-0.48 -0.31,-0.82 0,-0.31 0.13,-0.69 0.44,-0.89 -0.59,-0.16 -0.91,-0.59 -0.91,-0.99 0,-0.72 0.98,-1.26 2.19,-1.26 l 0.01,0.23 c -1,0 -1.69,0.5 -1.69,1.03 0,0.46 0.38,0.83 0.82,0.85 h 0.59 c 0.85,0 1.97,0 1.97,-0.85 0,-0.54 -0.71,-1.03 -1.69,-1.03 h 0 l -0.01,-0.23 c 1.18,0 2.21,0.51 2.21,1.28 0,0.35 -0.14,0.85 -0.64,1.13 -0.53,0.28 -1.11,0.28 -1.71,0.28 -0.25,0 -0.68,0 -0.75,0.01 -0.32,0.04 -0.53,0.35 -0.53,0.67 z"
         id="path4190" /><path
         style="fill:#000000;stroke-width:0"
         inkscape:connector-curvature="0"
         d="m 275.31,659.53 0.01,0.21 c 0.06,1.48 0.9,1.73 1.24,1.73 1.02,0 1.12,-1.34 1.12,-1.73 h -2.36 l -0.01,-0.21 h 2.78 c 0.22,0 0.25,0 0.25,0.21 0,0.98 -0.54,1.94 -1.78,1.94 -1.16,0 -2.07,-1.02 -2.07,-2.26 0,-1.33 1.04,-2.29 2.19,-2.29 1.21,0 1.66,1.1 1.66,1.29 0,0.1 -0.08,0.12 -0.13,0.12 -0.09,0 -0.11,-0.06 -0.13,-0.14 -0.35,-1.03 -1.24,-1.03 -1.34,-1.03 -0.5,0 -0.9,0.3 -1.13,0.67 -0.3,0.48 -0.3,1.13 -0.3,1.49 z"
         id="path4192" /><path
         style="fill:#000000;stroke-width:0"
         inkscape:connector-curvature="0"
         d="m 279.74,660.65 v -2.66 c 0,-0.45 -0.11,-0.45 -0.78,-0.45 v -0.31 c 0.35,0.01 0.86,0.04 1.13,0.04 0.26,0 0.77,-0.03 1.11,-0.04 v 0.31 c -0.66,0 -0.77,0 -0.77,0.45 v 1.83 c 0,1.03 0.7,1.59 1.34,1.59 0.63,0 0.74,-0.54 0.74,-1.11 v -2.31 c 0,-0.45 -0.11,-0.45 -0.78,-0.45 v -0.31 c 0.35,0.01 0.86,0.04 1.13,0.04 0.25,0 0.77,-0.03 1.11,-0.04 v 0.31 c -0.52,0 -0.77,0 -0.78,0.3 v 1.9 c 0,0.85 0,1.16 -0.3,1.52 -0.14,0.17 -0.47,0.37 -1.05,0.37 -0.73,0 -1.19,-0.43 -1.47,-1.05 v 1.05 l -1.41,-0.11 v -0.31 c 0.7,0 0.78,-0.07 0.78,-0.56 z"
         id="path4194" /><path
         style="fill:#000000;stroke-width:0"
         inkscape:connector-curvature="0"
         d="m 225.19,649.67 -1.39,-0.11 v -0.31 c 0.65,0 0.74,-0.06 0.74,-0.54 v -2.68 c 0,-0.44 -0.11,-0.44 -0.78,-0.44 v -0.31 c 0.32,0.01 0.86,0.03 1.09,0.03 0.35,0 0.7,-0.02 1.04,-0.03 v 0.31 c -0.66,0 -0.7,0.05 -0.7,0.44 z"
         id="path4196" /><path
         style="fill:#000000;stroke-width:0"
         inkscape:connector-curvature="0"
         d="m 225.23,651.4 0,0.03 0,0.03 0,0.03 -0.01,0.02 0,0.03 -0.01,0.03 -0.01,0.02 -0.01,0.03 -0.01,0.02 -0.01,0.02 -0.02,0.02 -0.01,0.03 -0.02,0.02 -0.01,0.02 -0.02,0.01 -0.02,0.02 -0.01,0.02 -0.02,0.01 -0.02,0.02 -0.03,0.01 -0.02,0.02 -0.02,0.01 -0.02,0.01 -0.02,0.01 -0.03,0.01 -0.02,0 -0.03,0.01 -0.02,0.01 -0.03,0 -0.02,0 -0.03,0.01 -0.02,0 c -0.31,0 -0.53,-0.27 -0.53,-0.53 0,-0.27 0.22,-0.53 0.53,-0.53 0.27,0 0.52,0.21 0.52,0.53 z"
         id="path4198" /><path
         style="fill:#000000;stroke-width:0"
         inkscape:connector-curvature="0"
         d="m 229.98,645.83 v -0.66 l 1.46,0.11 v 0.31 c -0.69,0 -0.77,0.07 -0.77,0.55 v 6.03 l -1.44,-0.1 v -0.31 c 0.7,0 0.78,-0.07 0.78,-0.56 v -2.15 c -0.29,0.36 -0.72,0.62 -1.25,0.62 l 0.04,-0.22 c 0.35,0 0.76,-0.15 1.07,-0.59 0.11,-0.17 0.11,-0.19 0.11,-0.37 h 0 v -2.04 c 0,-0.18 0,-0.2 -0.11,-0.36 -0.3,-0.48 -0.75,-0.7 -1.17,-0.7 -0.45,0 -0.81,0.26 -1.05,0.64 -0.26,0.4 -0.29,0.97 -0.29,1.38 0,0.36 0.02,0.96 0.31,1.41 0.21,0.3 0.59,0.63 1.13,0.63 l -0.04,0.22 c -1.18,0 -2.22,-0.97 -2.22,-2.25 0,-1.27 0.97,-2.25 2.11,-2.25 0.63,0 1.08,0.34 1.33,0.66 z"
         id="path4200" /><path
         style="fill:#000000;stroke-width:0"
         inkscape:connector-curvature="0"
         d="m 232.84,647.58 0.01,0.2 c 0.06,1.48 0.89,1.73 1.23,1.73 1.03,0 1.13,-1.34 1.13,-1.73 h -2.36 l -0.01,-0.2 h 2.78 c 0.21,0 0.24,0 0.24,0.2 0,0.99 -0.53,1.95 -1.78,1.95 -1.15,0 -2.07,-1.02 -2.07,-2.26 0,-1.34 1.05,-2.3 2.19,-2.3 1.22,0 1.66,1.1 1.66,1.29 0,0.1 -0.08,0.12 -0.13,0.12 -0.08,0 -0.11,-0.06 -0.13,-0.14 -0.34,-1.02 -1.24,-1.02 -1.34,-1.02 -0.5,0 -0.89,0.3 -1.12,0.67 -0.3,0.47 -0.3,1.13 -0.3,1.49 z"
         id="path4202" /><path
         style="fill:#000000;stroke-width:0"
         inkscape:connector-curvature="0"
         d="m 239.48,646.03 0,-0.03 0.01,-0.04 0,-0.04 0.01,-0.03 0.01,-0.04 0.01,-0.04 0.01,-0.03 0.02,-0.04 0.01,-0.04 0.02,-0.03 0.02,-0.03 0.01,-0.04 0.03,-0.03 0.02,-0.03 0.02,-0.03 0.02,-0.03 0.03,-0.03 0.02,-0.03 0.03,-0.02 0.03,-0.03 0.03,-0.02 0.03,-0.02 0.03,-0.02 0.04,-0.02 0.03,-0.01 0.04,-0.02 0.04,-0.01 0.04,-0.01 0.03,-0.01 0.05,-0.01 0.04,0 0.04,0 c 0.21,0 0.82,0.14 0.82,0.94 v 0.56 h -0.25 v -0.56 c 0,-0.57 -0.25,-0.63 -0.36,-0.63 -0.33,0 -0.37,0.44 -0.37,0.5 v 1.98 c 0,0.42 0,0.81 -0.36,1.17 -0.38,0.39 -0.88,0.55 -1.36,0.55 -0.82,0 -1.5,-0.47 -1.5,-1.12 0,-0.3 0.2,-0.47 0.46,-0.47 0.27,0 0.45,0.2 0.45,0.46 0,0.12 -0.05,0.44 -0.5,0.45 0.26,0.35 0.75,0.46 1.07,0.46 0.49,0 1.06,-0.39 1.06,-1.27 v -0.37 -0.21 -0.99 c 0,-0.94 -0.72,-1.28 -1.17,-1.28 -0.49,0 -0.89,0.35 -0.89,0.84 0,0.55 0.41,1.37 2.06,1.43 h 0 v 0.21 c -0.51,-0.03 -1.21,-0.06 -1.84,-0.35 -0.74,-0.34 -0.99,-0.86 -0.99,-1.3 0,-0.8 0.96,-1.05 1.59,-1.05 0.66,0 1.12,0.4 1.31,0.86 z"
         id="path4204" /><path
         style="fill:#000000;stroke-width:0"
         inkscape:connector-curvature="0"
         d="m 242.9,652.17 -1.43,-0.1 v -0.31 c 0.7,0 0.78,-0.07 0.78,-0.56 v -5.17 c 0,-0.44 -0.11,-0.44 -0.78,-0.44 v -0.31 c 0.33,0.01 0.86,0.03 1.11,0.03 0.24,0 0.73,-0.02 1.1,-0.03 v 0.31 c -0.67,0 -0.78,0 -0.78,0.44 z"
         id="path4206" /></g>    <g
       ns0:preamble="/home/ccuartas/Dropbox/Libros Opt. Fourier/Avance1/Im\xc3\xa1genes/preamble.tex"
       ns0:text="$W(x,y)$"
       word-spacing="normal"
       letter-spacing="normal"
       font-size-adjust="none"
       font-stretch="normal"
       font-weight="normal"
       font-variant="normal"
       font-style="normal"
       stroke-miterlimit="10.433"
       xml:space="preserve"
       transform="matrix(1.3326493,0,0,-1.3326493,-290.26441,1115.4165)"
       id="g4356"
       style="font-style:normal;font-variant:normal;font-weight:normal;font-stretch:normal;letter-spacing:normal;word-spacing:normal;text-anchor:start;fill:none;stroke:#000000;stroke-linecap:butt;stroke-linejoin:miter;stroke-miterlimit:10.43299961;stroke-opacity:1;stroke-dasharray:none;stroke-dashoffset:0"><path
         id="path4358"
         d="m 232.55,662.87 0.05,0.08 0.05,0.08 0.05,0.07 0.05,0.08 0.02,0.03 0.03,0.04 0.02,0.03 0.03,0.03 0.03,0.04 0.03,0.03 0.03,0.03 0.03,0.02 0.03,0.03 0.04,0.03 0.03,0.02 0.04,0.03 0.03,0.02 0.04,0.02 0.04,0.02 0.05,0.02 0.04,0.02 0.05,0.01 0.04,0.02 0.05,0.01 0.05,0.01 0.06,0.01 0.05,0.01 0.06,0 c 0.09,0.01 0.19,0.01 0.19,0.2 0,0.04 -0.04,0.11 -0.12,0.11 -0.24,0 -0.52,-0.03 -0.77,-0.03 -0.34,0 -0.7,0.03 -1.03,0.03 -0.06,0 -0.19,0 -0.19,-0.19 0,-0.11 0.09,-0.12 0.15,-0.12 0.24,-0.01 0.59,-0.09 0.59,-0.39 0,-0.1 -0.05,-0.18 -0.13,-0.32 l -2.69,-4.68 -0.37,4.92 c -0.01,0.2 -0.03,0.46 0.7,0.47 0.17,0 0.27,0 0.27,0.2 0,0.1 -0.11,0.11 -0.15,0.11 -0.4,0 -0.82,-0.03 -1.22,-0.03 -0.22,0 -0.81,0.03 -1.04,0.03 -0.06,0 -0.19,0 -0.19,-0.2 0,-0.11 0.1,-0.11 0.24,-0.11 0.44,0 0.51,-0.06 0.53,-0.25 l 0.06,-0.76 -2.52,-4.38 -0.38,5.03 c 0,0.12 0,0.35 0.76,0.36 0.1,0 0.21,0 0.21,0.2 0,0.11 -0.12,0.11 -0.14,0.11 -0.4,0 -0.82,-0.03 -1.23,-0.03 -0.35,0 -0.7,0.03 -1.04,0.03 -0.05,0 -0.18,0 -0.18,-0.19 0,-0.12 0.09,-0.12 0.25,-0.12 0.5,0 0.51,-0.09 0.53,-0.37 l 0.44,-6.06 c 0.01,-0.18 0.02,-0.26 0.16,-0.26 0.12,0 0.15,0.06 0.24,0.2 l 2.93,5.07 0.36,-5.01 c 0.02,-0.21 0.04,-0.26 0.16,-0.26 0.13,0 0.19,0.1 0.24,0.19 z"
         inkscape:connector-curvature="0"
         style="fill:#000000;stroke-width:0" /><path
         id="path4360"
         d="m 237.52,654.85 0,0.01 0,0 0,0 0,0.01 0,0 0,0 -0.01,0.01 0,0 0,0 0,0.01 0,0 -0.01,0.01 0,0 0,0.01 -0.01,0 0,0.01 -0.01,0.01 0,0 -0.01,0.01 0,0 0,0.01 -0.01,0 0,0 0,0.01 -0.01,0 0,0.01 -0.01,0 0,0.01 -0.01,0 0,0.01 -0.01,0 0,0.01 -0.01,0.01 -0.01,0 0,0.01 -0.01,0.01 0,0 -0.01,0.01 -0.01,0.01 -0.01,0 0,0.01 -0.01,0.01 c -1.25,1.25 -1.56,3.13 -1.56,4.65 0,1.73 0.37,3.45 1.6,4.7 0.13,0.12 0.13,0.14 0.13,0.17 0,0.07 -0.04,0.09 -0.1,0.09 -0.1,0 -1,-0.67 -1.58,-1.93 -0.51,-1.09 -0.63,-2.2 -0.63,-3.03 0,-0.78 0.11,-1.98 0.66,-3.1 0.59,-1.22 1.45,-1.87 1.55,-1.87 0.06,0 0.1,0.03 0.1,0.1 z"
         inkscape:connector-curvature="0"
         style="fill:#000000;stroke-width:0" /><path
         id="path4362"
         d="m 241.42,660.23 0.01,0.03 0.01,0.03 0,0.03 0.01,0.04 0.01,0.04 0.02,0.04 0.01,0.04 0.01,0.05 0.02,0.04 0.02,0.05 0.02,0.05 0.02,0.05 0.02,0.05 0.02,0.05 0.03,0.05 0.03,0.05 0.03,0.05 0.03,0.04 0.03,0.05 0.04,0.04 0.03,0.05 0.04,0.04 0.04,0.04 0.05,0.03 0.04,0.03 0.05,0.03 0.03,0.01 0.02,0.02 0.03,0.01 0.03,0.01 0.02,0.01 0.03,0 0.03,0.01 0.03,0.01 0.03,0 0.03,0 0.03,0.01 0.04,0 c 0.05,0 0.29,0 0.49,-0.13 -0.27,-0.05 -0.47,-0.3 -0.47,-0.54 0,-0.16 0.11,-0.35 0.37,-0.35 0.22,0 0.54,0.18 0.54,0.58 0,0.52 -0.58,0.66 -0.92,0.66 -0.58,0 -0.93,-0.53 -1.05,-0.76 -0.25,0.66 -0.78,0.76 -1.07,0.76 -1.04,0 -1.6,-1.29 -1.6,-1.53 0,-0.1 0.09,-0.1 0.12,-0.1 0.08,0 0.11,0.02 0.13,0.11 0.33,1.05 0.99,1.3 1.33,1.3 0.19,0 0.54,-0.09 0.54,-0.67 0,-0.31 -0.17,-0.97 -0.54,-2.36 -0.16,-0.62 -0.51,-1.04 -0.95,-1.04 -0.06,0 -0.29,0 -0.49,0.13 0.24,0.05 0.46,0.26 0.46,0.54 0,0.27 -0.22,0.35 -0.37,0.35 -0.29,0 -0.54,-0.26 -0.54,-0.58 0,-0.46 0.49,-0.65 0.93,-0.65 0.66,0 1.02,0.69 1.05,0.75 0.12,-0.37 0.48,-0.75 1.07,-0.75 1.03,0 1.59,1.28 1.59,1.53 0,0.1 -0.09,0.1 -0.12,0.1 -0.09,0 -0.11,-0.04 -0.12,-0.11 -0.33,-1.07 -1.01,-1.31 -1.33,-1.31 -0.39,0 -0.55,0.32 -0.55,0.66 0,0.22 0.06,0.44 0.17,0.87 z"
         inkscape:connector-curvature="0"
         style="fill:#000000;stroke-width:0" /><path
         id="path4364"
         d="m 245.81,657.24 0,0.07 0,0.05 0,0.06 -0.01,0.06 -0.01,0.05 0,0.05 -0.01,0.06 -0.01,0.04 -0.01,0.05 -0.02,0.05 -0.01,0.04 -0.02,0.04 -0.01,0.04 -0.02,0.04 -0.02,0.04 -0.02,0.03 -0.02,0.04 -0.02,0.03 -0.03,0.02 -0.02,0.03 -0.03,0.03 -0.02,0.02 -0.03,0.02 -0.03,0.02 -0.03,0.01 -0.03,0.02 -0.03,0.01 -0.04,0.01 -0.03,0.01 -0.03,0 -0.04,0.01 -0.03,0 c -0.33,0 -0.53,-0.25 -0.53,-0.53 0,-0.27 0.2,-0.53 0.53,-0.53 0.11,0 0.24,0.05 0.34,0.13 0.03,0.02 0.04,0.03 0.05,0.03 0.01,0 0.02,-0.01 0.02,-0.15 0,-0.73 -0.35,-1.33 -0.67,-1.65 -0.11,-0.11 -0.11,-0.13 -0.11,-0.16 0,-0.07 0.05,-0.11 0.1,-0.11 0.11,0 0.9,0.76 0.9,1.92 z"
         inkscape:connector-curvature="0"
         style="fill:#000000;stroke-width:0" /><path
         id="path4366"
         d="m 253.06,661.02 0,0.01 0,0 0,0.01 0.01,0 0,0.02 0,0.01 0,0.01 0.01,0.01 0,0.01 0,0 0,0.01 0.01,0.01 0,0.01 0,0.01 0,0 0,0.01 0,0 0,0.01 0,0.01 0.01,0 0,0.01 0,0 0,0.01 0,0.01 0,0.01 0,0.01 0,0.01 0,0.01 0,0 0,0.01 c 0,0.18 -0.14,0.27 -0.29,0.27 -0.1,0 -0.26,-0.06 -0.35,-0.21 -0.02,-0.05 -0.1,-0.36 -0.14,-0.54 -0.07,-0.26 -0.14,-0.53 -0.2,-0.79 l -0.44,-1.79 c -0.04,-0.15 -0.47,-0.85 -1.13,-0.85 -0.51,0 -0.62,0.44 -0.62,0.81 0,0.46 0.17,1.07 0.51,1.95 0.16,0.4 0.2,0.51 0.2,0.71 0,0.45 -0.32,0.82 -0.81,0.82 -0.95,0 -1.32,-1.45 -1.32,-1.53 0,-0.1 0.1,-0.1 0.12,-0.1 0.1,0 0.11,0.02 0.16,0.17 0.27,0.94 0.67,1.24 1.01,1.24 0.08,0 0.24,0 0.24,-0.32 0,-0.25 -0.09,-0.51 -0.16,-0.7 -0.4,-1.05 -0.58,-1.61 -0.58,-2.08 0,-0.89 0.63,-1.18 1.21,-1.18 0.39,0 0.73,0.16 1.01,0.44 -0.13,-0.51 -0.25,-1 -0.65,-1.53 -0.26,-0.33 -0.64,-0.62 -1.09,-0.62 -0.14,0 -0.59,0.03 -0.76,0.41 0.16,0 0.29,0 0.43,0.12 0.1,0.09 0.2,0.22 0.2,0.41 0,0.31 -0.27,0.35 -0.37,0.35 -0.23,0 -0.56,-0.16 -0.56,-0.65 0,-0.49 0.44,-0.86 1.06,-0.86 1.02,0 2.05,0.9 2.32,2.02 z"
         inkscape:connector-curvature="0"
         style="fill:#000000;stroke-width:0" /><path
         id="path4368"
         d="m 256.34,659.72 0,0.07 0,0.08 -0.01,0.08 0,0.08 -0.01,0.17 -0.01,0.17 -0.01,0.18 -0.03,0.19 -0.02,0.2 -0.03,0.2 -0.04,0.2 -0.05,0.21 -0.05,0.21 -0.06,0.21 -0.07,0.21 -0.08,0.21 -0.05,0.11 -0.04,0.11 -0.05,0.1 -0.05,0.11 c -0.59,1.22 -1.45,1.86 -1.55,1.86 -0.06,0 -0.1,-0.03 -0.1,-0.09 0,-0.03 0,-0.05 0.19,-0.23 0.97,-0.99 1.54,-2.57 1.54,-4.64 0,-1.7 -0.37,-3.45 -1.6,-4.7 -0.13,-0.12 -0.13,-0.14 -0.13,-0.17 0,-0.06 0.04,-0.1 0.1,-0.1 0.1,0 0.99,0.68 1.58,1.94 0.51,1.09 0.63,2.19 0.63,3.03 z"
         inkscape:connector-curvature="0"
         style="fill:#000000;stroke-width:0" /></g>    <path
       style="fill:none;stroke:#000000;stroke-width:1px;stroke-linecap:butt;stroke-linejoin:miter;stroke-opacity:1;marker-end:url(#Arrow1Mend)"
       d="m 317.14286,390.57647 0,-193.57143"
       id="path4450"
       inkscape:connector-curvature="0" />
    <path
       style="fill:none;stroke:#000000;stroke-width:1px;stroke-linecap:butt;stroke-linejoin:miter;stroke-opacity:1;marker-start:url(#Arrow1Mstart)"
       d="m 70.496187,188.1421 19.28572,0"
       id="path4452"
       inkscape:connector-curvature="0" />
    <path
       style="fill:none;stroke:#000000;stroke-width:1;stroke-linecap:butt;stroke-linejoin:miter;stroke-miterlimit:4;stroke-opacity:1;stroke-dasharray:none;marker-start:url(#Arrow1Mstart)"
       d="m 99.919631,353.90459 43.727809,0"
       id="path4452-1"
       inkscape:connector-curvature="0" />
    <path
       sodipodi:type="arc"
       style="color:#000000;fill:#000000;stroke:#000000;stroke-width:1;stroke-linecap:round;stroke-linejoin:bevel;stroke-miterlimit:4;stroke-opacity:1;stroke-dasharray:none;stroke-dashoffset:0;marker:none;visibility:visible;display:inline;overflow:visible;enable-background:accumulate;fill-opacity:1"
       id="path5110"
       sodipodi:cx="316.60715"
       sodipodi:cy="223.61218"
       sodipodi:rx="1.9642857"
       sodipodi:ry="1.9642857"
       d="m 318.57143,223.61218 a 1.9642857,1.9642857 0 1 1 -3.92857,0 1.9642857,1.9642857 0 1 1 3.92857,0 z"
       transform="matrix(0.52898551,0,0,0.52898551,149.75156,104.34243)" />
    <path
       style="fill:none;stroke:#000000;stroke-width:0.99992681px;stroke-linecap:butt;stroke-linejoin:miter;stroke-opacity:1;marker-start:url(#Arrow1Mstart-2)"
       d="m 50.180025,249.25098 -16.183201,1.60536"
       id="path5112"
       inkscape:connector-curvature="0" />
    <path
       style="fill:none;stroke:#000000;stroke-width:0.99992681px;stroke-linecap:butt;stroke-linejoin:miter;stroke-opacity:1;marker-start:url(#Arrow1Mstart-2)"
       d="M 61.327864,247.7905 77.15144,246.22082"
       id="path5114"
       inkscape:connector-curvature="0" />
    <g
       id="content"
       transform="matrix(1.3326493,0,0,-1.3326493,-206.67501,1060.5012)"
       xml:space="preserve"
       stroke-miterlimit="10.433"
       font-style="normal"
       font-variant="normal"
       font-weight="normal"
       font-stretch="normal"
       font-size-adjust="none"
       letter-spacing="normal"
       word-spacing="normal"
       ns0:text="Esfera Gaussiana \\\\\nde referencia"
       ns0:preamble="/home/ccuartas/Dropbox/Libros Opt. Fourier/Avance1/Im\xc3\xa1genes/preamble.tex"
       style="font-style:normal;font-variant:normal;font-weight:normal;font-stretch:normal;letter-spacing:normal;word-spacing:normal;text-anchor:start;fill:none;stroke:#000000;stroke-linecap:butt;stroke-linejoin:miter;stroke-miterlimit:10.43299961;stroke-opacity:1;stroke-dasharray:none;stroke-dashoffset:0"><path
         style="fill:#000000;stroke-width:0"
         inkscape:connector-curvature="0"
         d="m 224.79,658.01 -0.01,-0.03 0,-0.03 0,-0.03 0,-0.03 0,-0.03 0,-0.03 -0.01,-0.02 0,-0.02 -0.01,-0.03 0,-0.02 -0.01,-0.02 -0.01,-0.02 -0.01,-0.01 -0.02,-0.02 -0.01,-0.01 -0.02,-0.02 -0.02,-0.01 -0.02,-0.01 -0.02,-0.01 -0.01,0 -0.01,-0.01 -0.02,0 -0.01,-0.01 -0.02,0 -0.01,-0.01 -0.02,0 -0.02,0 -0.02,-0.01 -0.01,0 -0.03,0 -0.02,-0.01 -0.02,0 -0.02,0 -0.02,0 -0.03,-0.01 -0.02,0 -0.03,0 -0.03,0 -0.03,0 -0.02,0 -0.03,0 -0.04,-0.01 -0.03,0 -0.03,0 -0.04,0 -0.03,0 h -0.24 v -0.31 h 5.74 l 0.42,2.57 h -0.25 c -0.25,-1.53 -0.48,-2.26 -2.19,-2.26 h -1.32 c -0.47,0 -0.49,0.07 -0.49,0.4 v 2.65 h 0.9 c 0.96,0 1.07,-0.31 1.07,-1.16 h 0.25 v 2.63 h -0.25 c 0,-0.85 -0.11,-1.16 -1.07,-1.16 h -0.9 v 2.38 c 0,0.33 0.02,0.4 0.49,0.4 h 1.28 c 1.52,0 1.79,-0.54 1.95,-1.92 h 0.25 l -0.28,2.23 h -5.6 v -0.31 H 224 c 0.76,0 0.79,-0.11 0.79,-0.46 z"
         id="path5742" /><path
         style="fill:#000000;stroke-width:0"
         inkscape:connector-curvature="0"
         d="m 232.28,659.16 0.02,0 0.03,-0.01 0.03,0 0.03,-0.01 0.03,-0.01 0.04,-0.01 0.04,-0.01 0.04,-0.01 0.04,-0.01 0.04,-0.01 0.04,-0.02 0.05,-0.02 0.04,-0.01 0.04,-0.03 0.05,-0.02 0.04,-0.02 0.04,-0.03 0.05,-0.03 0.04,-0.03 0.04,-0.03 0.04,-0.03 0.03,-0.04 0.03,-0.04 0.04,-0.04 0.02,-0.05 0.02,-0.02 0.01,-0.03 0.01,-0.02 0.01,-0.03 0.01,-0.02 0.01,-0.03 0.01,-0.03 0.01,-0.02 0,-0.03 0.01,-0.03 0,-0.03 0,-0.04 0.01,-0.03 0,-0.03 c 0,-0.51 -0.35,-0.91 -1.13,-0.91 -0.83,0 -1.19,0.57 -1.38,1.42 -0.03,0.12 -0.04,0.16 -0.14,0.16 -0.13,0 -0.13,-0.07 -0.13,-0.25 v -1.31 c 0,-0.16 0,-0.23 0.11,-0.23 0.05,0 0.06,0.01 0.25,0.19 0.02,0.02 0.02,0.04 0.2,0.23 0.44,-0.41 0.88,-0.42 1.09,-0.42 1.15,0 1.6,0.66 1.6,1.38 0,0.52 -0.29,0.82 -0.41,0.94 -0.33,0.32 -0.72,0.4 -1.14,0.48 -0.56,0.11 -1.22,0.23 -1.22,0.81 0,0.35 0.26,0.76 1.11,0.76 1.1,0 1.15,-0.9 1.17,-1.21 0.01,-0.08 0.1,-0.08 0.12,-0.08 0.12,0 0.12,0.05 0.12,0.23 v 1.01 c 0,0.17 0,0.23 -0.1,0.23 -0.05,0 -0.07,0 -0.2,-0.11 -0.03,-0.04 -0.13,-0.13 -0.17,-0.16 -0.38,0.27 -0.79,0.27 -0.94,0.27 -1.21,0 -1.59,-0.66 -1.59,-1.22 0,-0.34 0.16,-0.62 0.43,-0.84 0.32,-0.26 0.6,-0.32 1.31,-0.46 z"
         id="path5744" /><path
         style="fill:#000000;stroke-width:0"
         inkscape:connector-curvature="0"
         d="m 235.88,661.52 v 1.15 c 0,0.87 0.48,1.35 0.92,1.35 0.03,0 0.18,0 0.33,-0.07 -0.12,-0.04 -0.3,-0.17 -0.3,-0.42 0,-0.23 0.16,-0.42 0.43,-0.42 0.28,0 0.43,0.19 0.43,0.43 0,0.37 -0.36,0.7 -0.89,0.7 -0.7,0 -1.54,-0.53 -1.54,-1.58 v -1.14 h -0.79 v -0.31 h 0.79 v -3.22 c 0,-0.45 -0.11,-0.45 -0.78,-0.45 v -0.31 c 0.39,0.01 0.86,0.04 1.13,0.04 0.4,0 0.87,0 1.27,-0.04 v 0.31 h -0.21 c -0.74,0 -0.76,0.11 -0.76,0.47 v 3.2 h 1.14 v 0.31 z"
         id="path5746" /><path
         style="fill:#000000;stroke-width:0"
         inkscape:connector-curvature="0"
         d="m 238.29,659.53 0.01,0.21 c 0.06,1.48 0.9,1.73 1.23,1.73 1.03,0 1.13,-1.34 1.13,-1.73 h -2.36 l -0.01,-0.21 h 2.78 c 0.22,0 0.25,0 0.25,0.21 0,0.98 -0.54,1.94 -1.79,1.94 -1.15,0 -2.07,-1.02 -2.07,-2.26 0,-1.33 1.05,-2.29 2.19,-2.29 1.22,0 1.67,1.1 1.67,1.29 0,0.1 -0.08,0.12 -0.13,0.12 -0.09,0 -0.11,-0.06 -0.13,-0.14 -0.35,-1.03 -1.25,-1.03 -1.35,-1.03 -0.49,0 -0.89,0.3 -1.12,0.67 -0.3,0.48 -0.3,1.13 -0.3,1.49 z"
         id="path5748" /><path
         style="fill:#000000;stroke-width:0"
         inkscape:connector-curvature="0"
         d="m 243.27,660.53 v 1.1 l -1.38,-0.11 v -0.31 c 0.7,0 0.78,-0.07 0.78,-0.56 v -2.66 c 0,-0.45 -0.11,-0.45 -0.78,-0.45 v -0.31 c 0.39,0.01 0.86,0.04 1.14,0.04 0.39,0 0.86,0 1.26,-0.04 v 0.31 h -0.21 c -0.73,0 -0.76,0.11 -0.76,0.47 v 1.53 c 0,0.98 0.42,1.87 1.18,1.87 0.07,0 0.09,0 0.11,-0.01 -0.03,-0.01 -0.23,-0.13 -0.23,-0.39 0,-0.28 0.21,-0.43 0.43,-0.43 0.18,0 0.43,0.12 0.43,0.44 0,0.32 -0.31,0.61 -0.74,0.61 -0.73,0 -1.09,-0.67 -1.23,-1.1 z"
         id="path5750" /><path
         style="fill:#000000;stroke-width:0"
         inkscape:connector-curvature="0"
         d="m 248.83,657.99 0,-0.04 0.01,-0.03 0.01,-0.04 0,-0.04 0.01,-0.04 0.02,-0.03 0.01,-0.04 0.01,-0.03 0.02,-0.04 0.01,-0.03 0.02,-0.04 0.02,-0.03 0.02,-0.03 0.02,-0.04 0.02,-0.03 0.03,-0.03 0.02,-0.02 0.03,-0.03 0.03,-0.03 0.02,-0.02 0.03,-0.02 0.04,-0.03 0.03,-0.02 0.03,-0.01 0.04,-0.02 0.03,-0.01 0.04,-0.02 0.04,-0.01 0.04,0 0.04,-0.01 0.04,0 0.04,-0.01 c 0.21,0 0.82,0.14 0.82,0.95 v 0.55 h -0.25 v -0.55 c 0,-0.58 -0.25,-0.64 -0.36,-0.64 -0.32,0 -0.36,0.45 -0.36,0.5 v 1.99 c 0,0.41 0,0.8 -0.36,1.17 -0.39,0.39 -0.89,0.54 -1.36,0.54 -0.82,0 -1.51,-0.46 -1.51,-1.12 0,-0.29 0.2,-0.46 0.46,-0.46 0.28,0 0.46,0.19 0.46,0.45 0,0.12 -0.05,0.45 -0.51,0.46 0.27,0.35 0.76,0.46 1.08,0.46 0.48,0 1.05,-0.39 1.05,-1.27 v -0.37 -0.21 -0.99 c 0,-0.95 -0.72,-1.29 -1.16,-1.29 -0.49,0 -0.9,0.35 -0.9,0.85 0,0.54 0.42,1.37 2.06,1.43 h 0 v 0.21 c -0.51,-0.03 -1.2,-0.06 -1.83,-0.36 -0.75,-0.34 -1,-0.85 -1,-1.29 0,-0.81 0.97,-1.05 1.6,-1.05 0.65,0 1.11,0.39 1.3,0.86 z"
         id="path5752" /><path
         style="fill:#000000;stroke-width:0"
         inkscape:connector-curvature="0"
         d="m 259.71,657.86 0.02,-0.02 0.01,-0.02 0.02,-0.02 0.01,-0.03 0.02,-0.02 0.02,-0.03 0.02,-0.02 0.02,-0.03 0.03,-0.02 0.02,-0.03 0.04,-0.05 0.05,-0.05 0.05,-0.05 0.02,-0.02 0.03,-0.03 0.02,-0.02 0.03,-0.02 0.02,-0.02 0.02,-0.02 0.02,-0.01 0.02,-0.02 0.02,-0.01 0.02,-0.02 0.02,-0.01 0.02,-0.01 0.01,-0.01 0.02,0 0,0 0.01,0 0.01,0 0,-0.01 c 0.09,0 0.09,0.08 0.09,0.23 v 1.73 c 0,0.39 0.04,0.44 0.69,0.44 v 0.31 c -0.37,-0.01 -0.92,-0.03 -1.22,-0.03 -0.39,0 -1.24,0 -1.6,0.03 v -0.31 h 0.32 c 0.9,0 0.93,-0.11 0.93,-0.48 v -0.63 c 0,-1.12 -1.27,-1.21 -1.55,-1.21 -0.64,0 -2.61,0.35 -2.61,3.31 0,2.97 1.96,3.3 2.55,3.3 1.07,0 1.97,-0.89 2.17,-2.35 0.02,-0.14 0.02,-0.17 0.16,-0.17 0.16,0 0.16,0.03 0.16,0.24 V 664 c 0,0.17 0,0.24 -0.11,0.24 -0.04,0 -0.08,0 -0.16,-0.12 l -0.5,-0.74 c -0.31,0.32 -0.85,0.86 -1.84,0.86 -1.85,0 -3.46,-1.57 -3.46,-3.61 0,-2.03 1.59,-3.61 3.48,-3.61 0.73,0 1.53,0.26 1.86,0.84 z"
         id="path5754" /><path
         style="fill:#000000;stroke-width:0"
         inkscape:connector-curvature="0"
         d="m 264.95,657.99 0,-0.04 0.01,-0.03 0,-0.04 0.01,-0.04 0.01,-0.04 0.01,-0.03 0.01,-0.04 0.02,-0.03 0.01,-0.04 0.02,-0.03 0.02,-0.04 0.02,-0.03 0.02,-0.03 0.02,-0.04 0.02,-0.03 0.02,-0.03 0.03,-0.02 0.02,-0.03 0.03,-0.03 0.03,-0.02 0.03,-0.02 0.03,-0.03 0.04,-0.02 0.03,-0.01 0.03,-0.02 0.04,-0.01 0.04,-0.02 0.04,-0.01 0.04,0 0.04,-0.01 0.04,0 0.04,-0.01 c 0.21,0 0.82,0.14 0.82,0.95 v 0.55 h -0.25 v -0.55 c 0,-0.58 -0.25,-0.64 -0.36,-0.64 -0.33,0 -0.37,0.45 -0.37,0.5 v 1.99 c 0,0.41 0,0.8 -0.36,1.17 -0.38,0.39 -0.88,0.54 -1.36,0.54 -0.82,0 -1.5,-0.46 -1.5,-1.12 0,-0.29 0.2,-0.46 0.46,-0.46 0.28,0 0.45,0.19 0.45,0.45 0,0.12 -0.05,0.45 -0.5,0.46 0.27,0.35 0.75,0.46 1.07,0.46 0.49,0 1.06,-0.39 1.06,-1.27 v -0.37 -0.21 -0.99 c 0,-0.95 -0.72,-1.29 -1.17,-1.29 -0.49,0 -0.89,0.35 -0.89,0.85 0,0.54 0.41,1.37 2.06,1.43 h 0 v 0.21 c -0.51,-0.03 -1.21,-0.06 -1.83,-0.36 -0.75,-0.34 -1,-0.85 -1,-1.29 0,-0.81 0.97,-1.05 1.59,-1.05 0.66,0 1.12,0.39 1.31,0.86 z"
         id="path5756" /><path
         style="fill:#000000;stroke-width:0"
         inkscape:connector-curvature="0"
         d="m 270.5,658.02 v -0.89 l 1.44,0.1 v 0.31 c -0.7,0 -0.78,0.07 -0.78,0.56 v 3.53 l -1.46,-0.11 v -0.31 c 0.69,0 0.77,-0.07 0.77,-0.56 v -1.77 c 0,-0.86 -0.47,-1.54 -1.2,-1.54 -0.84,0 -0.88,0.47 -0.88,0.99 v 3.3 l -1.46,-0.11 v -0.31 c 0.78,0 0.78,-0.03 0.78,-0.92 v -1.49 c 0,-0.77 0,-1.67 1.51,-1.67 0.56,0 0.99,0.27 1.28,0.89 z"
         id="path5758" /><path
         style="fill:#000000;stroke-width:0"
         inkscape:connector-curvature="0"
         d="m 274.22,659.16 0.02,0 0.03,-0.01 0.02,0 0.04,-0.01 0.03,-0.01 0.03,-0.01 0.04,-0.01 0.04,-0.01 0.04,-0.01 0.05,-0.01 0.04,-0.02 0.04,-0.02 0.05,-0.01 0.04,-0.03 0.04,-0.02 0.05,-0.02 0.04,-0.03 0.04,-0.03 0.04,-0.03 0.04,-0.03 0.04,-0.03 0.04,-0.04 0.03,-0.04 0.03,-0.04 0.03,-0.05 0.01,-0.02 0.02,-0.03 0.01,-0.02 0.01,-0.03 0.01,-0.02 0.01,-0.03 0.01,-0.03 0,-0.02 0.01,-0.03 0,-0.03 0.01,-0.03 0,-0.04 0,-0.03 0,-0.03 c 0,-0.51 -0.35,-0.91 -1.12,-0.91 -0.84,0 -1.2,0.57 -1.38,1.42 -0.03,0.12 -0.04,0.16 -0.14,0.16 -0.13,0 -0.13,-0.07 -0.13,-0.25 v -1.31 c 0,-0.16 0,-0.23 0.11,-0.23 0.05,0 0.06,0.01 0.25,0.19 0.02,0.02 0.02,0.04 0.19,0.23 0.44,-0.41 0.89,-0.42 1.1,-0.42 1.14,0 1.6,0.66 1.6,1.38 0,0.52 -0.3,0.82 -0.42,0.94 -0.33,0.32 -0.71,0.4 -1.13,0.48 -0.56,0.11 -1.23,0.23 -1.23,0.81 0,0.35 0.26,0.76 1.12,0.76 1.09,0 1.14,-0.9 1.16,-1.21 0.01,-0.08 0.1,-0.08 0.12,-0.08 0.13,0 0.13,0.05 0.13,0.23 v 1.01 c 0,0.17 0,0.23 -0.11,0.23 -0.05,0 -0.07,0 -0.2,-0.11 -0.03,-0.04 -0.13,-0.13 -0.17,-0.16 -0.37,0.27 -0.78,0.27 -0.93,0.27 -1.21,0 -1.59,-0.66 -1.59,-1.22 0,-0.34 0.16,-0.62 0.42,-0.84 0.32,-0.26 0.6,-0.32 1.32,-0.46 z"
         id="path5760" /><path
         style="fill:#000000;stroke-width:0"
         inkscape:connector-curvature="0"
         d="m 278.15,659.16 0.02,0 0.03,-0.01 0.02,0 0.04,-0.01 0.03,-0.01 0.03,-0.01 0.04,-0.01 0.04,-0.01 0.04,-0.01 0.04,-0.01 0.05,-0.02 0.04,-0.02 0.05,-0.01 0.04,-0.03 0.04,-0.02 0.05,-0.02 0.04,-0.03 0.04,-0.03 0.04,-0.03 0.04,-0.03 0.04,-0.03 0.04,-0.04 0.03,-0.04 0.03,-0.04 0.03,-0.05 0.01,-0.02 0.02,-0.03 0.01,-0.02 0.01,-0.03 0.01,-0.02 0.01,-0.03 0,-0.03 0.01,-0.02 0.01,-0.03 0,-0.03 0.01,-0.03 0,-0.04 0,-0.03 0,-0.03 c 0,-0.51 -0.35,-0.91 -1.12,-0.91 -0.84,0 -1.2,0.57 -1.39,1.42 -0.03,0.12 -0.03,0.16 -0.13,0.16 -0.13,0 -0.13,-0.07 -0.13,-0.25 v -1.31 c 0,-0.16 0,-0.23 0.11,-0.23 0.05,0 0.06,0.01 0.25,0.19 0.02,0.02 0.02,0.04 0.19,0.23 0.44,-0.41 0.89,-0.42 1.1,-0.42 1.14,0 1.6,0.66 1.6,1.38 0,0.52 -0.3,0.82 -0.42,0.94 -0.33,0.32 -0.71,0.4 -1.13,0.48 -0.56,0.11 -1.23,0.23 -1.23,0.81 0,0.35 0.26,0.76 1.12,0.76 1.09,0 1.14,-0.9 1.16,-1.21 0.01,-0.08 0.1,-0.08 0.12,-0.08 0.13,0 0.13,0.05 0.13,0.23 v 1.01 c 0,0.17 0,0.23 -0.11,0.23 -0.05,0 -0.07,0 -0.2,-0.11 -0.03,-0.04 -0.13,-0.13 -0.17,-0.16 -0.37,0.27 -0.78,0.27 -0.93,0.27 -1.21,0 -1.59,-0.66 -1.59,-1.22 0,-0.34 0.16,-0.62 0.42,-0.84 0.32,-0.26 0.6,-0.32 1.32,-0.46 z"
         id="path5762" /><path
         style="fill:#000000;stroke-width:0"
         inkscape:connector-curvature="0"
         d="m 281.77,661.63 -1.39,-0.11 v -0.31 c 0.64,0 0.73,-0.06 0.73,-0.55 v -2.67 c 0,-0.45 -0.11,-0.45 -0.77,-0.45 v -0.31 c 0.31,0.01 0.85,0.04 1.09,0.04 0.35,0 0.7,-0.03 1.03,-0.04 v 0.31 c -0.65,0 -0.69,0.05 -0.69,0.44 z"
         id="path5764" /><path
         style="fill:#000000;stroke-width:0"
         inkscape:connector-curvature="0"
         d="m 281.81,663.35 0,0.03 0,0.03 -0.01,0.03 0,0.03 -0.01,0.02 -0.01,0.03 -0.01,0.03 -0.01,0.02 -0.01,0.02 -0.01,0.03 -0.01,0.02 -0.02,0.02 -0.01,0.02 -0.02,0.02 -0.01,0.02 -0.02,0.02 -0.02,0.01 -0.02,0.02 -0.02,0.01 -0.02,0.02 -0.02,0.01 -0.02,0.01 -0.03,0.01 -0.02,0.01 -0.02,0.01 -0.03,0.01 -0.02,0.01 -0.03,0 -0.02,0.01 -0.03,0 -0.02,0 -0.03,0 c -0.31,0 -0.53,-0.27 -0.53,-0.53 0,-0.26 0.22,-0.52 0.53,-0.52 0.28,0 0.53,0.21 0.53,0.52 z"
         id="path5766" /><path
         style="fill:#000000;stroke-width:0"
         inkscape:connector-curvature="0"
         d="m 286.09,657.99 0,-0.04 0.01,-0.03 0.01,-0.04 0,-0.04 0.01,-0.04 0.01,-0.03 0.02,-0.04 0.01,-0.03 0.02,-0.04 0.01,-0.03 0.02,-0.04 0.02,-0.03 0.02,-0.03 0.02,-0.04 0.02,-0.03 0.03,-0.03 0.02,-0.02 0.03,-0.03 0.02,-0.03 0.03,-0.02 0.03,-0.02 0.04,-0.03 0.03,-0.02 0.03,-0.01 0.04,-0.02 0.03,-0.01 0.04,-0.02 0.04,-0.01 0.04,0 0.04,-0.01 0.04,0 0.04,-0.01 c 0.21,0 0.82,0.14 0.82,0.95 v 0.55 h -0.25 v -0.55 c 0,-0.58 -0.25,-0.64 -0.36,-0.64 -0.33,0 -0.37,0.45 -0.37,0.5 v 1.99 c 0,0.41 0,0.8 -0.35,1.17 -0.39,0.39 -0.89,0.54 -1.37,0.54 -0.81,0 -1.5,-0.46 -1.5,-1.12 0,-0.29 0.2,-0.46 0.46,-0.46 0.28,0 0.46,0.19 0.46,0.45 0,0.12 -0.05,0.45 -0.51,0.46 0.27,0.35 0.76,0.46 1.07,0.46 0.49,0 1.06,-0.39 1.06,-1.27 v -0.37 -0.21 -0.99 c 0,-0.95 -0.72,-1.29 -1.17,-1.29 -0.48,0 -0.89,0.35 -0.89,0.85 0,0.54 0.42,1.37 2.06,1.43 h 0 v 0.21 c -0.51,-0.03 -1.2,-0.06 -1.83,-0.36 -0.75,-0.34 -1,-0.85 -1,-1.29 0,-0.81 0.97,-1.05 1.6,-1.05 0.65,0 1.11,0.39 1.3,0.86 z"
         id="path5768" /><path
         style="fill:#000000;stroke-width:0"
         inkscape:connector-curvature="0"
         d="m 288.85,660.65 v -2.66 c 0,-0.45 -0.11,-0.45 -0.77,-0.45 v -0.31 c 0.34,0.01 0.85,0.04 1.12,0.04 0.26,0 0.78,-0.03 1.11,-0.04 v 0.31 c -0.66,0 -0.77,0 -0.77,0.45 v 1.83 c 0,1.03 0.7,1.59 1.34,1.59 0.63,0 0.74,-0.54 0.74,-1.11 v -2.31 c 0,-0.45 -0.11,-0.45 -0.78,-0.45 v -0.31 c 0.35,0.01 0.86,0.04 1.12,0.04 0.26,0 0.78,-0.03 1.12,-0.04 v 0.31 c -0.52,0 -0.77,0 -0.78,0.3 v 1.9 c 0,0.85 0,1.16 -0.31,1.52 -0.13,0.17 -0.46,0.37 -1.04,0.37 -0.73,0 -1.19,-0.43 -1.47,-1.05 v 1.05 l -1.4,-0.11 v -0.31 c 0.69,0 0.77,-0.07 0.77,-0.56 z"
         id="path5770" /><path
         style="fill:#000000;stroke-width:0"
         inkscape:connector-curvature="0"
         d="m 296.61,657.99 0,-0.04 0.01,-0.03 0,-0.04 0.01,-0.04 0.01,-0.04 0.01,-0.03 0.01,-0.04 0.02,-0.03 0.01,-0.04 0.02,-0.03 0.02,-0.04 0.01,-0.03 0.02,-0.03 0.03,-0.04 0.02,-0.03 0.02,-0.03 0.03,-0.02 0.02,-0.03 0.03,-0.03 0.03,-0.02 0.03,-0.02 0.03,-0.03 0.03,-0.02 0.04,-0.01 0.03,-0.02 0.04,-0.01 0.04,-0.02 0.03,-0.01 0.04,0 0.05,-0.01 0.04,0 0.04,-0.01 c 0.21,0 0.82,0.14 0.82,0.95 v 0.55 h -0.25 v -0.55 c 0,-0.58 -0.25,-0.64 -0.36,-0.64 -0.33,0 -0.37,0.45 -0.37,0.5 v 1.99 c 0,0.41 0,0.8 -0.36,1.17 -0.38,0.39 -0.88,0.54 -1.36,0.54 -0.82,0 -1.5,-0.46 -1.5,-1.12 0,-0.29 0.2,-0.46 0.46,-0.46 0.27,0 0.45,0.19 0.45,0.45 0,0.12 -0.05,0.45 -0.5,0.46 0.26,0.35 0.75,0.46 1.07,0.46 0.49,0 1.06,-0.39 1.06,-1.27 v -0.37 -0.21 -0.99 c 0,-0.95 -0.72,-1.29 -1.17,-1.29 -0.49,0 -0.89,0.35 -0.89,0.85 0,0.54 0.41,1.37 2.06,1.43 h 0 v 0.21 c -0.51,-0.03 -1.21,-0.06 -1.84,-0.36 -0.74,-0.34 -0.99,-0.85 -0.99,-1.29 0,-0.81 0.96,-1.05 1.59,-1.05 0.66,0 1.12,0.39 1.31,0.86 z"
         id="path5772" /><path
         style="fill:#000000;stroke-width:0"
         inkscape:connector-curvature="0"
         d="m 227.21,645.83 v -0.66 l 1.47,0.11 v 0.31 c -0.7,0 -0.78,0.07 -0.78,0.55 v 6.03 l -1.43,-0.1 v -0.31 c 0.69,0 0.77,-0.07 0.77,-0.56 v -2.15 c -0.29,0.36 -0.71,0.62 -1.25,0.62 l 0.04,-0.22 c 0.35,0 0.76,-0.15 1.07,-0.59 0.11,-0.17 0.11,-0.19 0.11,-0.37 h 0 v -2.04 c 0,-0.18 0,-0.2 -0.11,-0.36 -0.3,-0.48 -0.74,-0.7 -1.17,-0.7 -0.45,0 -0.81,0.26 -1.05,0.64 -0.25,0.4 -0.28,0.97 -0.28,1.38 0,0.36 0.02,0.96 0.3,1.41 0.21,0.3 0.59,0.63 1.13,0.63 l -0.04,0.22 c -1.17,0 -2.22,-0.97 -2.22,-2.25 0,-1.27 0.97,-2.25 2.11,-2.25 0.64,0 1.08,0.34 1.33,0.66 z"
         id="path5774" /><path
         style="fill:#000000;stroke-width:0"
         inkscape:connector-curvature="0"
         d="m 230.07,647.58 0.01,0.2 c 0.06,1.48 0.9,1.73 1.24,1.73 1.02,0 1.12,-1.34 1.12,-1.73 h -2.36 l -0.01,-0.2 h 2.78 c 0.22,0 0.25,0 0.25,0.2 0,0.99 -0.54,1.95 -1.78,1.95 -1.16,0 -2.07,-1.02 -2.07,-2.26 0,-1.34 1.04,-2.3 2.18,-2.3 1.22,0 1.67,1.1 1.67,1.29 0,0.1 -0.08,0.12 -0.13,0.12 -0.09,0 -0.11,-0.06 -0.13,-0.14 -0.35,-1.02 -1.25,-1.02 -1.35,-1.02 -0.49,0 -0.89,0.3 -1.12,0.67 -0.3,0.47 -0.3,1.13 -0.3,1.49 z"
         id="path5776" /><path
         style="fill:#000000;stroke-width:0"
         inkscape:connector-curvature="0"
         d="m 238.37,648.58 v 1.09 l -1.38,-0.11 v -0.31 c 0.7,0 0.78,-0.07 0.78,-0.55 v -2.67 c 0,-0.44 -0.11,-0.44 -0.78,-0.44 v -0.31 c 0.39,0.01 0.86,0.03 1.13,0.03 0.4,0 0.87,0 1.27,-0.03 v 0.31 h -0.21 c -0.74,0 -0.76,0.11 -0.76,0.46 v 1.54 c 0,0.98 0.42,1.86 1.18,1.86 0.07,0 0.09,0 0.11,-0.01 -0.03,-0.01 -0.23,-0.13 -0.23,-0.39 0,-0.27 0.21,-0.42 0.43,-0.42 0.18,0 0.42,0.12 0.42,0.44 0,0.31 -0.31,0.6 -0.73,0.6 -0.73,0 -1.09,-0.66 -1.23,-1.09 z"
         id="path5778" /><path
         style="fill:#000000;stroke-width:0"
         inkscape:connector-curvature="0"
         d="m 241.72,647.58 0.01,0.2 c 0.06,1.48 0.89,1.73 1.23,1.73 1.03,0 1.13,-1.34 1.13,-1.73 h -2.36 l -0.01,-0.2 h 2.77 c 0.22,0 0.25,0 0.25,0.2 0,0.99 -0.53,1.95 -1.78,1.95 -1.15,0 -2.07,-1.02 -2.07,-2.26 0,-1.34 1.05,-2.3 2.19,-2.3 1.22,0 1.66,1.1 1.66,1.29 0,0.1 -0.08,0.12 -0.13,0.12 -0.09,0 -0.1,-0.06 -0.12,-0.14 -0.35,-1.02 -1.25,-1.02 -1.35,-1.02 -0.5,0 -0.89,0.3 -1.12,0.67 -0.3,0.47 -0.3,1.13 -0.3,1.49 z"
         id="path5780" /><path
         style="fill:#000000;stroke-width:0"
         inkscape:connector-curvature="0"
         d="m 246.78,649.56 v 1.15 c 0,0.88 0.48,1.36 0.92,1.36 0.03,0 0.18,0 0.33,-0.08 -0.12,-0.03 -0.3,-0.16 -0.3,-0.41 0,-0.23 0.16,-0.43 0.43,-0.43 0.29,0 0.43,0.2 0.43,0.44 0,0.37 -0.36,0.69 -0.89,0.69 -0.7,0 -1.54,-0.52 -1.54,-1.58 v -1.14 h -0.79 v -0.31 h 0.79 v -3.22 c 0,-0.44 -0.11,-0.44 -0.78,-0.44 v -0.31 c 0.39,0.01 0.86,0.03 1.13,0.03 0.4,0 0.87,0 1.27,-0.03 v 0.31 h -0.21 c -0.74,0 -0.76,0.11 -0.76,0.46 v 3.2 h 1.14 v 0.31 z"
         id="path5782" /><path
         style="fill:#000000;stroke-width:0"
         inkscape:connector-curvature="0"
         d="m 249.19,647.58 0.01,0.2 c 0.06,1.48 0.9,1.73 1.23,1.73 1.03,0 1.13,-1.34 1.13,-1.73 h -2.36 l -0.01,-0.2 h 2.78 c 0.22,0 0.24,0 0.24,0.2 0,0.99 -0.53,1.95 -1.78,1.95 -1.15,0 -2.06,-1.02 -2.06,-2.26 0,-1.34 1.04,-2.3 2.18,-2.3 1.22,0 1.66,1.1 1.66,1.29 0,0.1 -0.07,0.12 -0.12,0.12 -0.09,0 -0.11,-0.06 -0.13,-0.14 -0.35,-1.02 -1.25,-1.02 -1.35,-1.02 -0.49,0 -0.89,0.3 -1.12,0.67 -0.3,0.47 -0.3,1.13 -0.3,1.49 z"
         id="path5784" /><path
         style="fill:#000000;stroke-width:0"
         inkscape:connector-curvature="0"
         d="m 254.18,648.58 v 1.09 l -1.39,-0.11 v -0.31 c 0.7,0 0.78,-0.07 0.78,-0.55 v -2.67 c 0,-0.44 -0.11,-0.44 -0.78,-0.44 v -0.31 c 0.39,0.01 0.86,0.03 1.14,0.03 0.39,0 0.86,0 1.26,-0.03 v 0.31 h -0.21 c -0.74,0 -0.75,0.11 -0.75,0.46 v 1.54 c 0,0.98 0.41,1.86 1.17,1.86 0.07,0 0.09,0 0.11,-0.01 -0.03,-0.01 -0.23,-0.13 -0.23,-0.39 0,-0.27 0.21,-0.42 0.43,-0.42 0.18,0 0.43,0.12 0.43,0.44 0,0.31 -0.31,0.6 -0.74,0.6 -0.73,0 -1.08,-0.66 -1.22,-1.09 z"
         id="path5786" /><path
         style="fill:#000000;stroke-width:0"
         inkscape:connector-curvature="0"
         d="m 257.52,647.58 0.01,0.2 c 0.06,1.48 0.9,1.73 1.23,1.73 1.03,0 1.13,-1.34 1.13,-1.73 h -2.36 l -0.01,-0.2 h 2.78 c 0.22,0 0.25,0 0.25,0.2 0,0.99 -0.54,1.95 -1.79,1.95 -1.15,0 -2.06,-1.02 -2.06,-2.26 0,-1.34 1.04,-2.3 2.18,-2.3 1.22,0 1.67,1.1 1.67,1.29 0,0.1 -0.09,0.12 -0.13,0.12 -0.09,0 -0.11,-0.06 -0.13,-0.14 -0.35,-1.02 -1.25,-1.02 -1.35,-1.02 -0.49,0 -0.89,0.3 -1.12,0.67 -0.3,0.47 -0.3,1.13 -0.3,1.49 z"
         id="path5788" /><path
         style="fill:#000000;stroke-width:0"
         inkscape:connector-curvature="0"
         d="m 261.94,648.7 v -2.67 c 0,-0.44 -0.11,-0.44 -0.78,-0.44 v -0.31 c 0.35,0.01 0.86,0.03 1.13,0.03 0.26,0 0.77,-0.02 1.11,-0.03 v 0.31 c -0.67,0 -0.78,0 -0.78,0.44 v 1.83 c 0,1.04 0.71,1.59 1.35,1.59 0.62,0 0.73,-0.53 0.73,-1.1 v -2.32 c 0,-0.44 -0.11,-0.44 -0.77,-0.44 v -0.31 c 0.35,0.01 0.85,0.03 1.12,0.03 0.26,0 0.78,-0.02 1.12,-0.03 v 0.31 c -0.52,0 -0.77,0 -0.78,0.3 v 1.89 c 0,0.86 0,1.17 -0.31,1.52 -0.14,0.17 -0.47,0.37 -1.04,0.37 -0.73,0 -1.2,-0.43 -1.47,-1.04 v 1.04 l -1.41,-0.11 v -0.31 c 0.7,0 0.78,-0.07 0.78,-0.55 z"
         id="path5790" /><path
         style="fill:#000000;stroke-width:0"
         inkscape:connector-curvature="0"
         d="m 267.54,647.45 0,0.07 0.01,0.07 0,0.08 0,0.07 0.01,0.06 0,0.07 0.01,0.07 0.01,0.06 0.01,0.06 0.01,0.06 0.01,0.06 0.01,0.06 0.03,0.1 0.03,0.11 0.03,0.09 0.04,0.1 0.04,0.08 0.04,0.08 0.04,0.08 0.05,0.07 0.05,0.06 0.05,0.06 0.05,0.06 0.05,0.05 0.05,0.04 0.06,0.04 0.05,0.04 0.06,0.04 0.06,0.03 0.05,0.02 0.06,0.02 0.06,0.02 0.05,0.02 0.06,0.01 0.05,0.01 0.05,0.01 0.06,0 0.05,0 c 0.09,0 0.71,-0.01 1.06,-0.37 -0.41,-0.02 -0.47,-0.32 -0.47,-0.45 0,-0.26 0.18,-0.46 0.46,-0.46 0.26,0 0.46,0.17 0.46,0.47 0,0.67 -0.76,1.06 -1.52,1.06 -1.25,0 -2.16,-1.07 -2.16,-2.3 0,-1.28 0.98,-2.26 2.14,-2.26 1.33,0 1.65,1.19 1.65,1.29 0,0.1 -0.1,0.1 -0.13,0.1 -0.09,0 -0.11,-0.04 -0.13,-0.1 -0.29,-0.92 -0.94,-1.04 -1.3,-1.04 -0.53,0 -1.41,0.43 -1.41,2.03 z"
         id="path5792" /><path
         style="fill:#000000;stroke-width:0"
         inkscape:connector-curvature="0"
         d="m 272.57,649.67 -1.4,-0.11 v -0.31 c 0.65,0 0.74,-0.06 0.74,-0.54 v -2.68 c 0,-0.44 -0.11,-0.44 -0.78,-0.44 v -0.31 c 0.32,0.01 0.86,0.03 1.1,0.03 0.35,0 0.69,-0.02 1.03,-0.03 v 0.31 c -0.65,0 -0.69,0.05 -0.69,0.44 z"
         id="path5794" /><path
         style="fill:#000000;stroke-width:0"
         inkscape:connector-curvature="0"
         d="m 272.61,651.4 0,0.03 -0.01,0.03 0,0.03 0,0.02 -0.01,0.03 -0.01,0.03 -0.01,0.02 -0.01,0.03 -0.01,0.02 -0.01,0.02 -0.01,0.02 -0.02,0.03 -0.01,0.02 -0.02,0.02 -0.01,0.01 -0.02,0.02 -0.02,0.02 -0.02,0.01 -0.02,0.02 -0.02,0.01 -0.02,0.02 -0.02,0.01 -0.03,0.01 -0.02,0.01 -0.02,0.01 -0.03,0 -0.02,0.01 -0.03,0.01 -0.02,0 -0.03,0 -0.02,0.01 -0.03,0 c -0.31,0 -0.53,-0.27 -0.53,-0.53 0,-0.27 0.22,-0.53 0.53,-0.53 0.28,0 0.53,0.21 0.53,0.53 z"
         id="path5796" /><path
         style="fill:#000000;stroke-width:0"
         inkscape:connector-curvature="0"
         d="m 276.89,646.03 0,-0.03 0.01,-0.04 0,-0.04 0.01,-0.03 0.01,-0.04 0.01,-0.04 0.02,-0.03 0.01,-0.04 0.01,-0.04 0.02,-0.03 0.02,-0.03 0.02,-0.04 0.02,-0.03 0.02,-0.03 0.02,-0.03 0.02,-0.03 0.03,-0.03 0.03,-0.03 0.02,-0.02 0.03,-0.03 0.03,-0.02 0.03,-0.02 0.04,-0.02 0.03,-0.02 0.03,-0.01 0.04,-0.02 0.04,-0.01 0.04,-0.01 0.04,-0.01 0.04,-0.01 0.04,0 0.04,0 c 0.21,0 0.82,0.14 0.82,0.94 v 0.56 h -0.25 v -0.56 c 0,-0.57 -0.25,-0.63 -0.36,-0.63 -0.33,0 -0.37,0.44 -0.37,0.5 v 1.98 c 0,0.42 0,0.81 -0.36,1.17 -0.38,0.39 -0.88,0.55 -1.36,0.55 -0.81,0 -1.5,-0.47 -1.5,-1.12 0,-0.3 0.2,-0.47 0.46,-0.47 0.28,0 0.46,0.2 0.46,0.46 0,0.12 -0.05,0.44 -0.51,0.45 0.27,0.35 0.75,0.46 1.07,0.46 0.49,0 1.06,-0.39 1.06,-1.27 v -0.37 -0.21 -0.99 c 0,-0.94 -0.72,-1.28 -1.17,-1.28 -0.48,0 -0.89,0.35 -0.89,0.84 0,0.55 0.42,1.37 2.06,1.43 h 0 v 0.21 c -0.51,-0.03 -1.21,-0.06 -1.83,-0.35 -0.75,-0.34 -1,-0.86 -1,-1.3 0,-0.8 0.97,-1.05 1.59,-1.05 0.66,0 1.12,0.4 1.31,0.86 z"
         id="path5798" /></g>    <path
       inkscape:connector-curvature="0"
       id="path5895"
       d="M 34.649944,250.41729 316.91682,222.41666"
       style="fill:none;stroke:#000000;stroke-width:0.39997074;stroke-linecap:butt;stroke-linejoin:miter;stroke-miterlimit:4;stroke-opacity:1;stroke-dasharray:none" />
    <path
       inkscape:connector-curvature="0"
       id="path5897"
       d="M 68.518686,293.05015 316.39902,223.34789"
       style="fill:none;stroke:#000000;stroke-width:0.37904701;stroke-linecap:butt;stroke-linejoin:miter;stroke-miterlimit:4;stroke-opacity:1;stroke-dasharray:none" />
    <g
       style="font-style:normal;font-variant:normal;font-weight:normal;font-stretch:normal;letter-spacing:normal;word-spacing:normal;text-anchor:start;fill:none;stroke:#000000;stroke-linecap:butt;stroke-linejoin:miter;stroke-miterlimit:10.43299961;stroke-opacity:1;stroke-dasharray:none;stroke-dashoffset:0"
       ns0:preamble="/home/ccuartas/Dropbox/Libros Opt. Fourier/Avance1/Im\xc3\xa1genes/preamble.tex"
       ns0:text="$x$"
       word-spacing="normal"
       letter-spacing="normal"
       font-size-adjust="none"
       font-stretch="normal"
       font-weight="normal"
       font-variant="normal"
       font-style="normal"
       stroke-miterlimit="10.433"
       xml:space="preserve"
       transform="matrix(1.3856386,0,0,-1.3856386,10.136058,1171.5396)"
       id="g3215"><path
         id="path3217"
         d="m 226.76,660.23 0,0.03 0.01,0.03 0.01,0.03 0.01,0.04 0.01,0.04 0.01,0.04 0.01,0.04 0.02,0.05 0.01,0.04 0.02,0.05 0.02,0.05 0.02,0.05 0.02,0.05 0.03,0.05 0.02,0.05 0.03,0.05 0.03,0.05 0.03,0.04 0.03,0.05 0.04,0.04 0.04,0.05 0.04,0.04 0.04,0.04 0.04,0.03 0.05,0.03 0.05,0.03 0.02,0.01 0.03,0.02 0.02,0.01 0.03,0.01 0.03,0.01 0.03,0 0.03,0.01 0.02,0.01 0.04,0 0.03,0 0.03,0.01 0.03,0 c 0.05,0 0.29,0 0.5,-0.13 -0.28,-0.05 -0.48,-0.3 -0.48,-0.54 0,-0.16 0.11,-0.35 0.38,-0.35 0.22,0 0.54,0.18 0.54,0.58 0,0.52 -0.59,0.66 -0.93,0.66 -0.58,0 -0.93,-0.53 -1.04,-0.76 -0.25,0.66 -0.79,0.76 -1.08,0.76 -1.03,0 -1.6,-1.29 -1.6,-1.53 0,-0.1 0.1,-0.1 0.12,-0.1 0.08,0 0.11,0.02 0.13,0.11 0.34,1.05 0.99,1.3 1.33,1.3 0.19,0 0.54,-0.09 0.54,-0.67 0,-0.31 -0.17,-0.97 -0.54,-2.36 -0.16,-0.62 -0.51,-1.04 -0.94,-1.04 -0.06,0 -0.29,0 -0.5,0.13 0.25,0.05 0.47,0.26 0.47,0.54 0,0.27 -0.22,0.35 -0.37,0.35 -0.3,0 -0.55,-0.26 -0.55,-0.58 0,-0.46 0.5,-0.65 0.94,-0.65 0.65,0 1.01,0.69 1.04,0.75 0.12,-0.37 0.48,-0.75 1.07,-0.75 1.03,0 1.6,1.28 1.6,1.53 0,0.1 -0.09,0.1 -0.12,0.1 -0.09,0 -0.11,-0.04 -0.13,-0.11 -0.33,-1.07 -1.01,-1.31 -1.33,-1.31 -0.38,0 -0.54,0.32 -0.54,0.66 0,0.22 0.06,0.44 0.17,0.87 z"
         inkscape:connector-curvature="0"
         style="fill:#000000;stroke-width:0" /></g>    <path
       sodipodi:type="arc"
       id="path3339"
       style="fill:#000000;stroke:none"
       sodipodi:cx="316.80908"
       sodipodi:cy="292.98001"
       sodipodi:rx="1.5"
       sodipodi:ry="1.5"
       d="m 318.30908,292.98001 a 1.5,1.5 0 1 1 -3,0 1.5,1.5 0 1 1 3,0 z"
       transform="matrix(1.3788072,0,0,1.3788072,-119.50449,-110.28846)" />
    <g
       id="g3443"
       transform="matrix(1.3856386,0,0,-1.3856386,12.847818,1206.3899)"
       xml:space="preserve"
       stroke="black"
       stroke-linecap="butt"
       stroke-linejoin="miter"
       stroke-miterlimit="10.433"
       stroke-dasharray="none"
       stroke-dashoffset="0"
       stroke-opacity="1"
       fill="none"
       fill-rule="evenodd"
       fill-opacity="1"
       font-style="normal"
       font-variant="normal"
       font-weight="normal"
       font-stretch="normal"
       font-size-adjust="none"
       letter-spacing="normal"
       word-spacing="normal"
       text-anchor="start"
       ns0:text="$y$"
       ns0:preamble="/home/ccuartas/Dropbox/Libros Opt. Fourier/Avance1/Im\xc3\xa1genes/preamble.tex"
       style="font-style:normal;font-variant:normal;font-weight:normal;font-stretch:normal;letter-spacing:normal;word-spacing:normal;text-anchor:start;fill:none;stroke:#000000;stroke-linecap:butt;stroke-linejoin:miter;stroke-miterlimit:10.43299961;stroke-opacity:1;stroke-dasharray:none;stroke-dashoffset:0"><path
         d="M228.27,661.02 L228.27,661.03 L228.27,661.03 L228.27,661.04 L228.27,661.04 L228.28,661.06 L228.28,661.07 L228.28,661.08 L228.29,661.09 L228.29,661.1 L228.29,661.1 L228.29,661.11 L228.29,661.12 L228.3,661.13 L228.3,661.14 L228.3,661.14 L228.3,661.15 L228.3,661.15 L228.3,661.16 L228.3,661.17 L228.3,661.17 L228.3,661.18 L228.3,661.18 L228.31,661.19 L228.31,661.2 L228.31,661.21 L228.31,661.22 L228.31,661.23 L228.31,661.24 L228.31,661.24 L228.31,661.25 C228.31,661.43,228.17,661.52,228.02,661.52 C227.92,661.52,227.76,661.46,227.67,661.31 C227.65,661.26,227.57,660.95,227.53,660.77 C227.46,660.51,227.39,660.24,227.33,659.98 L226.88,658.19 C226.85,658.04,226.42,657.34,225.76,657.34 C225.25,657.34,225.14,657.78,225.14,658.15 C225.14,658.61,225.31,659.22,225.65,660.1 C225.81,660.5,225.85,660.61,225.85,660.81 C225.85,661.26,225.53,661.63,225.03,661.63 C224.09,661.63,223.72,660.18,223.72,660.1 C223.72,660,223.82,660,223.84,660 C223.94,660,223.95,660.02,224,660.17 C224.27,661.11,224.67,661.41,225,661.41 C225.08,661.41,225.25,661.41,225.25,661.09 C225.25,660.84,225.15,660.58,225.08,660.39 C224.69,659.34,224.51,658.78,224.51,658.31 C224.51,657.42,225.13,657.13,225.72,657.13 C226.11,657.13,226.45,657.29,226.73,657.57 C226.6,657.06,226.48,656.57,226.08,656.04 C225.82,655.71,225.44,655.42,224.98,655.42 C224.85,655.42,224.4,655.45,224.23,655.83 C224.39,655.83,224.52,655.83,224.66,655.95 C224.76,656.04,224.85,656.17,224.85,656.36 C224.85,656.67,224.59,656.71,224.49,656.71 C224.26,656.71,223.93,656.55,223.93,656.06 C223.93,655.57,224.37,655.2,224.98,655.2 C226.01,655.2,227.03,656.1,227.31,657.22 Z "
         stroke-width="0"
         fill="black"
         id="path3445" /></g>    <g
       style="font-style:normal;font-variant:normal;font-weight:normal;font-stretch:normal;letter-spacing:normal;word-spacing:normal;text-anchor:start;fill:none;stroke:#000000;stroke-linecap:butt;stroke-linejoin:miter;stroke-miterlimit:10.43299961;stroke-opacity:1;stroke-dasharray:none;stroke-dashoffset:0"
       ns0:preamble="/home/ccuartas/Dropbox/Libros Opt. Fourier/Avance1/Im\xc3\xa1genes/preamble.tex"
       ns0:text="$-z$"
       text-anchor="start"
       word-spacing="normal"
       letter-spacing="normal"
       font-size-adjust="none"
       font-stretch="normal"
       font-weight="normal"
       font-variant="normal"
       font-style="normal"
       fill-opacity="1"
       fill-rule="evenodd"
       fill="none"
       stroke-opacity="1"
       stroke-dashoffset="0"
       stroke-dasharray="none"
       stroke-miterlimit="10.433"
       stroke-linejoin="miter"
       stroke-linecap="butt"
       stroke="black"
       xml:space="preserve"
       transform="matrix(1.3856386,0,0,-1.3856386,-123.75942,1216.2959)"
       id="g5265"><path
         id="path5267"
         fill="black"
         stroke-width="0"
         d="M229.99,659.52 L230.02,659.52 L230.05,659.52 L230.08,659.52 L230.1,659.52 L230.11,659.52 L230.13,659.52 L230.14,659.53 L230.16,659.53 L230.17,659.53 L230.19,659.53 L230.2,659.54 L230.21,659.54 L230.23,659.54 L230.24,659.55 L230.25,659.56 L230.26,659.56 L230.27,659.57 L230.28,659.58 L230.29,659.58 L230.3,659.59 L230.31,659.6 L230.31,659.61 L230.31,659.61 L230.32,659.62 L230.32,659.63 L230.32,659.63 L230.32,659.64 L230.33,659.65 L230.33,659.65 L230.33,659.66 L230.33,659.67 L230.33,659.68 L230.33,659.68 L230.34,659.69 L230.34,659.7 L230.34,659.71 L230.34,659.72 C230.34,659.92,230.16,659.92,229.99,659.92 H224.61 C224.44,659.92,224.26,659.92,224.26,659.72 C224.26,659.52,224.44,659.52,224.61,659.52 Z " /><path
         id="path5269"
         fill="black"
         stroke-width="0"
         d="M232.5,658.06 L232.55,658.11 L232.6,658.16 L232.65,658.21 L232.69,658.26 L232.74,658.31 L232.78,658.35 L232.82,658.39 L232.87,658.44 L232.91,658.48 L232.94,658.52 L232.98,658.55 L233.02,658.59 L233.06,658.63 L233.09,658.66 L233.16,658.73 L233.23,658.79 L233.3,658.85 L233.36,658.91 L233.43,658.97 L233.56,659.08 L233.62,659.13 L233.69,659.19 C233.69,659.2,234.3,659.73,234.66,660.09 C235.61,661.01,235.83,661.49,235.83,661.53 C235.83,661.63,235.74,661.63,235.72,661.63 C235.65,661.63,235.62,661.61,235.57,661.52 C235.27,661.04,235.06,660.88,234.82,660.88 C234.58,660.88,234.46,661.03,234.32,661.2 C234.13,661.43,233.96,661.63,233.63,661.63 C232.88,661.63,232.43,660.7,232.43,660.49 C232.43,660.44,232.45,660.38,232.54,660.38 C232.63,660.38,232.65,660.43,232.67,660.49 C232.86,660.95,233.44,660.96,233.52,660.96 C233.73,660.96,233.92,660.89,234.15,660.81 C234.54,660.66,234.65,660.66,234.91,660.66 C234.55,660.23,233.72,659.52,233.53,659.36 L232.63,658.53 C231.96,657.86,231.61,657.29,231.61,657.22 C231.61,657.13,231.71,657.13,231.73,657.13 C231.81,657.13,231.83,657.15,231.89,657.26 C232.12,657.6,232.41,657.87,232.73,657.87 C232.96,657.87,233.06,657.78,233.31,657.49 C233.48,657.28,233.66,657.13,233.95,657.13 C234.93,657.13,235.51,658.39,235.51,658.66 C235.51,658.71,235.47,658.76,235.39,658.76 C235.3,658.76,235.28,658.7,235.25,658.63 C235.02,657.98,234.38,657.79,234.06,657.79 C233.86,657.79,233.68,657.85,233.47,657.92 C233.13,658.05,232.98,658.09,232.77,658.09 C232.75,658.09,232.59,658.09,232.5,658.06 Z " /></g>  </g>
</svg>
